<?xml version="1.0" standalone="no"?>
<!DOCTYPE svg PUBLIC "-//W3C//DTD SVG 20010904//EN"
 "http://www.w3.org/TR/2001/REC-SVG-20010904/DTD/svg10.dtd">
<svg version="1.0" xmlns="http://www.w3.org/2000/svg"
 width="975.000000pt" height="975.000000pt" viewBox="0 0 975.000000 975.000000"
 preserveAspectRatio="xMidYMid meet">
<metadata>
Created by potrace 1.11, written by Peter Selinger 2001-2013
</metadata>
<g transform="translate(0.000000,975.000000) scale(0.100000,-0.100000)"
fill="#000000" stroke="none">
<path d="M1229 9746 c-2 -2 -27 -7 -56 -10 -119 -12 -283 -66 -413 -134 -192
-101 -360 -251 -476 -427 -96 -147 -154 -292 -200 -505 -4 -19 -9 -504 -11
-1077 l-4 -1042 423 3 c397 2 429 4 521 25 287 66 533 216 711 435 17 21 46
57 64 80 19 22 41 50 50 61 10 11 51 63 92 115 41 52 77 97 80 100 3 3 17 21
32 42 15 20 33 42 40 50 7 7 37 44 67 82 29 38 61 78 71 90 10 11 68 84 129
161 62 77 117 147 124 155 13 16 166 208 180 225 4 6 60 75 123 155 64 80 128
160 142 179 15 19 41 51 57 71 17 20 44 54 60 75 17 21 54 68 83 104 29 36 59
73 65 81 7 8 59 74 116 145 57 72 117 148 135 169 17 22 54 68 81 102 28 34
64 79 80 100 88 112 272 342 287 358 10 11 18 23 18 28 0 8 -2663 12 -2671 4z"/>
<path d="M6114 9703 c-22 -27 -47 -57 -56 -68 -41 -49 -184 -222 -198 -239 -8
-10 -20 -23 -25 -30 -9 -9 -121 -144 -175 -209 -8 -10 -22 -28 -32 -38 -9 -11
-31 -38 -48 -59 -17 -21 -41 -49 -52 -62 -11 -13 -35 -41 -53 -63 -18 -22 -82
-98 -142 -169 -59 -71 -119 -143 -133 -160 -13 -17 -60 -74 -104 -126 -81 -98
-87 -105 -171 -205 -71 -85 -76 -91 -146 -175 -83 -101 -120 -146 -229 -275
-120 -144 -114 -137 -195 -235 -38 -47 -79 -96 -91 -110 -24 -27 -75 -87 -139
-165 -135 -163 -263 -317 -300 -360 -23 -27 -70 -84 -104 -125 -34 -41 -70
-84 -79 -95 -10 -11 -64 -76 -121 -145 -57 -69 -113 -136 -125 -150 -23 -28
-110 -132 -138 -165 -78 -93 -186 -223 -198 -239 -8 -10 -20 -23 -25 -30 -6
-6 -27 -31 -47 -55 -42 -49 -44 -42 33 -133 25 -29 164 -195 308 -368 144
-173 272 -326 285 -340 12 -14 55 -65 96 -115 41 -49 82 -99 92 -110 37 -45
246 -294 283 -339 22 -27 45 -54 50 -60 6 -6 30 -36 55 -66 25 -30 47 -57 50
-60 3 -3 37 -43 75 -90 38 -47 77 -92 85 -100 9 -8 31 -35 50 -60 19 -25 37
-47 40 -50 3 -3 50 -59 105 -125 55 -66 102 -122 105 -125 3 -3 25 -30 50 -60
25 -30 47 -57 50 -60 5 -5 182 -217 221 -265 18 -21 87 -103 123 -145 11 -14
41 -50 66 -80 25 -30 47 -57 50 -60 3 -3 52 -61 109 -130 57 -69 113 -136 125
-150 12 -14 66 -79 121 -145 54 -66 101 -122 105 -125 3 -3 102 -121 220 -263
l215 -258 1200 4 c660 2 1209 6 1220 9 11 3 38 8 60 13 39 7 93 22 183 51 157
51 333 163 472 303 189 189 300 395 357 661 17 81 18 212 18 2795 0 1491 -4
2735 -8 2765 -27 178 -107 381 -209 530 -157 229 -400 408 -663 489 -199 61
-168 60 -1456 61 l-1176 0 -39 -47z"/>
<path d="M73 4227 c2 -573 7 -1058 11 -1077 17 -81 47 -196 55 -215 5 -11 19
-45 31 -75 99 -247 300 -475 546 -619 120 -70 242 -114 444 -159 14 -3 633 -7
1375 -9 743 -1 1359 -5 1370 -8 11 -3 48 -40 82 -83 35 -42 75 -90 91 -107 15
-16 79 -91 142 -165 63 -74 117 -137 120 -140 4 -3 87 -99 185 -215 99 -115
182 -212 185 -215 3 -3 32 -36 65 -75 33 -38 62 -72 65 -75 3 -3 30 -34 60
-70 30 -36 60 -70 65 -76 6 -6 29 -33 52 -60 23 -27 51 -60 63 -74 12 -14 40
-47 63 -74 23 -28 51 -60 62 -72 11 -12 96 -111 190 -220 197 -232 236 -272
290 -300 190 -102 436 22 463 233 4 32 7 447 6 923 l0 865 -1122 3 -1122 2
-97 122 c-54 68 -106 132 -115 143 -14 17 -244 306 -340 426 -46 59 -338 423
-351 439 -6 8 -46 58 -87 110 -41 52 -77 97 -80 100 -3 3 -21 25 -40 50 -41
53 -61 78 -75 94 -6 6 -35 43 -65 81 -30 39 -57 72 -60 75 -4 3 -13 14 -21 26
-8 11 -30 41 -50 65 -21 24 -60 73 -89 109 -28 36 -62 79 -75 95 -14 17 -86
107 -160 200 -75 94 -141 177 -148 185 -7 8 -64 80 -127 160 -63 80 -117 147
-120 150 -3 3 -25 30 -48 60 -142 181 -332 327 -534 409 -218 88 -296 98 -773
99 l-386 0 4 -1041z"/>
</g>
</svg>
