<svg viewBox="0 0 12 23" fill="none" xmlns="http://www.w3.org/2000/svg">
<g clip-path="url(#clip0)">
<path d="M10.554 1.11899C10.6262 1.04666 10.7119 0.989315 10.8063 0.950165C10.9007 0.911015 11.0018 0.890839 11.104 0.890839C11.2061 0.890839 11.3073 0.911015 11.4017 0.950165C11.4961 0.989315 11.5818 1.04666 11.654 1.11899C11.7264 1.19109 11.7839 1.2768 11.8232 1.37119C11.8624 1.46557 11.8826 1.56682 11.8826 1.66904C11.8826 1.77125 11.8624 1.87238 11.8232 1.96677C11.7839 2.06115 11.7264 2.14686 11.654 2.21896L1.987 11.8871L11.654 21.555C11.7999 21.7009 11.8818 21.8987 11.8818 22.1049C11.8818 22.3112 11.7999 22.5091 11.654 22.655C11.5081 22.8009 11.3103 22.8828 11.104 22.8828C10.8977 22.8828 10.6999 22.8009 10.554 22.655L0.336975 12.438C0.264651 12.3658 0.207272 12.2801 0.168121 12.1858C0.128971 12.0914 0.108826 11.9902 0.108826 11.888C0.108826 11.7859 0.128971 11.6847 0.168121 11.5903C0.207272 11.4959 0.264651 11.4102 0.336975 11.338L10.554 1.11899Z" fill="black"/>
</g>
<defs>
<clipPath id="clip0">
<rect width="21.989" height="11.771" fill="white" transform="translate(11.88 0.891006) rotate(90)"/>
</clipPath>
</defs>
</svg>
