<svg xmlns="http://www.w3.org/2000/svg" viewBox="0 0 16.155 16.376">
    <defs>
        <style>
            .cls-1{fill:#485460}.cls-2{fill:#747576}
        </style>
    </defs>
    <g id="calendar-empty-page-outline" transform="translate(-546.047 -188.094)">
        <g id="Gruppe_168" data-name="Gruppe 168" transform="translate(546.047 188.094)">
            <g id="Gruppe_167" data-name="Gruppe 167">
                <path id="Pfad_583" d="M19.088 1.921h-1.632v-.836a.585.585 0 0 0-1.169 0v.836H8.935v-.836a.585.585 0 1 0-1.169 0v.836H6.134a1.588 1.588 0 0 0-1.587 1.586v11.755a1.588 1.588 0 0 0 1.587 1.587h12.954a1.588 1.588 0 0 0 1.587-1.587V3.507a1.588 1.588 0 0 0-1.587-1.586zM5.716 3.507a.417.417 0 0 1 .418-.418h1.632v.667a.585.585 0 1 0 1.169 0V3.09h7.351v.667a.585.585 0 0 0 1.169 0V3.09h1.633a.418.418 0 0 1 .418.418v1.47H5.716zm13.79 11.755a.418.418 0 0 1-.418.418H6.134a.418.418 0 0 1-.418-.418V6.146h13.79z" class="cls-1" data-name="Pfad 583" transform="translate(-4.533 -.486)"/>
                <path id="Pfad_584" d="M18.6 16.376H5.647a1.6 1.6 0 0 1-1.6-1.6V3.021a1.6 1.6 0 0 1 1.6-1.6h1.619V.6a.6.6 0 0 1 1.2 0v.823h7.324V.6a.6.6 0 0 1 1.2 0v.823h1.61a1.6 1.6 0 0 1 1.6 1.6v11.753a1.6 1.6 0 0 1-1.6 1.6zM5.647 1.448a1.575 1.575 0 0 0-1.573 1.573v11.755a1.575 1.575 0 0 0 1.573 1.573H18.6a1.575 1.575 0 0 0 1.573-1.573V3.021A1.575 1.575 0 0 0 18.6 1.448h-1.644V.6a.571.571 0 0 0-1.142 0v.85H8.435V.6a.571.571 0 1 0-1.141 0v.85zM18.6 15.207H5.647a.432.432 0 0 1-.431-.431v-9.13h13.817v9.13a.432.432 0 0 1-.433.431zM5.243 5.673v9.1a.4.4 0 0 0 .4.4H18.6a.4.4 0 0 0 .4-.4v-9.1zM19.033 4.5H5.216V3.021a.432.432 0 0 1 .431-.431h1.647v.68a.571.571 0 1 0 1.142 0v-.68h7.378v.68a.571.571 0 1 0 1.142 0v-.68H18.6a.432.432 0 0 1 .431.431zm-13.79-.023h13.763V3.021a.4.4 0 0 0-.4-.4h-1.623v.649a.6.6 0 0 1-1.2 0v-.653h-7.32v.653a.6.6 0 1 1-1.2 0v-.653H5.647a.4.4 0 0 0-.4.4z" class="cls-2" data-name="Pfad 584" transform="translate(-4.047)"/>
            </g>
        </g>
    </g>
</svg>
