<svg xmlns="http://www.w3.org/2000/svg" viewBox="0 0 51.999 57.66">
    <defs>
        <style>
            .cls-1{fill:#717AFA;opacity:.18}
        </style>
    </defs>
    <g id="clock" transform="translate(-.064 .004)">
        <g id="Ebene_1" data-name="Ebene 1" transform="translate(.065 -.004)">
            <path id="Pfad_915" d="M30.56 1.71a24.915 24.915 0 0 0-10.825 1.706 56.373 56.373 0 0 0-8.493 4.541c-4.615 2.921-8.592 6.137-9.991 11.7a27.554 27.554 0 0 0 1.89 17.883 23.528 23.528 0 0 0 12.777 12.184 24.964 24.964 0 0 0 21.368-.773 26.462 26.462 0 0 0 13.059-16.189A26.56 26.56 0 0 0 47.8 13.186a23.074 23.074 0 0 0-8.837-8.591l-3.8-1.669a22.436 22.436 0 0 0-8.15-1.226c-.258 0 .7 2.614.675 2.541.11.319.589 2.283 1.129 2.381a25.774 25.774 0 0 1 7.463 2.207 20.276 20.276 0 0 1 6.91 5.3 22.718 22.718 0 0 1 4.553 16.091c-1.755 12.017-13.255 21.787-25.627 19.43l-4.05-1.031-9.475-6.652a21.651 21.651 0 0 1-4.455-9.512 21.037 21.037 0 0 1 1.583-14c2.172-4.087 5.891-5.928 9.819-7.99a44.86 44.86 0 0 1 8.223-3.473 27 27 0 0 1 10.212-.8A25.454 25.454 0 0 0 32.45 3.8c-.27-.335-1.264-2.078-1.89-2.09z" class="cls-1" data-name="Pfad 915" transform="translate(.044 .381)"/>
            <path id="Pfad_916" d="M31.664 3.783c-3.154-.11-4.234-.356-7.364.442a38.109 38.109 0 0 0-8.726 3.535c-4.6 2.455-10.31 5.511-12.556 10.555A25.18 25.18 0 0 0 16.6 51.22a25.173 25.173 0 0 0 21.417-.785 26.069 26.069 0 0 0 13.059-16.2 25.873 25.873 0 0 0-2.83-19.335 22.6 22.6 0 0 0-8.751-8.27 29.285 29.285 0 0 0-11.513-2.847s.528 2.86 1.227 3.007a27.64 27.64 0 0 1 7.916 2.455c2.528 1.4 5.584 3.424 7.106 5.879a24.179 24.179 0 0 1 3.8 14.8c-.853 10.557-10.844 19.876-21.448 19.86-5.634 0-12.04-1.731-15.956-6.039A25.541 25.541 0 0 1 4.1 30.552c-.761-4.5.184-10.666 3.412-14.2l5.83-4.32 3.154-1.792a29.96 29.96 0 0 1 16.888-3.9c.355.008-1.084-2.54-1.72-2.557z" class="cls-1" data-name="Pfad 916" transform="translate(.167 .836)"/>
            <path id="Pfad_917" d="M30.054.111a18.693 18.693 0 0 0-7.278.626l-3.585 1.228a48.91 48.91 0 0 0-10 5.769 22.682 22.682 0 0 0-5.793 5.4A19.2 19.2 0 0 0 .634 21.6a28.106 28.106 0 0 0 6.628 21.54 24.424 24.424 0 0 0 15.133 7.831 25.566 25.566 0 0 0 26.6-15.551 26.364 26.364 0 0 0-.147-21.5 23.418 23.418 0 0 0-8.064-9.61 16.483 16.483 0 0 0-5.646-2.958A21.761 21.761 0 0 0 26.727.124a28.12 28.12 0 0 0 1.4 3.093c.307.552 1.08 2.6 1.853 2.86 1.841.6 3.768 1.092 5.572 1.816A20.988 20.988 0 0 1 42.4 12.8c2.86 3.032 4.124 7 4.909 11.046a22.276 22.276 0 0 1-2.234 14.446 23.32 23.32 0 0 1-4.247 5.658l-27 3.019a11.77 11.77 0 0 1-5.744-5.4 22.915 22.915 0 0 1-3.866-7.855 23.32 23.32 0 0 1-.761-7.082c.2-4.48 1.6-9.119 4.909-12.274 2.565-2.455 6.137-3.9 9.328-5.437a34.562 34.562 0 0 1 8.518-3.032 24.105 24.105 0 0 1 8.236 0l-2-3.032c-.283-.401-1.67-2.733-2.394-2.746z" class="cls-1" data-name="Pfad 917" transform="translate(.023 .004)"/>
            <path id="Pfad_918" d="M30.84 5.828a20.5 20.5 0 0 0-7.18.466 24.044 24.044 0 0 0-5.265 1.853 46.088 46.088 0 0 0-5.253 2.676 47.278 47.278 0 0 0-7.512 5.192C.144 20.924-.8 29.307.721 36.082a25.382 25.382 0 0 0 17.355 19.27 26.4 26.4 0 0 0 13.648.27 25.578 25.578 0 0 0 10.764-6.051c6.468-5.756 10.126-16.312 8.125-24.8a25.222 25.222 0 0 0-8.236-13.759 23.136 23.136 0 0 0-7.119-4.075c-3.117-1.227-4.639-1.117-7.867-1.362-.515 0 .123 1.227.43 1.227q10.788.81 16.9 8.591 6.628 10.408 2 20.705A23.749 23.749 0 0 1 38.573 46.6c-7.683 5.535-18.668 5-26.167-.479a5.6 5.6 0 0 1-2.8-3.056 17.625 17.625 0 0 1-3.486-5.241A22.387 22.387 0 0 1 4.3 25.809a14.188 14.188 0 0 1 4.026-8.972 48.9 48.9 0 0 1 16.488-9.045 19.061 19.061 0 0 1 6.922-.466c.479-.001-.515-1.486-.896-1.498z" class="cls-1" data-name="Pfad 918" transform="translate(-.064 1.271)"/>
            <path id="Pfad_919" d="M31.167 4.4c-3.154-.1-4.247-.331-7.364.442a38.551 38.551 0 0 0-8.813 3.523C10.363 10.82 4.643 13.888 2.361 18.932a25.136 25.136 0 0 0-.847 17.355 24.866 24.866 0 0 0 14.544 15.858A25.014 25.014 0 0 0 37.5 51.126a26.511 26.511 0 0 0 12.838-16.213A25.774 25.774 0 0 0 47.613 15.7a22.178 22.178 0 0 0-8.665-8.334 29.1 29.1 0 0 0-11.525-2.978s.491 2.381.97 2.455a27.125 27.125 0 0 1 8.346 2.332 18.95 18.95 0 0 1 8.96 8.677 24.83 24.83 0 0 1 2.246 6.948 21.466 21.466 0 0 1-1.669 11.635c-4.369 10.58-17 16.336-27.824 12.274a23.062 23.062 0 0 1-7.057-3.94A23.32 23.32 0 0 1 6.9 38.84a22.89 22.89 0 0 1-2.577-14.52 14.421 14.421 0 0 1 6.566-10.2c6.726-4.369 13.5-7.646 21.847-7.192.321-.085-1.017-2.503-1.569-2.528z" class="cls-1" data-name="Pfad 919" transform="translate(.002 .98)"/>
            <path id="Pfad_920" d="M30.424 2.7a25.774 25.774 0 0 0-10.8 1.608 58.814 58.814 0 0 0-6.935 3.449c-4.824 2.749-9.451 5.854-11.354 11.279-4.468 12.7 3.277 28.6 16.471 32.267a25.873 25.873 0 0 0 20.865-2.565A27.333 27.333 0 0 0 50 33.581c2.172-7.008.344-15.109-3.817-20.963a22.264 22.264 0 0 0-7.561-6.836l-3.743-1.67A22.559 22.559 0 0 0 26.864 2.8c-.27 0 .577 2.172.552 2.111.123.295.5 1.841 1.006 1.915a27.186 27.186 0 0 1 7.7 2.087 21.724 21.724 0 0 1 7.254 5.462 22.092 22.092 0 0 1 4.1 9.107 24.019 24.019 0 0 1 .38 7.5 23.32 23.32 0 0 1-3.559 8.8 29.383 29.383 0 0 1-4.578 5.13c-5.364 4.725-13.12 5.94-19.834 4.1a19.883 19.883 0 0 1-11.05-6.987 22.546 22.546 0 0 1-3.965-7.364 20.865 20.865 0 0 1 .675-15.367c1.988-4.087 5.67-6.014 9.487-8.113A43.964 43.964 0 0 1 23.158 7.6a26.474 26.474 0 0 1 10.2-.933 16.581 16.581 0 0 0-1.3-2.111c-.158-.395-1.033-1.843-1.634-1.856z" class="cls-1" data-name="Pfad 920" transform="translate(-.065 .606)"/>
            <path id="Pfad_921" d="M31.5 5.451a20.214 20.214 0 0 0-7.155.515L20.8 7.071a49.45 49.45 0 0 0-10.2 5.437 20.165 20.165 0 0 0-7.61 7.757c-3.3 6.382-2.357 14.728.405 21.074a25.247 25.247 0 0 0 22.177 14.642 24.449 24.449 0 0 0 21.565-10.972 25.308 25.308 0 0 0 3.437-22.338 23.516 23.516 0 0 0-9.181-12.838C37.306 6.9 33.108 5.905 28.174 5.451c-.515 0 .147 1.3.466 1.35L46.548 19l1.227 3.473a22.375 22.375 0 0 1 .466 9.377 21.331 21.331 0 0 1-5.695 11.05A22.927 22.927 0 0 1 29.5 50.176a22.473 22.473 0 0 1-16.2-3.842C6.29 41.315 2.792 31.312 4.707 23.015l.81-2.528 4.664-5.523a46.823 46.823 0 0 1 5.094-3.364 36.575 36.575 0 0 1 8.272-3.8 25.775 25.775 0 0 1 8.727-.933c.478-.029-.43-1.404-.774-1.416z" class="cls-1" data-name="Pfad 921" transform="translate(.123 1.218)"/>
            <path id="Pfad_922" d="M23.214 23.513c.393 0-.957-1.743-1.436-1.743s.957 1.743 1.436 1.743z" class="cls-1" data-name="Pfad 922" transform="translate(4.85 4.954)"/>
            <path id="Pfad_923" d="M24.362 25.512a14.262 14.262 0 0 0-1.4-1.743c-.356-.356-1.141-1.4-1.743-1.4a14.262 14.262 0 0 0 1.4 1.743c.356.357 1.142 1.4 1.743 1.4z" class="cls-1" data-name="Pfad 923" transform="translate(4.745 5.09)"/>
            <path id="Pfad_924" d="M23.254 22.487c.454 0-.54-1.227-.908-1.227s.554 1.227.908 1.227z" class="cls-1" data-name="Pfad 924" transform="translate(4.982 4.838)"/>
            <path id="Pfad_925" d="M24.046 28.16c.074 0-1.939-2.3-1.915-2.271-.393-.393-1.546-1.939-2.271-1.939-.061 0 1.951 2.307 1.927 2.283.381.393 1.547 1.927 2.259 1.927z" class="cls-1" data-name="Pfad 925" transform="translate(4.436 5.449)"/>
            <path id="Pfad_926" d="M23.787 26.149a17.183 17.183 0 0 0-1.411-1.767c-.356-.356-1.141-1.411-1.755-1.411a14.5 14.5 0 0 0 1.411 1.755c.355.355 1.141 1.423 1.755 1.423z" class="cls-1" data-name="Pfad 926" transform="translate(4.609 5.227)"/>
            <path id="Pfad_927" d="M22.932 24.375c.356 0-1.227-2.025-1.706-2.025s1.154 2.025 1.706 2.025z" class="cls-1" data-name="Pfad 927" transform="translate(4.727 5.086)"/>
            <path id="Pfad_928" d="M25.085 28.208s-2.172-2.528-2.16-2.516c-.405-.405-1.743-2.172-2.455-2.172l2.172 2.516c.344.405 1.682 2.172 2.443 2.172z" class="cls-1" data-name="Pfad 928" transform="translate(4.575 5.352)"/>
            <path id="Pfad_929" d="M24 20.146V9.21c0-.061-1.939 1.829-1.927 1.816-.405.454-1.534 1.411-1.559 2.136a64.731 64.731 0 0 1-.982 12.507c-.074.515.822-.245.822-.245.38-.27 1.608-1.043 1.694-1.571Q23.274 16.66 24 9.382l-3.486 3.78-.245 10.752c0 .086 2.037-1.743 2.013-1.718.428-.381 1.718-1.375 1.718-2.05z" class="cls-1" data-name="Pfad 929" transform="translate(4.36 2.098)"/>
            <path id="Pfad_930" d="M24.323 22.111L24.4 11.2c0-.577-.957.577-.933.54-.43.43-1.841 1.62-1.866 2.3a71.187 71.187 0 0 1-1.227 13.022c-.074.491.761-.2.749-.184.356-.245 1.424-.945 1.5-1.424q1.227-7.094 1.755-14.25l-2.8 2.835-.221 10.739c0 .577.97-.479.957-.479.413-.347 2.009-1.574 2.009-2.188z" class="cls-1" data-name="Pfad 930" transform="translate(4.551 2.514)"/>
            <path id="Pfad_931" d="M24.288 18.69V7.73c0 .074-2.172 2.381-2.209 2.455-.454.577-1.816 1.878-1.829 2.737A57.686 57.686 0 0 1 19.391 25c-.061.552.921-.38.871-.344.43-.344 1.706-1.227 1.8-1.841q1.227-7.364 2.2-14.851l-4.012 4.909-.565 10.482s2.455-2.16 2.455-2.185c.454-.393 2.148-1.719 2.148-2.48z" class="cls-1" data-name="Pfad 931" transform="translate(4.328 1.762)"/>
            <path id="Pfad_932" d="M23.5 24.154V13.328c0-.442-1.227.712-1.227 1.068A88.271 88.271 0 0 1 20.28 28.5c0 .38 1.4-.552 1.461-.97a102.2 102.2 0 0 0 1.731-14.2l-1.228 1.07-.086 10.825c-.012.389 1.342-.679 1.342-1.071z" class="cls-1" data-name="Pfad 932" transform="translate(4.531 3.012)"/>
            <path id="Pfad_933" d="M23.547 22.839l.135-10.9c0-.5-.761.344-.749.319-.344.344-1.227 1.154-1.313 1.694A77.471 77.471 0 0 1 20 27.294c0 .344 1.9-.786 1.988-1.3a115.15 115.15 0 0 0 1.694-14.054L21.6 13.952 21.4 24.7c0 .491.749-.27.749-.27.306-.266 1.398-1.101 1.398-1.591z" class="cls-1" data-name="Pfad 933" transform="translate(4.468 2.682)"/>
            <path id="Pfad_934" d="M23.377 21.342l.073-10.912c0-.577-.945.552-.908.515-.417.417-1.78 1.583-1.8 2.246a71.862 71.862 0 0 1-1.227 13.071c-.061.491.761-.2.749-.2.356-.245 1.4-.933 1.461-1.411A140.891 140.891 0 0 0 23.45 10.43l-2.712 2.762-.221 10.739c0 .565.945-.466.933-.454.393-.356 1.927-1.534 1.927-2.135z" class="cls-1" data-name="Pfad 934" transform="translate(4.356 2.338)"/>
            <path id="Pfad_935" d="M24.124 24.119l.1-10.9c0-.356-1.632 1.092-1.669 1.571a81 81 0 0 1-1.745 13.65c0 .368 1.694-.675 1.767-1.154a104.167 104.167 0 0 0 1.645-14.066l-1.669 1.571-.172 10.764c-.012.381 1.731-.955 1.743-1.436z" class="cls-1" data-name="Pfad 935" transform="translate(4.652 2.997)"/>
            <path id="Pfad_936" d="M22.948 24.339a17.723 17.723 0 0 1 9.452 3.486l-.921-1.706-8.285-4.112c-.38-.233 0 .687 0 .6a2.577 2.577 0 0 0 .884 1.166c5.241 3.007 2.847 1.866 8.518 4.112.319.123-.65-1.546-.921-1.706A20.5 20.5 0 0 0 21.451 22.6c-.351.008.97 1.727 1.497 1.739z" class="cls-1" data-name="Pfad 936" transform="translate(4.784 4.999)"/>
            <path id="Pfad_937" d="M23.976 26.248c4.038 0 5.29.491 9.561 3.523l-2.344-3.351a23.32 23.32 0 0 1-7.5-3.412c-.466-.27.11.9 0 .773a4.357 4.357 0 0 0 1.191 1.681 41.865 41.865 0 0 0 8.653 4.308c.589.258-.5-1.227-.38-1.031a7.781 7.781 0 0 0-1.964-2.32 23.872 23.872 0 0 0-5.94-2.577 24.609 24.609 0 0 0-4.222-.626c-.6 0 .626 1.031.565.982.392.402 1.718 2.05 2.38 2.05z" class="cls-1" data-name="Pfad 937" transform="translate(4.664 5.226)"/>
            <path id="Pfad_938" d="M23 23.3a11.328 11.328 0 0 1 4.05.515 21.258 21.258 0 0 1 5.413 3.117l-.306-1.032a33.384 33.384 0 0 1-8.7-4.468c-.577-.356 0 .994.307 1.154a34.17 34.17 0 0 0 8.7 4.345c.65.27-.1-.9-.307-1.031-2.148-1.424-4.468-3.068-7.082-3.547a23.553 23.553 0 0 0-3.056-.295c-.429-.013.581 1.242.981 1.242z" class="cls-1" data-name="Pfad 938" transform="translate(4.903 4.863)"/>
            <path id="Pfad_939" d="M23.772 28.794a11.341 11.341 0 0 1 9.512 3.793l-3.842-4.75a19.306 19.306 0 0 1-6.9-3.019c-.515-.282.27 1.068.172.9a5.793 5.793 0 0 0 1.448 2.013 56.249 56.249 0 0 0 9.144 4.909c.749.356-1.006-1.694-.761-1.4-.81-.982-1.915-2.762-3.081-3.351a22.093 22.093 0 0 0-5.744-2.234c-1.35-.258-2.639-.565-4-.749-.565-.074 1.129 1.522 1.289 1.669.541.488 1.879 2.231 2.763 2.219z" class="cls-1" data-name="Pfad 939" transform="translate(4.378 5.638)"/>
            <path id="Pfad_940" d="M23.378 26.888c4.075 0 5.364.515 9.635 3.608L30.5 26.924a22.755 22.755 0 0 1-7.475-3.387c-.466-.258.135.921.074.8a4.443 4.443 0 0 0 1.227 1.755 42.6 42.6 0 0 0 8.736 4.408c.614.27-.565-1.227-.417-1.08a8.592 8.592 0 0 0-2.1-2.455 22.731 22.731 0 0 0-5.854-2.455 25.579 25.579 0 0 0-4.21-.6c-.614 0 .614 1.031.552.982.367.351 1.683 1.996 2.345 1.996z" class="cls-1" data-name="Pfad 940" transform="translate(4.538 5.347)"/>
            <path id="Pfad_941" d="M22.7 25.192a14.188 14.188 0 0 1 3.142.184 18.067 18.067 0 0 1 6.26 3.24l-1.227-2.111a27.775 27.775 0 0 1-8-3.878c-.417-.245 0 .749 0 .65a3.081 3.081 0 0 0 .945 1.35 34.243 34.243 0 0 0 8.506 4.112c.479.2-.2-.847-.147-.749a4.161 4.161 0 0 0-1.3-1.485 20.583 20.583 0 0 0-9.979-3.276c-.491 0 .282.736.27.712.221.306 1.117 1.251 1.53 1.251z" class="cls-1" data-name="Pfad 941" transform="translate(4.635 5.14)"/>
            <path id="Pfad_942" d="M24.878 28.819a10.887 10.887 0 0 1 9.39 3.681l-4.087-5.02a18.324 18.324 0 0 1-6.849-2.958c-.528-.295.295 1.1.2.933a6.137 6.137 0 0 0 1.461 2.136 64.239 64.239 0 0 0 9.238 4.909c.761.38-1.08-1.767-.822-1.461-.847-1.019-2.025-2.958-3.265-3.559a23.553 23.553 0 0 0-5.953-2.234c-1.338-.233-2.614-.614-3.952-.847-.552-.1 1.289 1.657 1.485 1.841.614.591 2.176 2.579 3.154 2.579z" class="cls-1" data-name="Pfad 942" transform="translate(4.499 5.551)"/>
        </g>
    </g>
</svg>
