<svg xmlns="http://www.w3.org/2000/svg" viewBox="0 0 25.5 25.486">
    <g id="clock_1_" data-name="clock (1)" transform="translate(0 -.168)">
        <g id="Gruppe_791" data-name="Gruppe 791" transform="translate(0 .168)">
            <path id="Pfad_1039" d="M24.482 7.948a12.493 12.493 0 0 0-6.79-6.762A12.532 12.532 0 0 0 12.729.168 12.4 12.4 0 0 0 7.78 1.186 12.532 12.532 0 0 0 1 7.948a12.738 12.738 0 0 0 0 9.913 12.559 12.559 0 0 0 6.78 6.775 12.4 12.4 0 0 0 4.949 1.017 12.537 12.537 0 0 0 4.963-1.017 12.52 12.52 0 0 0 6.79-6.776 12.577 12.577 0 0 0 0-9.913zM22.447 18.53a11.186 11.186 0 0 1-4.1 4.085 10.981 10.981 0 0 1-5.619 1.506 10.8 10.8 0 0 1-4.35-.892 11.4 11.4 0 0 1-3.568-2.385 11.331 11.331 0 0 1-2.384-3.583 10.977 10.977 0 0 1-.878-4.361A10.961 10.961 0 0 1 3.04 7.3a11.191 11.191 0 0 1 4.085-4.093 10.9 10.9 0 0 1 5.6-1.506 10.981 10.981 0 0 1 5.619 1.506 11.22 11.22 0 0 1 4.1 4.085 10.9 10.9 0 0 1 1.506 5.6 11 11 0 0 1-1.503 5.638z" class="cls-1" data-name="Pfad 1039" transform="translate(0 -.168)"/>
            <path id="Pfad_1040" d="M288.669 118.924V111.7a.8.8 0 0 0-.809-.781.786.786 0 0 0-.767.781v7.334a.638.638 0 0 1 .028.112.729.729 0 0 0 .209.628l4.169 4.169a.793.793 0 0 0 1.073 0 .752.752 0 0 0 0-1.087z" class="cls-1" data-name="Pfad 1040" transform="translate(-275.131 -106.306)"/>
        </g>
    </g>
</svg>
