<svg xmlns="http://www.w3.org/2000/svg" viewBox="0 0 16 19.692">
  <g id="Gruppe_633" data-name="Gruppe 633" transform="translate(-1388.459 -1003.154)">
    <g id="_4" data-name="4">
      <g id="Gruppe_375" data-name="Gruppe 375">
        <path id="Pfad_661" data-name="Pfad 661" d="M1399.536,1020.385a.616.616,0,0,0,.616-.616v-7.384a.615.615,0,1,0-1.231,0v7.384A.616.616,0,0,0,1399.536,1020.385Zm3.693-14.77h-3.693v-1.23a1.23,1.23,0,0,0-1.23-1.231h-3.693a1.23,1.23,0,0,0-1.23,1.231v1.23h-3.693a1.231,1.231,0,0,0-1.231,1.231v1.231a1.231,1.231,0,0,0,1.231,1.231v11.077a2.461,2.461,0,0,0,2.462,2.461h8.615a2.461,2.461,0,0,0,2.462-2.461v-11.077a1.231,1.231,0,0,0,1.23-1.231v-1.231A1.23,1.23,0,0,0,1403.229,1005.615Zm-8.616-.615a.615.615,0,0,1,.616-.615h2.461a.615.615,0,0,1,.616.615v.615h-3.693Zm7.385,15.385a1.231,1.231,0,0,1-1.231,1.23h-8.615a1.231,1.231,0,0,1-1.231-1.23v-11.077H1402Zm.615-12.308h-12.307a.616.616,0,1,1,0-1.231h12.307a.616.616,0,1,1,0,1.231Zm-9.23,12.308a.616.616,0,0,0,.615-.616v-7.384a.616.616,0,1,0-1.231,0v7.384A.616.616,0,0,0,1393.383,1020.385Zm3.076,0a.616.616,0,0,0,.616-.616v-7.384a.615.615,0,1,0-1.231,0v7.384A.616.616,0,0,0,1396.459,1020.385Z" fill="#fff"/>
      </g>
    </g>
  </g>
</svg>
