<svg xmlns="http://www.w3.org/2000/svg" viewBox="0 0 40.358 40.359">
  <path id="Pfad_688" data-name="Pfad 688" d="M27.929,22.94l-4.412-4.413a2.3,2.3,0,0,0-3.244.061L18.05,20.811l-.439-.244A22.121,22.121,0,0,1,12.265,16.7,22.244,22.244,0,0,1,8.39,11.343c-.082-.149-.161-.292-.239-.429l1.492-1.49.733-.734a2.3,2.3,0,0,0,.059-3.244L6.024,1.034a2.3,2.3,0,0,0-3.244.061L1.536,2.346l.034.034A7.191,7.191,0,0,0,.546,4.187,7.493,7.493,0,0,0,.09,6.02C-.493,10.85,1.714,15.264,7.7,21.254c8.28,8.279,14.952,7.654,15.24,7.623a7.455,7.455,0,0,0,1.838-.462,7.166,7.166,0,0,0,1.8-1.02l.027.024,1.26-1.234A2.3,2.3,0,0,0,27.929,22.94Z" transform="translate(40.637 20.436) rotate(135)"/>
</svg>
