<svg xmlns="http://www.w3.org/2000/svg" viewBox="0 0 16.943 11.861">
    <g id="black-envelope_1_" data-name="black-envelope (1)" transform="translate(100 -4.179)">
        <g id="Gruppe_237" data-name="Gruppe 237" transform="translate(0 4.179)">
            <path id="Pfad_613" d="M2.007 4.88l6.1 4.834a1.553 1.553 0 0 0 1.029.3 1.549 1.549 0 0 0 1.028-.3l6.1-4.834c.489-.385.378-.7-.242-.7H2.251c-.621-.001-.732.315-.244.7z" class="cls-1" data-name="Pfad 613" transform="translate(-100.667 -4.179)"/>
            <path id="Pfad_614" d="M16.043 7.306L9.374 12.37a1.619 1.619 0 0 1-1.8 0L.9 7.306c-.5-.375-.9-.174-.9.447v8.308a1.133 1.133 0 0 0 1.129 1.129h14.685a1.133 1.133 0 0 0 1.129-1.129V7.753c0-.621-.405-.822-.9-.447z" class="cls-1" data-name="Pfad 614" transform="translate(-100 -5.33)"/>
        </g>
    </g>
</svg>
