<svg xmlns="http://www.w3.org/2000/svg" viewBox="0 0 554.409 292.547">
  <g id="Gruppe_641" data-name="Gruppe 641" transform="translate(1368.473 -146.826)">
    <path id="Pfad_984" data-name="Pfad 984" d="M-1076.485,229.363l-158.556,79.584,85.574,46.874,0-.006,10.079,5.518-.007.007,61.375,33.619Z" fill="#41baed"/>
    <path id="Pfad_985" data-name="Pfad 985" d="M-1149.463,355.814l0,.006,10.077,5.52.007-.007Z" fill="#41baed"/>
    <path id="Pfad_986" data-name="Pfad 986" d="M-1078.016,394.959l146.259-82.333-144.729-83.263Z" fill="#0091bf"/>
    <path id="Pfad_987" data-name="Pfad 987" d="M-1092.837,386.369-1137.164,150.9l22.024,2.586,45.774,236.284-8.65,5.185Z" fill="#e02b2c"/>
    <path id="Pfad_988" data-name="Pfad 988" d="M-1069.365,389.774l5.954-3.194-46.36-236.65-5.368,3.561Z" fill="#e44647"/>
    <path id="Pfad_989" data-name="Pfad 989" d="M-1137.164,150.9l4.984-4.079,22.408,3.1-5.368,3.561Z" fill="#ec7a7f"/>
    <path id="Pfad_990" data-name="Pfad 990" d="M-1177.459,205.914l54.634-24.368a5.04,5.04,0,0,1,6.726,2.711h0a3.9,3.9,0,0,1-2,5.017l-57.888,26.312Z" fill="#ec7a7f"/>
    <path id="Pfad_991" data-name="Pfad 991" d="M-1167.2,255.214l54.635-24.368a5.041,5.041,0,0,1,6.726,2.712h0a3.9,3.9,0,0,1-2,5.016l-57.887,26.313Z" fill="#ec7a7f"/>
    <path id="Pfad_992" data-name="Pfad 992" d="M-1156.933,304.331l54.635-24.368a5.042,5.042,0,0,1,6.726,2.712h0a3.9,3.9,0,0,1-2,5.016L-1155.461,314Z" fill="#ec7a7f"/>
    <path id="Pfad_993" data-name="Pfad 993" d="M-1088.241,332.708a5.041,5.041,0,0,0-6.726-2.711l-54.635,24.368.228,1.5,8.722,4.775,50.409-22.913A3.9,3.9,0,0,0-1088.241,332.708Z" fill="#ec7a7f"/>
    <line id="Linie_114" data-name="Linie 114" x1="8.722" y1="4.775" transform="translate(-1149.374 355.863)" fill="#ec7a7f"/>
    <path id="Pfad_994" data-name="Pfad 994" d="M-1055.6,218.315l31.91-17.013v33.164Z" fill="#40baed"/>
    <path id="Pfad_995" data-name="Pfad 995" d="M-1023.686,201.3l62.873,32.475v31.97l-62.873-31.28Z" fill="#0091bf"/>
    <path id="Pfad_996" data-name="Pfad 996" d="M-960.813,233.776l36.651-19.262v35.849l-30.766,17.924-5.886-2.542Z" fill="#40baed"/>
    <path id="Pfad_997" data-name="Pfad 997" d="M-924.162,214.514-962.8,193.344V162.668l67.636,36.961,20.8-10.624,28.581,16.61-17.358,10.475,49.081,26.336-28.581,16.311L-892.474,232.4l-31.688,17.964Z" fill="#0091bf"/>
    <path id="Pfad_998" data-name="Pfad 998" d="M-962.8,162.668l-28.35,15.285,28.35,15.391Z" fill="#40baed"/>
    <path id="Pfad_999" data-name="Pfad 999" d="M-1335.693,405.058v-37l-32.78,15.719Z" fill="#40baed"/>
    <path id="Pfad_1000" data-name="Pfad 1000" d="M-1335.693,368.061l53.867,34.7v36.615l-53.867-34.315Z" fill="#0091bf"/>
    <path id="Pfad_1001" data-name="Pfad 1001" d="M-1281.827,402.758l39.145-18.982v36.215l-39.145,19.383Z" fill="#40baed"/>
    <path id="Pfad_1002" data-name="Pfad 1002" d="M-1177.9,384.966l17.512-10.541-27.884-16.492-21.933,10.711-66.649-36.555v31.284l34.174,20.4v36.215l35.194-18.362,56.787,30.434,27.884-16.832Z" fill="#0091bf"/>
    <path id="Pfad_1003" data-name="Pfad 1003" d="M-1276.856,363.373-1305.117,346l28.261-13.907Z" fill="#40baed"/>
    <g id="Gruppe_640" data-name="Gruppe 640">
      <path id="Pfad_1004" data-name="Pfad 1004" d="M-1144.336,358.537l-37.888-173.25-6.489,4.326,35.628,164.144Z" fill="#e44647"/>
      <path id="Pfad_1005" data-name="Pfad 1005" d="M-1153.085,353.758l-26.4-14.321-31.438-153.354,22.2,3.531Z" fill="#e02b2c"/>
      <path id="Pfad_1006" data-name="Pfad 1006" d="M-1182.224,185.287l-22.209-3.881-6.485,4.676,22.2,3.531Z" fill="#ec7a7f"/>
    </g>
  </g>
</svg>
