<svg xmlns="http://www.w3.org/2000/svg" viewBox="0 0 71.498 60.163">
  <g id="photography-frame" transform="translate(0 -36.833)">
    <g id="Gruppe_788" data-name="Gruppe 788" transform="translate(0 36.833)">
      <path id="Pfad_1037" data-name="Pfad 1037" d="M71.5,39.449a2.623,2.623,0,0,0-2.616-2.616H2.616A2.623,2.623,0,0,0,0,39.449V94.38A2.623,2.623,0,0,0,2.616,97H68.882A2.623,2.623,0,0,0,71.5,94.38Zm-5.232,2.616V75.546L50.92,64.778a2.568,2.568,0,0,0-3.27.262l-7.978,7.673-16.567-16a2.6,2.6,0,0,0-3.88.262L5.275,74.892V42.065ZM5.232,91.764v-8.37l16.3-20.883,16.3,15.738a2.635,2.635,0,0,0,3.619,0l8.2-7.935,16.61,11.64v9.809Z" transform="translate(0 -36.833)"/>
      <path id="Pfad_1038" data-name="Pfad 1038" d="M246.173,144.414a5.057,5.057,0,1,0-5.057-5.057A5.061,5.061,0,0,0,246.173,144.414Z" transform="translate(-204.016 -119.303)" fill="#d2dae2"/>
    </g>
  </g>
</svg>
