<svg xmlns="http://www.w3.org/2000/svg" viewBox="0 0 27 27">
  <g id="Gruppe_1677" data-name="Gruppe 1677" transform="translate(1480 -16706)">
    <path id="Pfad_2254" data-name="Pfad 2254" d="M264.233,1.031A1.024,1.024,0,0,0,263.2,0h-9.266a1.019,1.019,0,0,0-1.023,1.048.991.991,0,0,0,1.023,1.015h8.235l-.017,8.274a1.031,1.031,0,1,0,2.062,0l.017-9.289s0-.005,0-.007S264.233,1.034,264.233,1.031Z" transform="translate(-1717.233 16706)"/>
    <path id="Pfad_2255" data-name="Pfad 2255" d="M10.329,0H1.048A1.024,1.024,0,0,0,.016,1.031L0,10.321a1.018,1.018,0,0,0,1.048,1.023.991.991,0,0,0,1.015-1.023l.016-8.258h8.25A1.011,1.011,0,0,0,11.36,1.031,1.012,1.012,0,0,0,10.329,0Z" transform="translate(-1480 16706)"/>
    <path id="Pfad_2256" data-name="Pfad 2256" d="M10.3,261.918H2.063v-8.25a1.011,1.011,0,0,0-1.031-1.031A1.011,1.011,0,0,0,0,253.668v9.266s0,.005,0,.007,0,.005,0,.008a1.024,1.024,0,0,0,1.031,1.031H10.3a1.019,1.019,0,0,0,1.023-1.048A.991.991,0,0,0,10.3,261.918Z" transform="translate(-1480 16469.02)"/>
    <path id="Pfad_2257" data-name="Pfad 2257" d="M262.933,252.913a.99.99,0,0,0-1.015,1.023v8.235h-8.25a1.031,1.031,0,1,0,0,2.062h9.273s.005,0,.008,0a1.024,1.024,0,0,0,1.031-1.031v-9.266A1.018,1.018,0,0,0,262.933,252.913Z" transform="translate(-1716.981 16468.768)"/>
  </g>
</svg>
