<svg xmlns="http://www.w3.org/2000/svg" viewBox="0 0 61.706 66.527">
  <g id="Gruppe_1109" data-name="Gruppe 1109" transform="translate(-5961.188 -4282.851)">
    <g id="Gruppe_1108" data-name="Gruppe 1108">
      <line id="Linie_56" data-name="Linie 56" y1="58.534" transform="matrix(0.996, -0.087, 0.087, 0.996, 5962.184, 4290.979)" stroke="#0fbcf9" stroke-miterlimit="10" stroke-width="2"/>
      <path id="Pfad_646" data-name="Pfad 646" d="M1293.224,808.592c-5.09-4.072-24.941-1.527-32.575,1.527s-19.023-.682-19.023-.682V773.808s11.388,3.735,19.023.681,27.485-5.6,32.575-1.527Z" transform="matrix(0.996, -0.087, 0.087, 0.996, 4662.795, 3628.746)" fill="none" stroke="#485460" stroke-miterlimit="10" stroke-width="2"/>
      <path id="Pfad_647" data-name="Pfad 647" d="M1293.224,783.963c-5.09-4.072-24.941-1.527-32.575,1.527s-19.023-.682-19.023-.682" transform="matrix(0.996, -0.087, 0.087, 0.996, 4662.325, 3623.365)" fill="none" stroke="#485460" stroke-miterlimit="10" stroke-width="2"/>
      <path id="Pfad_648" data-name="Pfad 648" d="M1293.224,793.963c-5.09-4.072-24.941-1.527-32.575,1.527s-19.023-.682-19.023-.682" transform="matrix(0.996, -0.087, 0.087, 0.996, 4661.897, 3618.474)" fill="none" stroke="#485460" stroke-miterlimit="10" stroke-width="2"/>
      <path id="Pfad_649" data-name="Pfad 649" d="M1241.626,804.808s11.388,3.736,19.023.682,27.485-5.6,32.575-1.527" transform="matrix(0.996, -0.087, 0.087, 0.996, 4661.469, 3613.583)" fill="none" stroke="#485460" stroke-miterlimit="10" stroke-width="2"/>
      <path id="Pfad_650" data-name="Pfad 650" d="M1293.224,813.963c-5.09-4.072-24.941-1.527-32.575,1.527s-19.023-.682-19.023-.682" transform="matrix(0.996, -0.087, 0.087, 0.996, 4661.041, 3608.691)" fill="none" stroke="#485460" stroke-miterlimit="10" stroke-width="2"/>
      <path id="Pfad_651" data-name="Pfad 651" d="M1293.224,823.963c-5.09-4.072-24.941-1.527-32.575,1.527s-19.023-.682-19.023-.682" transform="matrix(0.996, -0.087, 0.087, 0.996, 4660.613, 3603.8)" fill="none" stroke="#485460" stroke-miterlimit="10" stroke-width="2"/>
      <path id="Pfad_652" data-name="Pfad 652" d="M1293.224,833.963c-5.09-4.072-24.941-1.527-32.575,1.527s-19.023-.682-19.023-.682" transform="matrix(0.996, -0.087, 0.087, 0.996, 4660.185, 3598.908)" fill="none" stroke="#485460" stroke-miterlimit="10" stroke-width="2"/>
      <path id="Pfad_653" data-name="Pfad 653" d="M1264.984,775.792v15.684l-4.99,1.409-3.036.8-3.954.029-3.269,0-5.7-1.14-2.228-.9-.2-14.369.644-.942,2.1,1.06,4.888.626,4.783.392,4.289-.739Z" transform="matrix(0.996, -0.087, 0.087, 0.996, 4662.595, 3626.328)" fill="#485460"/>
      <g id="Gruppe_363" data-name="Gruppe 363" transform="matrix(0.996, -0.087, 0.087, 0.996, 5971.243, 4294.26)">
        <path id="Pfad_654" data-name="Pfad 654" d="M1250.907,782.971l.537,1.221,1.2.2-.869.951.205,1.342-1.074-.634-1.075.634.205-1.342-.869-.951,1.2-.2Z" transform="translate(-1249.168 -782.971)" fill="#fff"/>
        <path id="Pfad_655" data-name="Pfad 655" d="M1268.907,782.971l.537,1.221,1.2.2-.87.951.205,1.342-1.075-.634-1.074.634.2-1.342-.869-.951,1.2-.2Z" transform="translate(-1258.006 -782.971)" fill="#fff"/>
        <path id="Pfad_656" data-name="Pfad 656" d="M1260.907,791.971l.537,1.221,1.2.2-.869.951.205,1.342-1.074-.634-1.075.634.205-1.342-.869-.951,1.2-.2Z" transform="translate(-1254.078 -787.39)" fill="#fff"/>
        <path id="Pfad_657" data-name="Pfad 657" d="M1250.907,798.971l.537,1.221,1.2.2-.869.951.205,1.342-1.074-.634-1.075.634.205-1.342-.869-.951,1.2-.2Z" transform="translate(-1249.168 -790.827)" fill="#fff"/>
        <path id="Pfad_658" data-name="Pfad 658" d="M1267.833,799.242l.537,1.221,1.2.2-.869.951.2,1.342-1.074-.634-1.074.634.205-1.342-.869-.951,1.2-.2Z" transform="translate(-1257.479 -790.96)" fill="#fff"/>
        <path id="Pfad_659" data-name="Pfad 659" d="M1276.833,790.242l.537,1.221,1.2.2-.869.951.205,1.342-1.075-.634-1.074.634.205-1.342-.869-.951,1.2-.2Z" transform="translate(-1261.898 -786.541)" fill="#fff"/>
      </g>
    </g>
  </g>
</svg>
