<svg xmlns="http://www.w3.org/2000/svg" viewBox="0 0 61.573 66.381">
  <g id="Gruppe_1107" data-name="Gruppe 1107" transform="translate(-6243.195 -4278.566)">
    <g id="Gruppe_1106" data-name="Gruppe 1106">
      <path id="Pfad_670" data-name="Pfad 670" d="M1408,784.528l.33-9.687.6-1.021,4.034,1.141,7.224.661,3.913-.18,5.057-1.8,6.382-1.622,5.539-.721,7.391-.616,6.5.405,4.018,1.126.948,1.306-.09,10.359-.587.36-4.379-1.441-10.337-.135-7.538.9-7.042,1.486-5.959,1.982-6.139.135-5.011-.766-4.017-.9Z" transform="matrix(0.996, -0.087, 0.087, 0.996, 4778.734, 3639.063)" fill="#484848"/>
      <path id="Pfad_671" data-name="Pfad 671" d="M1407.761,807.943l.33-9.687.6-1.021,4.034,1.141,7.224.661,3.913-.18,5.057-1.8,6.382-1.622,5.539-.721,7.391-.616,6.5.405,4.018,1.126.948,1.306-.09,10.359-.587.36-4.379-1.441-10.337-.135-7.538.9-7.042,1.486-5.959,1.982-6.139.135-5.011-.766-4.017-.9Z" transform="matrix(0.996, -0.087, 0.087, 0.996, 4777.848, 3627.582)" fill="#d2dae2"/>
      <line id="Linie_92" data-name="Linie 92" y1="58.407" transform="matrix(0.996, -0.087, 0.087, 0.996, 6244.191, 4286.675)" stroke="#717AFA" stroke-miterlimit="10" stroke-width="2"/>
      <path id="Pfad_672" data-name="Pfad 672" d="M1460.125,808.434c-5.08-4.055-24.892-1.521-32.513,1.521s-18.986-.679-18.986-.679V773.8s11.366,3.72,18.986.679,27.432-5.575,32.513-1.521Z" transform="matrix(0.996, -0.087, 0.087, 0.996, 4778.419, 3639.007)" fill="none" stroke="#484848" stroke-miterlimit="10" stroke-width="2"/>
      <path id="Pfad_673" data-name="Pfad 673" d="M1460.125,795.954c-5.08-4.055-24.892-1.521-32.513,1.521s-18.986-.679-18.986-.679" transform="matrix(0.996, -0.087, 0.087, 0.996, 4777.433, 3627.732)" fill="none" stroke="#484848" stroke-miterlimit="10" stroke-width="2"/>
      <path id="Pfad_674" data-name="Pfad 674" d="M1460.125,819.954c-5.08-4.055-24.892-1.521-32.513,1.521s-18.986-.679-18.986-.679" transform="matrix(0.996, -0.087, 0.087, 0.996, 4776.403, 3615.968)" fill="none" stroke="#484848" stroke-miterlimit="10" stroke-width="2"/>
    </g>
  </g>
</svg>
