<svg xmlns="http://www.w3.org/2000/svg" id="export-button" viewBox="0 0 22.552 18.04">
    <path id="XMLID_32_" d="M131.8 79.556h9.693a8.251 8.251 0 0 0-2.507 2.28H131.8a.6.6 0 0 0-.6.6v10.903a.6.6 0 0 0 .6.6h10.906a.6.6 0 0 0 .6-.6v-7.266a5.333 5.333 0 0 1 .861-.353 2.2 2.2 0 0 0 1.074 1.269 2.174 2.174 0 0 0 .345.13v6.22a2.881 2.881 0 0 1-2.877 2.877H131.8a2.881 2.881 0 0 1-2.877-2.877V82.433a2.881 2.881 0 0 1 2.877-2.877z" class="cls-1" transform="translate(-128.925 -78.177)"/>
    <path id="XMLID_31_" d="M6.651 55.156A6.8 6.8 0 0 0 1.064 58.3.578.578 0 0 1 0 58v-.07a6.811 6.811 0 0 1 6.65-6.807v-1.077a.675.675 0 0 1 1.056-.558l4.578 3.133a.6.6 0 0 1 0 .995L7.71 56.79a.674.674 0 0 1-1.059-.555z" class="cls-1" transform="translate(10.005 -49.37)"/>
</svg>
