<svg xmlns="http://www.w3.org/2000/svg" viewBox="0 0 80 51.056">
  <g id="Gruppe_1111" data-name="Gruppe 1111" transform="translate(-5975 -4415.001)">
    <g id="Gruppe_1110" data-name="Gruppe 1110">
      <path id="Pfad_626" data-name="Pfad 626" d="M1724.591-672.12s4.023-.894,5.363,2.681c0,0,4.469-.894,4.917,3.129" transform="translate(4316.107 5126.897)" fill="none" stroke="#717AFA" stroke-miterlimit="10" stroke-width="2"/>
      <rect id="Rechteck_221" data-name="Rechteck 221" width="4.469" height="5.105" transform="translate(6020.587 4459.694)" fill="#d2dae2"/>
      <rect id="Rechteck_222" data-name="Rechteck 222" width="4.469" height="2.682" transform="translate(6018.799 4462.375)" fill="#d2dae2"/>
      <rect id="Rechteck_223" data-name="Rechteck 223" width="12.514" height="4.916" transform="translate(6029.525 4417.683)" fill="#d2dae2"/>
      <rect id="Rechteck_224" data-name="Rechteck 224" width="10.726" height="41.564" transform="translate(6029.525 4423.046)" fill="#d2dae2"/>
      <path id="Pfad_621" data-name="Pfad 621" d="M1527.678-739.291h39.194l10.726-.088" transform="translate(4462.206 5176.726)" fill="none" stroke="#485460" stroke-miterlimit="10" stroke-width="2"/>
      <rect id="Rechteck_225" data-name="Rechteck 225" width="15.642" height="8.045" transform="translate(5994.218 4440.923)" fill="none" stroke="#485460" stroke-miterlimit="10" stroke-width="2"/>
      <rect id="Rechteck_226" data-name="Rechteck 226" width="15.642" height="8.045" transform="translate(5994.218 4426.174)" fill="none" stroke="#485460" stroke-miterlimit="10" stroke-width="2"/>
      <rect id="Rechteck_227" data-name="Rechteck 227" width="42.011" height="5.363" transform="translate(5987.514 4417.683)" fill="none" stroke="#485460" stroke-miterlimit="10" stroke-width="2"/>
      <rect id="Rechteck_228" data-name="Rechteck 228" width="10.726" height="8.045" transform="translate(6014.33 4426.174)" fill="none" stroke="#485460" stroke-miterlimit="10" stroke-width="2"/>
      <line id="Linie_27" data-name="Linie 27" x2="25.475" transform="translate(6029.525 4465.057)" fill="none" stroke="#485460" stroke-miterlimit="10" stroke-width="2"/>
      <path id="Pfad_622" data-name="Pfad 622" d="M1577.626-752.834V-794.8h-10.7v42.011h-39.777V-794.6" transform="translate(4462.596 5217.846)" fill="none" stroke="#485460" stroke-miterlimit="10" stroke-width="2"/>
      <path id="Pfad_623" data-name="Pfad 623" d="M1681.294-815.583h12.961v5.363h-2.235" transform="translate(4348.231 5233.266)" fill="none" stroke="#485460" stroke-miterlimit="10" stroke-width="2"/>
      <line id="Linie_28" data-name="Linie 28" y1="2.638" transform="translate(6024.781 4415.001)" fill="none" stroke="#485460" stroke-miterlimit="10" stroke-width="2"/>
      <line id="Linie_29" data-name="Linie 29" x2="11.173" transform="translate(6014.106 4440.923)" fill="none" stroke="#485460" stroke-miterlimit="10" stroke-width="2"/>
      <rect id="Rechteck_229" data-name="Rechteck 229" width="11.173" height="15.196" transform="translate(6014.106 4444.498)" fill="none" stroke="#485460" stroke-miterlimit="10" stroke-width="2"/>
      <line id="Linie_30" data-name="Linie 30" y2="2.682" transform="translate(6022.374 4451.649)" fill="none" stroke="#485460" stroke-miterlimit="10" stroke-width="2"/>
      <path id="Pfad_624" data-name="Pfad 624" d="M1615.537-652.783h-1.788v2.682h8.492v-2.584" transform="translate(4398.346 5112.477)" fill="none" stroke="#485460" stroke-miterlimit="10" stroke-width="2"/>
      <line id="Linie_31" data-name="Linie 31" y2="2.576" transform="translate(6018.669 4462.368)" fill="none" stroke="#485460" stroke-miterlimit="10" stroke-width="2"/>
      <path id="Pfad_625" data-name="Pfad 625" d="M1607.324-642.391h-2.235v2.235" transform="translate(4404.771 5104.767)" fill="none" stroke="#485460" stroke-miterlimit="10" stroke-width="2"/>
      <line id="Linie_32" data-name="Linie 32" y2="5.319" transform="translate(6025.279 4459.694)" fill="none" stroke="#485460" stroke-miterlimit="10" stroke-width="2"/>
      <path id="Pfad_627" data-name="Pfad 627" d="M1470-666.856h20.112s4.022-.894,3.575-6.257-6.257-5.81-6.257-5.81-5.363-.894-6.7,4.469c0,0-5.81-1.788-6.7,4.023" transform="translate(4505 5131.913)" fill="none" stroke="#717AFA" stroke-miterlimit="10" stroke-width="2"/>
    </g>
  </g>
</svg>
