<svg xmlns="http://www.w3.org/2000/svg" viewBox="0 0 19.964 26.339">
  <g id="Gruppe_1493" data-name="Gruppe 1493" transform="translate(-231 -997)">
    <g id="Gruppe_748" data-name="Gruppe 748" transform="translate(12584 -2000)">
      <g id="computer-mouse-cursor" transform="translate(-12353 2997)">
        <g id="Gruppe_748-2" data-name="Gruppe 748" transform="translate(0 0)">
          <path id="Pfad_1019" data-name="Pfad 1019" d="M76.076,12.772a.963.963,0,0,0-.435-.95L57.6.155a.938.938,0,0,0-.982-.032.987.987,0,0,0-.5.853V21.607a.992.992,0,0,0,.531.869.965.965,0,0,0,1.014-.1l5.118-3.83,4.683,7.339a.964.964,0,0,0,.821.451,1.031,1.031,0,0,0,.483-.129l4.78-2.768A.972.972,0,0,0,74,22.831a.918.918,0,0,0-.129-.74L69.51,15.218l5.89-1.658A.974.974,0,0,0,76.076,12.772Zm-8.352.933a1,1,0,0,0-.644.579.974.974,0,0,0,.08.869l4.506,7.113-3.106,1.8-4.715-7.435A.96.96,0,0,0,63.2,16.2a.661.661,0,0,0-.177-.016.964.964,0,0,0-.579.193l-4.41,3.3V2.746l14.774,9.543Z" transform="translate(-56.12 0)" fill="#fff"/>
        </g>
      </g>
      <path id="Pfad_1020" data-name="Pfad 1020" d="M-12351.912,3016.521V2998.4l15.881,10.68-5.977,1.4-.808,1.268,4.815,6.38.243,1.18-3,1.519-5.187-7.685-2.524.741Z" transform="translate(0.156 0.201)" fill="#fff" stroke="#fff" stroke-width="1"/>
    </g>
  </g>
</svg>
