<svg xmlns="http://www.w3.org/2000/svg" viewBox="0 0 16.148 36.148">
  <g id="Gruppe_1491" data-name="Gruppe 1491" transform="translate(-266 -1452.066)">
    <path id="checked_3_" data-name="checked (3)" d="M8.074,0a8.074,8.074,0,1,0,8.074,8.074A8.051,8.051,0,0,0,8.074,0Zm4.661,5.542h0L6.863,11.634a.333.333,0,0,1-.257.11.286.286,0,0,1-.257-.11L3.487,8.551l-.073-.073a.355.355,0,0,1,0-.514l.514-.514a.355.355,0,0,1,.514,0l.037.037L6.5,9.652a.177.177,0,0,0,.257,0l4.918-5.1h.037a.355.355,0,0,1,.514,0l.514.514A.313.313,0,0,1,12.735,5.542Z" transform="translate(266 1452.066)" fill="#fff"/>
    <path id="checked_3_2" data-name="checked (3)" d="M8.074,0a8.074,8.074,0,1,0,8.074,8.074A8.051,8.051,0,0,0,8.074,0Zm4.661,5.542h0L6.863,11.634a.333.333,0,0,1-.257.11.286.286,0,0,1-.257-.11L3.487,8.551l-.073-.073a.355.355,0,0,1,0-.514l.514-.514a.355.355,0,0,1,.514,0l.037.037L6.5,9.652a.177.177,0,0,0,.257,0l4.918-5.1h.037a.355.355,0,0,1,.514,0l.514.514A.313.313,0,0,1,12.735,5.542Z" transform="translate(266 1472.066)" fill="#fff"/>
  </g>
</svg>
