<svg xmlns="http://www.w3.org/2000/svg" viewBox="0 0 25.209 28.363">
  <g id="Gruppe_1493" data-name="Gruppe 1493" transform="translate(-809 -1318.297)">
    <g id="dislike-thumb" transform="translate(847.643 1346.66) rotate(180)">
      <path id="Pfad_1028" data-name="Pfad 1028" d="M36.542,2.1h-2.1c-1.057,0-1.886-.606-3.151-1.05C29.557.454,26.969,0,22.51,0l-3.2,0a2.548,2.548,0,0,0-1.765.747,1.348,1.348,0,0,0-.407.821c-.012.068-.025.354-.023.393a1.7,1.7,0,0,0,1.136,1.859c-.012,0,0,.015-.028.014l-1.369-.061A2.266,2.266,0,0,0,14.443,6.08a2.208,2.208,0,0,0,2.212,2.164l-.726-.034a2.24,2.24,0,0,0-.2,4.475,2.275,2.275,0,0,0-.282,4.536l8.067,1.013a14.709,14.709,0,0,0-1.681,6.978,2.841,2.841,0,0,0,3.151,3.151c.918,0,1.165-1.778,1.165-1.778h0a12.731,12.731,0,0,1,1.419-3.97c1.053-2.055,2.486-1.862,4.16-3.693a9.514,9.514,0,0,0,1.079-1.509.519.519,0,0,0,.09-.151c.034-.081.076-.138.112-.213.064-.118.127-.235.189-.359a4.521,4.521,0,0,1,3.337-.93,1.908,1.908,0,0,0,2.1-2.1v-9.6C38.643,2.6,38.047,2.1,36.542,2.1Z" fill="#fff" fill-rule="evenodd"/>
    </g>
  </g>
</svg>
