<svg xmlns="http://www.w3.org/2000/svg" viewBox="0 0 31.64 32">
  <path id="Pfad_588" data-name="Pfad 588" d="M41.5,46.075H19.208a.944.944,0,0,1-.961-.961V32.273H16.742a.993.993,0,0,1-.7-.288l-1.249-1.249a.929.929,0,0,1,0-1.345L29.647,14.339a1.029,1.029,0,0,1,1.377,0l5.764,5.86V17.51a.944.944,0,0,1,.961-.961h3.715a.944.944,0,0,1,.961.961V25.9l3.427,3.491a.929.929,0,0,1,0,1.345L44.6,31.984a.922.922,0,0,1-.673.288H42.425V45.114A.917.917,0,0,1,41.5,46.075ZM20.168,44.154H40.5V31.312a.872.872,0,0,1,.288-.673.977.977,0,0,1,.672-.288h2.082l.288-.288-3.042-3.074a.922.922,0,0,1-.288-.673V18.47H38.71v4.067a.965.965,0,0,1-.608.9.945.945,0,0,1-1.057-.224l-6.693-6.821L16.87,30.063l.288.288H19.24a.872.872,0,0,1,.673.288.922.922,0,0,1,.288.673l-.032,12.842Z" transform="translate(-14.5 -14.075)" />
</svg>
