<svg xmlns="http://www.w3.org/2000/svg" viewBox="0 0 46 100">
  <g id="info-sign" transform="translate(-27)">
    <g id="Gruppe_1493" data-name="Gruppe 1493">
      <path id="Pfad_2213" data-name="Pfad 2213" d="M62.162,0c6.7,0,10.043,4.567,10.043,9.789,0,6.522-5.814,12.555-13.391,12.555-6.344,0-10.045-3.752-9.869-9.947A12.861,12.861,0,0,1,62.162,0ZM41.543,100c-5.287,0-9.164-3.262-5.463-17.615l6.07-25.457c1.057-4.077,1.23-5.707,0-5.707-1.588,0-8.451,2.816-12.51,5.59L27,52.406C39.863,41.48,54.662,35.072,61,35.072c5.285,0,6.168,6.361,3.525,16.148L57.58,77.98c-1.234,4.729-.7,6.359.527,6.359,1.586,0,6.787-1.963,11.9-6.041l3,4.079C60.488,95.1,46.83,100,41.543,100Z" fill="#fff"/>
    </g>
  </g>
</svg>
