<svg xmlns="http://www.w3.org/2000/svg" viewBox="0 0 32.618 32.555">
  <path id="Pfad_1078" data-name="Pfad 1078" d="M12.258,24.484A12.226,12.226,0,1,1,20.935,20.9,12.261,12.261,0,0,1,12.258,24.484Zm0-22.548a10.179,10.179,0,0,0-7.29,3.032,10.338,10.338,0,0,0,0,14.613A10.344,10.344,0,0,0,19.581,4.935,10.408,10.408,0,0,0,12.258,1.935ZM31.194,27.065l-4.1-4.1a2.9,2.9,0,0,0-2.065-.839,2.774,2.774,0,0,0-1.258.29l-.806-.806a.958.958,0,1,0-1.355,1.355l.806.806a2.912,2.912,0,0,0,.548,3.29l4.129,4.1A2.876,2.876,0,0,0,29.161,32a3.016,3.016,0,0,0,2.065-.839,2.881,2.881,0,0,0-.032-4.1Zm-1.355,2.742a.935.935,0,0,1-1.355,0l-4.129-4.1a.968.968,0,0,1,.677-1.645.879.879,0,0,1,.677.29l4.1,4.1a.928.928,0,0,1,.29.677A.9.9,0,0,1,29.839,29.806Z" transform="matrix(1, 0.017, -0.017, 1, 0.559, 0)" />
</svg>
