<svg xmlns="http://www.w3.org/2000/svg" viewBox="0 0 17.68 26.811">
  <g id="Gruppe_1495" data-name="Gruppe 1495" transform="translate(-231 -1158)">
    <g id="question-mark" transform="translate(225.66 1158)">
      <path id="Pfad_1022" data-name="Pfad 1022" d="M13.817,0c4.637,0,9.2,2.136,9.2,7.244,0,4.711-5.4,6.523-6.558,8.225-.87,1.266-.58,3.045-2.971,3.045a2.306,2.306,0,0,1-2.319-2.426c0-4.314,6.339-5.291,6.339-8.843,0-1.955-1.3-3.115-3.476-3.115C9.4,4.13,11.209,8.911,7.7,8.911A2.168,2.168,0,0,1,5.34,6.7C5.339,3.149,9.4,0,13.817,0Zm-.18,20.866a2.972,2.972,0,1,1-2.972,2.972A2.985,2.985,0,0,1,13.637,20.866Z" transform="translate(0 0)" fill="#fff"/>
    </g>
  </g>
</svg>
