<svg xmlns="http://www.w3.org/2000/svg" viewBox="0 0 34.838 21.113">
  <g id="view-eye-interface-symbol" transform="translate(0 -113.657)">
    <path id="Pfad_1031" data-name="Pfad 1031" d="M17.419,115.768a18.613,18.613,0,0,1,10.6,3.732,15.917,15.917,0,0,1,4.642,4.713,15.923,15.923,0,0,1-4.642,4.713,18.613,18.613,0,0,1-10.6,3.732,18.613,18.613,0,0,1-10.6-3.732,15.923,15.923,0,0,1-4.642-4.713A15.924,15.924,0,0,1,6.82,119.5a18.616,18.616,0,0,1,10.6-3.732m0-2.111C7.8,113.657,0,122.1,0,124.214s7.8,10.557,17.419,10.557,17.419-8.445,17.419-10.557-7.8-10.557-17.419-10.557Zm0,4.223a6.334,6.334,0,1,0,6.334,6.334A6.334,6.334,0,0,0,17.419,117.88Zm-1.705,6.334a2.68,2.68,0,1,1,2.68-2.68A2.68,2.68,0,0,1,15.713,124.214Z" transform="translate(0 0)" fill="#fff"/>
  </g>
</svg>
