<svg xmlns="http://www.w3.org/2000/svg" viewBox="0 0 72.445 126.073">
  <g id="Gruppe_637" data-name="Gruppe 637" transform="translate(-694.621 -1090.139)">
    <path id="Pfad_45" data-name="Pfad 45" d="M173.282,567.7v20.765c0,.3-.007.6-.013.9-.007.246-.014.485-.028.731q-.01.328-.041.656c-.007.157-.021.314-.035.471-.007.1-.013.184-.027.28-.013.171-.027.349-.054.519-.027.327-.068.649-.116.976-.007.082-.021.164-.034.246-.021.164-.048.328-.075.491v.021c-.041.239-.082.472-.123.711-.062.327-.123.656-.191.976-.007.013-.007.027-.014.041a1,1,0,0,1-.027.143c-.007.014-.007.027-.014.041-.034.177-.075.348-.116.519a1.314,1.314,0,0,1-.055.226c-.02.123-.054.246-.082.369-.021.068-.034.143-.061.212s-.035.123-.048.177c-.143.56-.308,1.106-.478,1.652-.082.26-.164.512-.253.772-.007.027-.02.054-.027.082q-.123.349-.246.7c-.027.068-.054.137-.082.212-.082.219-.164.437-.253.656-.1.266-.211.525-.321.785-.1.232-.2.464-.3.7-.014.041-.035.075-.048.116-.116.246-.225.491-.341.731s-.239.5-.369.758c-.246.5-.513,1-.779,1.482l-.369.656a40.186,40.186,0,0,1-3.489,5.08q-.257.339-.533.656c-.253.307-.513.608-.772.9-.232.26-.464.519-.7.772-.656.7-1.325,1.373-2.008,2-.137.136-.28.259-.423.389-.232.211-.464.416-.7.614-.185.164-.376.321-.567.478-.491.4-.983.792-1.482,1.154-.2.157-.416.307-.628.451-.341.246-.689.478-1.037.7-.191.13-.389.252-.588.369-.7.43-1.4.826-2.1,1.168-.171.089-.341.171-.512.253s-.348.163-.533.246q-.338.153-.676.286a2.191,2.191,0,0,1-.266.1c-.266.109-.539.211-.806.3-.335.123-.676.225-1.011.321-.232.068-.471.13-.7.185a.1.1,0,0,1-.048.013c-.232.055-.464.11-.7.151a1.8,1.8,0,0,1-.185.034c-.191.034-.383.068-.574.089-.273.04-.546.075-.819.088a1.9,1.9,0,0,1-.28.021c-.219.014-.437.021-.649.021h-.02q-.318,0-.636-.021a1.471,1.471,0,0,1-.246-.021c-.191-.007-.389-.027-.594-.054a.854.854,0,0,1-.13-.013c-.253-.035-.505-.076-.765-.124-.219-.034-.437-.082-.662-.136a19.643,19.643,0,0,1-3.585-1.209,26.233,26.233,0,0,1-3.134-1.652c-.526-.321-1.052-.662-1.571-1.024-.26-.185-.519-.369-.778-.56-.812-.594-1.619-1.243-2.41-1.939-.219-.2-.437-.4-.656-.6s-.437-.4-.649-.6q-.8-.768-1.557-1.6-.3-.317-.594-.656c-.546-.614-1.079-1.249-1.584-1.911-.2-.239-.383-.485-.567-.731q-1.035-1.373-1.96-2.861c-.164-.266-.328-.54-.485-.806-.191-.321-.375-.648-.56-.976a37.361,37.361,0,0,1-1.858-3.823c-.082-.191-.163-.383-.232-.574-.11-.246-.205-.5-.294-.745q-.205-.543-.389-1.085c-.123-.362-.239-.731-.355-1.1s-.212-.71-.308-1.072c-.109-.383-.211-.772-.3-1.168-.007-.041-.021-.082-.027-.123q-.194-.82-.348-1.659c-.137-.738-.246-1.489-.328-2.247-.034-.239-.054-.478-.075-.717s-.048-.5-.062-.75c-.034-.458-.054-.923-.068-1.387-.007-.3-.014-.6-.014-.9V567.7a27.8,27.8,0,0,1,27.778-27.8h.027a28.144,28.144,0,0,1,6.159.683,27.811,27.811,0,0,1,21.633,26.87C173.282,567.534,173.282,567.615,173.282,567.7Z" transform="translate(585.365 550.239)" fill="#ecc19c"/>
    <path id="Pfad_46" data-name="Pfad 46" d="M177.444,703.433v.007H105v-.007a36.036,36.036,0,0,1,1.933-11.7q.338-.994.737-1.967v-.007c.26-.648.547-1.284.847-1.911a35.821,35.821,0,0,1,4.411-7.033c.437-.539.881-1.065,1.338-1.571.225-.26.464-.512.7-.764s.478-.492.724-.738a36.045,36.045,0,0,1,3.913-3.373c.689-.512,1.386-.99,2.11-1.454s1.461-.895,2.212-1.3a.043.043,0,0,1,.027-.013c.294-.157.58-.328.867-.505a21.54,21.54,0,0,0,2.451-1.707,22.835,22.835,0,0,0,8.645-17.925l5.279.027,5.428.028a22.816,22.816,0,0,0,8.584,17.876,18.374,18.374,0,0,0,1.516,1.12c.055.041.1.075.157.11.246.163.491.327.751.478.28.171.567.341.853.5a.339.339,0,0,1,.123.061c.6.335,1.195.683,1.775,1.045.28.17.56.348.833.546.567.362,1.12.758,1.659,1.168a.007.007,0,0,0,.007.007h.007c.69.512,1.359,1.059,2.014,1.618s1.284,1.147,1.892,1.755A36.036,36.036,0,0,1,177.444,703.433Z" transform="translate(589.622 512.771)" fill="#ecc19c"/>
    <path id="Pfad_47" data-name="Pfad 47" d="M177.441,712.486H105a36.035,36.035,0,0,1,1.933-11.7q.338-.994.737-1.967v-.007c.26-.649.547-1.284.847-1.912a35.838,35.838,0,0,1,4.411-7.033c.437-.54.881-1.065,1.338-1.571.225-.26.464-.512.7-.765s.478-.492.724-.737a36.027,36.027,0,0,1,3.913-3.373c.689-.512,1.386-.99,2.11-1.455.375-.239.751-.471,1.133-.7.355-.211.717-.416,1.079-.614a.025.025,0,0,1,.027-.007v-.007c.294-.164.58-.328.867-.5a21.1,21.1,0,0,0,2.437-1.721l.014.014a19.463,19.463,0,0,0,13.923,5.879h.055a19.505,19.505,0,0,0,13.957-5.872l.007-.007a18.528,18.528,0,0,0,1.509,1.126c.055.041.1.075.157.11.246.163.5.321.751.478.28.171.567.335.853.492a.657.657,0,0,1,.123.061c.321.178.649.362.963.553.273.164.546.327.812.5s.56.349.833.547c.567.362,1.12.758,1.66,1.168h.013c.69.519,1.366,1.059,2.014,1.625s1.284,1.147,1.892,1.755A36.04,36.04,0,0,1,177.441,712.486Z" transform="translate(589.623 503.716)" fill="#ff5e57"/>
    <path id="Pfad_48" data-name="Pfad 48" d="M173.282,613.02c0,.3-.007.6-.013.9-.007.246-.014.485-.028.731q-.01.328-.041.656c-.007.157-.021.314-.035.471-.007.1-.013.184-.027.28-.013.171-.027.349-.054.519-.035.327-.068.656-.116.976-.007.082-.021.164-.034.246-.021.164-.048.328-.075.491-.035.246-.082.492-.123.731-.055.286-.11.567-.171.846a1.306,1.306,0,0,1-.035.171c-.007.047-.021.095-.027.143-.007.014-.007.027-.014.041a.358.358,0,0,1-.013.089c-.034.143-.062.287-.1.43a1.316,1.316,0,0,1-.055.226,3.679,3.679,0,0,1-.1.4.919.919,0,0,1-.041.185c-.014.061-.035.123-.048.177-.143.56-.308,1.106-.478,1.652-.082.26-.164.512-.253.772-.007.027-.02.055-.027.082q-.123.349-.246.7c-.027.068-.054.137-.082.212-.082.219-.164.437-.253.656-.1.266-.211.525-.321.785-.1.232-.2.464-.3.7-.014.041-.035.075-.048.116-.116.246-.225.492-.341.731s-.239.5-.369.758c-.246.5-.513,1-.779,1.482l-.369.656a40.187,40.187,0,0,1-3.489,5.08q-.257.339-.533.656c-.253.307-.513.608-.772.9-.232.26-.464.519-.7.772-.656.7-1.325,1.373-2.008,2-.137.136-.28.259-.423.389-.232.211-.464.416-.7.614-.185.164-.376.321-.567.478-.491.4-.983.792-1.482,1.154-.2.157-.416.307-.628.451-.341.246-.689.478-1.037.7-.191.13-.389.252-.588.369-.7.43-1.4.826-2.1,1.168-.171.089-.341.171-.512.253s-.348.163-.533.246q-.338.153-.676.286a2.2,2.2,0,0,1-.266.1c-.266.109-.539.211-.806.3-.335.123-.676.225-1.011.321-.232.068-.471.13-.7.185a.1.1,0,0,1-.048.013c-.232.055-.464.11-.7.151a1.83,1.83,0,0,1-.185.034c-.191.034-.383.068-.574.089-.273.041-.546.075-.819.088a1.891,1.891,0,0,1-.28.021c-.219.014-.437.021-.649.021h-.02q-.318,0-.636-.021a1.464,1.464,0,0,1-.246-.021c-.191-.007-.389-.027-.594-.055a.846.846,0,0,1-.13-.013c-.253-.034-.505-.076-.765-.124-.219-.034-.437-.082-.662-.136a19.633,19.633,0,0,1-3.585-1.209,26.234,26.234,0,0,1-3.134-1.652c-.526-.314-1.045-.656-1.571-1.024-.26-.185-.519-.369-.778-.56-.812-.594-1.619-1.243-2.41-1.939-.219-.2-.437-.4-.656-.6s-.437-.4-.649-.6q-.8-.768-1.557-1.6-.3-.317-.594-.656c-.546-.614-1.079-1.249-1.584-1.911-.2-.239-.383-.485-.567-.73q-1.035-1.373-1.96-2.861c-.164-.266-.328-.54-.485-.806-.191-.321-.375-.648-.56-.976a37.363,37.363,0,0,1-1.858-3.824c-.082-.191-.163-.383-.232-.574-.11-.246-.205-.5-.294-.744q-.205-.543-.389-1.085c-.123-.362-.239-.731-.355-1.1s-.212-.71-.308-1.072c-.109-.383-.211-.772-.3-1.168-.007-.041-.021-.082-.027-.123q-.194-.82-.348-1.659c-.137-.738-.246-1.489-.328-2.247-.034-.239-.054-.478-.075-.717s-.048-.5-.062-.75c-.034-.458-.054-.923-.068-1.387-.007-.3-.014-.6-.014-.9l4.439,8.727,7.627,3.325,9.021.812h.007l6.685.608h.04l6.255.567s0-.007.007,0l13.951,1.256Z" transform="translate(585.365 525.682)" fill="#543e36"/>
    <g id="Gruppe_12" data-name="Gruppe 12" transform="translate(703.043 1130.539)">
      <path id="Pfad_49" data-name="Pfad 49" d="M145.511,613.278,145.5,620v.007l-.007,2.356v1.851l-.007,6.145v.007l-.007-.007h-.007l-.02-.014L118.6,616.678c-.007-.041-.021-.082-.027-.123q-.194-.82-.348-1.659c-.137-.738-.246-1.489-.328-2.247-.034-.239-.054-.478-.075-.717s-.048-.5-.062-.75c-.034-.458-.054-.923-.068-1.387-.007-.3-.014-.6-.014-.9v-8.16c0,.116.007.232.007.348a27.215,27.215,0,0,0,.977,6.365,27.568,27.568,0,0,0,1.741,4.691v.007c1.789,3.721,4.186,6.248,6.392,6.658.136.02.28.034.416.048a24.171,24.171,0,0,0,2.67.15c3.482,0,6.576-2.8,8.522-3.933l.041-.021c.1-.062.2-.123.294-.185a.522.522,0,0,1,.082-.048,13.819,13.819,0,0,1,6.638-1.536Z" transform="translate(-117.678 -600.731)" fill="#543e36"/>
      <path id="Pfad_50" data-name="Pfad 50" d="M187.333,600.729l-.007,8.16a33.475,33.475,0,0,1-.546,6c-.143.778-.308,1.55-.5,2.315l-6.3,9.1-20.444,4.049h-.007l-.007.007v-.007l-.02-17.087h.054a13.848,13.848,0,0,1,6.644,1.537.424.424,0,0,1,.075.048c.1.061.2.123.3.184a.13.13,0,0,0,.034.021c1.953,1.134,5.04,3.936,8.522,3.936a24.014,24.014,0,0,0,2.67-.151c.143-.013.28-.027.423-.047,2.2-.41,4.6-2.936,6.385-6.658v-.007a27.621,27.621,0,0,0,1.741-4.691,26.9,26.9,0,0,0,.976-6.453C187.333,600.9,187.333,600.818,187.333,600.729Z" transform="translate(-131.724 -600.729)" fill="#543e36"/>
    </g>
    <ellipse id="Ellipse_6" data-name="Ellipse 6" cx="6.811" cy="2.105" rx="6.811" ry="2.105" transform="translate(724.031 1149.813)" fill="#ecc19c"/>
    <path id="Pfad_51" data-name="Pfad 51" d="M145.482,539.9h-.026a27.8,27.8,0,0,0-27.778,27.8v12.257s1.154-7.314,4.261-10.864c3.373-3.858,2.519-9.724,10.085-9.724,4.882,0,5.156,1.8,13.425,1.8h.04c8.269,0,8.542-1.8,13.425-1.8,7.566,0,6.713,5.866,10.086,9.724,3.107,3.551,4.261,10.864,4.261,10.864V567.7A27.8,27.8,0,0,0,145.482,539.9Z" transform="translate(585.365 550.239)" fill="#543e36"/>
    <path id="Pfad_52" data-name="Pfad 52" d="M141.2,539.9V665.972H105v-.007a36.035,36.035,0,0,1,1.933-11.7q.338-.994.737-1.967v-.007c.26-.648.547-1.284.847-1.911a35.823,35.823,0,0,1,4.411-7.033c.437-.539.881-1.065,1.338-1.571.225-.26.464-.512.7-.764s.478-.492.724-.738a36.039,36.039,0,0,1,3.913-3.373c.689-.512,1.386-.99,2.11-1.455s1.461-.9,2.212-1.311a.024.024,0,0,1,.027-.007v-.007c.294-.164.58-.328.867-.5a21.106,21.106,0,0,0,2.437-1.721l.014.014a22.96,22.96,0,0,0,7.306-10.188,26.234,26.234,0,0,1-3.134-1.652c-.526-.314-1.045-.656-1.571-1.024-.26-.185-.519-.369-.778-.56-.812-.594-1.619-1.243-2.41-1.939-.219-.2-.437-.4-.656-.6s-.437-.4-.649-.6q-.8-.768-1.557-1.6-.3-.317-.594-.656c-.546-.614-1.079-1.249-1.584-1.911-.2-.239-.383-.485-.567-.731q-1.035-1.373-1.96-2.861c-.164-.266-.328-.54-.485-.806-.191-.321-.375-.648-.56-.976a37.36,37.36,0,0,1-1.858-3.823c-.082-.191-.163-.383-.232-.574-.11-.246-.205-.5-.294-.745q-.205-.543-.389-1.085c-.123-.362-.239-.731-.355-1.1s-.212-.71-.308-1.072c-.109-.383-.211-.772-.3-1.168-.007-.041-.021-.082-.027-.123q-.194-.82-.348-1.659c-.137-.738-.246-1.489-.328-2.247-.034-.239-.054-.478-.075-.717s-.048-.5-.062-.75c-.034-.458-.054-.923-.068-1.387-.007-.3-.014-.6-.014-.9V567.7A27.8,27.8,0,0,1,141.2,539.9Z" transform="translate(589.622 550.239)" fill="#ecc19c" opacity="0.5"/>
    <g id="Gruppe_13" data-name="Gruppe 13" transform="translate(712.47 1182.141)">
      <path id="Pfad_53" data-name="Pfad 53" d="M168.6,681.259l-.751.765a24.676,24.676,0,0,1-35.255-.014l-.717-.738c.355-.211.717-.416,1.079-.614a.025.025,0,0,1,.027-.007v-.007c.294-.164.58-.328.867-.5a21.1,21.1,0,0,0,2.437-1.721l.014.014a19.463,19.463,0,0,0,13.923,5.879h.055a19.505,19.505,0,0,0,13.957-5.872l.007-.007a18.527,18.527,0,0,0,1.509,1.126c.055.041.1.075.157.11.246.163.5.321.751.478.28.171.567.335.853.492a.657.657,0,0,1,.123.061C167.955,680.884,168.283,681.068,168.6,681.259Z" transform="translate(-131.873 -678.425)" fill="#ff3f34"/>
    </g>
  </g>
</svg>
