<svg xmlns="http://www.w3.org/2000/svg" viewBox="0 0 72.442 142.465">
  <g id="Gruppe_629" data-name="Gruppe 629" transform="translate(-1153.139 -727.137)">
    <path id="Pfad_592" data-name="Pfad 592" d="M654.244,87.473v20.765c0,.3-.007.6-.014.9-.013.621-.048,1.243-.1,1.857q-.02.318-.061.635c-.089.881-.212,1.748-.369,2.609-.055.287-.11.567-.171.847a1.2,1.2,0,0,1-.034.171c-.054.287-.123.567-.191.847-.027.15-.068.3-.1.45-.034.13-.068.26-.11.389-.143.56-.307,1.106-.477,1.652-.082.26-.164.512-.253.772-.007.027-.021.054-.027.082l-.246.7c-.027.068-.054.137-.082.212-.082.218-.164.437-.253.656-.1.266-.211.526-.321.785-.1.232-.2.464-.3.7-.014.041-.035.075-.048.116-.116.246-.226.491-.341.731s-.239.505-.369.758c-.246.5-.512,1-.778,1.482l-.369.655a40.075,40.075,0,0,1-3.489,5.08q-.256.339-.532.656c-.253.307-.513.608-.772.9-.232.259-.464.519-.7.771-.655.7-1.325,1.373-2.008,2-.137.136-.28.26-.423.389-.232.212-.465.416-.7.614-.185.164-.376.321-.567.478-.492.4-.983.792-1.482,1.154-.2.157-.416.307-.628.451-.341.246-.689.478-1.037.7-.191.13-.39.252-.588.369-.7.43-1.4.826-2.1,1.168-.171.089-.341.171-.512.253s-.348.163-.533.246q-.338.153-.676.287a2.194,2.194,0,0,1-.266.1c-.266.109-.539.212-.806.3-.335.123-.676.225-1.011.321-.232.068-.471.13-.7.185a.1.1,0,0,1-.048.014c-.232.054-.464.109-.7.15a1.788,1.788,0,0,1-.185.034c-.191.035-.383.068-.574.089-.273.04-.546.075-.819.088a1.9,1.9,0,0,1-.28.021c-.218.014-.437.021-.649.021h-.02q-.318,0-.636-.021a1.467,1.467,0,0,1-.246-.021c-.191-.007-.389-.027-.594-.054a.864.864,0,0,1-.13-.013c-.252-.035-.5-.075-.764-.123-.219-.035-.437-.082-.662-.137A19.569,19.569,0,0,1,619.8,141.5a26.137,26.137,0,0,1-3.134-1.652c-.526-.321-1.052-.662-1.571-1.024-.26-.185-.519-.369-.778-.56q-1.219-.892-2.41-1.939c-.219-.2-.437-.4-.655-.6s-.437-.4-.649-.6q-.8-.768-1.557-1.6-.3-.318-.594-.656c-.546-.615-1.078-1.25-1.584-1.912-.2-.239-.383-.485-.567-.731q-1.035-1.373-1.96-2.861c-.164-.266-.328-.539-.485-.806-.191-.321-.376-.649-.56-.977a37.353,37.353,0,0,1-1.858-3.823c-.082-.191-.163-.383-.232-.574-.11-.246-.205-.5-.294-.744q-.205-.543-.389-1.086c-.123-.362-.239-.731-.355-1.1s-.212-.711-.307-1.073c-.109-.382-.211-.771-.3-1.168-.007-.041-.021-.082-.027-.123q-.2-.819-.349-1.659c-.136-.738-.246-1.488-.328-2.247-.034-.239-.054-.478-.075-.717s-.048-.5-.062-.751c-.034-.458-.055-.922-.068-1.386-.007-.3-.014-.6-.014-.9V87.473a27.8,27.8,0,0,1,27.778-27.8h.027a28.108,28.108,0,0,1,6.159.683,27.87,27.87,0,0,1,15.719,9.969A27.668,27.668,0,0,1,654.244,87.473Z" transform="translate(562.917 667.463)" fill="#ecc19c"/>
    <path id="Pfad_593" data-name="Pfad 593" d="M658.4,223.206v.007H585.963v-.007a36.035,36.035,0,0,1,1.933-11.7q.338-.993.737-1.967v-.007c.266-.649.546-1.284.847-1.912a35.791,35.791,0,0,1,4.411-7.033c.437-.539.881-1.065,1.338-1.571.225-.259.464-.512.7-.764s.478-.491.724-.737a35.875,35.875,0,0,1,3.912-3.373c.689-.513,1.386-.99,2.11-1.454s1.461-.895,2.212-1.3a.041.041,0,0,1,.027-.014c.294-.157.58-.327.867-.505.567-.341,1.126-.71,1.659-1.106.273-.191.533-.389.792-.6.614-.491,1.209-1.017,1.775-1.571.184-.184.369-.369.553-.56.382-.4.744-.812,1.092-1.236.171-.2.341-.416.5-.628s.321-.43.478-.649a22.723,22.723,0,0,0,4.247-13.281l5.278.027,5.429.027a22.85,22.85,0,0,0,8.583,17.876c.252.205.505.4.758.588s.5.362.758.533c.054.041.1.075.157.109.246.164.492.328.751.478.28.171.566.341.853.5a.356.356,0,0,1,.123.062c.6.335,1.195.683,1.775,1.045.28.171.56.348.833.546q.851.554,1.66,1.168a.007.007,0,0,0,.007.007h.007a36.633,36.633,0,0,1,3.906,3.373A36.037,36.037,0,0,1,658.4,223.206Z" transform="translate(567.176 629.994)" fill="#ecc19c"/>
    <path id="Pfad_594" data-name="Pfad 594" d="M658.405,232.265H585.964a36.032,36.032,0,0,1,1.933-11.7q.338-.993.737-1.967c-.007-.007,0-.007,0-.007.26-.648.547-1.283.847-1.911a35.823,35.823,0,0,1,4.411-7.033c.437-.539.881-1.065,1.338-1.571.225-.259.464-.512.7-.764s.478-.491.724-.738a36.036,36.036,0,0,1,3.912-3.373c.689-.512,1.386-.99,2.11-1.454s1.461-.9,2.212-1.311a.024.024,0,0,1,.027-.007v-.007c.294-.164.58-.328.867-.5a21.1,21.1,0,0,0,2.437-1.721l.014.014a19.461,19.461,0,0,0,13.923,5.879h.054a19.5,19.5,0,0,0,13.957-5.872l.007-.007a18.353,18.353,0,0,0,1.509,1.126c.055.041.1.075.157.11.246.164.5.321.751.478.28.171.566.334.853.491a.753.753,0,0,1,.123.061c.6.335,1.195.683,1.775,1.052.28.171.56.348.833.546.567.362,1.12.758,1.66,1.168h.013a36.283,36.283,0,0,1,14.551,29.014Z" transform="translate(567.175 620.937)" fill="#c5d4e2"/>
    <path id="Pfad_595" data-name="Pfad 595" d="M654.244,132.8c0,.3-.007.6-.014.9-.013.621-.048,1.243-.1,1.857q-.02.318-.061.635c-.089.881-.212,1.748-.369,2.609-.055.287-.11.566-.171.847a1.2,1.2,0,0,1-.034.171c-.054.287-.123.567-.191.847-.034.163-.075.321-.123.478a3.027,3.027,0,0,1-.089.362c-.143.56-.307,1.106-.477,1.652-.082.26-.164.512-.253.772-.007.027-.021.054-.027.082l-.246.7c-.027.068-.054.137-.082.212-.082.218-.164.437-.253.656-.1.266-.211.526-.321.785-.1.232-.2.464-.3.7-.014.041-.035.075-.048.116-.116.246-.226.491-.341.731s-.239.505-.369.758c-.246.5-.512,1-.778,1.482l-.369.656a40.076,40.076,0,0,1-3.489,5.08q-.256.339-.532.656c-.253.308-.513.608-.772.9-.232.259-.464.519-.7.771-.655.7-1.325,1.373-2.008,2-.137.136-.28.26-.423.389-.232.212-.465.416-.7.614-.185.164-.376.321-.567.478-.492.4-.983.792-1.482,1.154-.2.157-.416.307-.628.451-.341.246-.689.478-1.037.7-.191.13-.39.252-.588.369-.7.43-1.4.826-2.1,1.168-.171.089-.341.171-.512.253s-.348.163-.533.246q-.338.153-.676.287a2.189,2.189,0,0,1-.266.1c-.266.109-.539.212-.806.3-.335.123-.676.225-1.011.321-.232.068-.471.13-.7.185a.1.1,0,0,1-.048.014c-.232.054-.464.109-.7.15a1.8,1.8,0,0,1-.185.034c-.191.035-.383.068-.574.089-.273.041-.546.075-.819.088a1.9,1.9,0,0,1-.28.021c-.218.014-.437.021-.649.021h-.02q-.318,0-.636-.021a1.467,1.467,0,0,1-.246-.021c-.191-.007-.389-.027-.594-.054a.864.864,0,0,1-.13-.013c-.252-.035-.5-.075-.764-.123-.219-.035-.437-.082-.662-.137a19.569,19.569,0,0,1-3.585-1.209,26.143,26.143,0,0,1-3.134-1.652c-.526-.314-1.045-.656-1.571-1.024-.26-.185-.519-.369-.778-.56q-1.219-.892-2.41-1.939c-.219-.2-.437-.4-.655-.6s-.437-.4-.649-.6q-.8-.768-1.557-1.6-.3-.318-.594-.656c-.546-.615-1.078-1.25-1.584-1.912-.2-.239-.383-.485-.567-.731q-1.035-1.373-1.96-2.861c-.164-.266-.328-.539-.485-.806-.191-.321-.376-.649-.56-.977a37.354,37.354,0,0,1-1.858-3.823c-.082-.191-.163-.383-.232-.574-.11-.246-.205-.5-.294-.744q-.205-.543-.389-1.086c-.123-.362-.239-.731-.355-1.1s-.212-.711-.307-1.073c-.109-.382-.211-.771-.3-1.168-.007-.041-.021-.082-.027-.123q-.2-.819-.349-1.659c-.136-.738-.246-1.488-.328-2.247-.034-.239-.054-.478-.075-.717s-.048-.5-.062-.751c-.034-.458-.055-.922-.068-1.386-.007-.3-.014-.6-.014-.9l4.438,8.726,7.627,3.325,9.02.813,6.692.608h.04l6.262.567,13.95,1.257Z" transform="translate(562.917 642.905)" fill="#543e36"/>
    <path id="Pfad_596" data-name="Pfad 596" d="M648.323,70.327a38.236,38.236,0,0,1-5.217,8.536c-.123.15-.246.3-.375.451a38.29,38.29,0,0,1-16.313,11.506,37.314,37.314,0,0,1-5.217,1.5q-1.793.379-3.647.594a39.358,39.358,0,0,1-4.336.239,38.135,38.135,0,0,1-4.944-.321,36.111,36.111,0,0,1-4.65-.888c-.867-.219-1.714-.471-2.554-.751s-1.632-.573-2.431-.9v-2.82a27.8,27.8,0,0,1,27.778-27.8h.027a28.108,28.108,0,0,1,6.159.683,27.87,27.87,0,0,1,15.719,9.969Z" transform="translate(562.917 667.463)" fill="#543e36"/>
    <path id="Pfad_597" data-name="Pfad 597" d="M674.051,88.7v5.469a42.631,42.631,0,0,1-11.5-13.6c-.007-.007-.007-.021-.013-.027a42.356,42.356,0,0,1-4.923-17.215A27.822,27.822,0,0,1,674.051,88.7Z" transform="translate(543.111 666.237)" fill="#543e36"/>
    <path id="Pfad_598" data-name="Pfad 598" d="M601.9,104.358c-.294.512-.56,1.038-.826,1.577-.1.212-.2.437-.308.656a23.143,23.143,0,0,0-2.117,8.577c0,.075-.007.157-.007.232V104.692c0-.383.014-.758.014-1.126C599.734,103.846,600.812,104.119,601.9,104.358Z" transform="translate(562.917 652.722)" fill="#543e36"/>
    <path id="Pfad_599" data-name="Pfad 599" d="M677.478,104.359c.413.726.782,1.47,1.136,2.232a22.892,22.892,0,0,1,2.124,8.812V104.691c0-.377-.015-.753-.015-1.121C679.647,103.848,678.57,104.117,677.478,104.359Z" transform="translate(536.439 652.721)" fill="#543e36"/>
    <path id="Pfad_600" data-name="Pfad 600" d="M652.589,108.411a.236.236,0,0,0-.2-.232,74.479,74.479,0,0,0-10.167-.758c-5.4,0-12.373,1.694-13.588,1.694H627.55c-.567,0-2.383-.369-4.7-.758a56.6,56.6,0,0,0-8.884-.936,74.721,74.721,0,0,0-8.692.56c-.7.082-1.208.157-1.474.2a.236.236,0,0,0-.205.232l-.055,2.9a.251.251,0,0,0,.157.232l.328.116c.485.184.444,8.931,3.052,11.116,1.549,1.29,2.929,2.028,8.74,2.028,3.366,0,5.483-.908,7.49-3.619,1.448-1.946,2.732-6.548,2.732-6.548a2.275,2.275,0,0,1,2.028-2.062h.027a2.254,2.254,0,0,1,2.055,2.062s1.284,4.6,2.732,6.548c2.008,2.711,4.124,3.619,7.491,3.619,5.811,0,7.19-.737,8.74-2.028,2.608-2.185,2.567-10.932,3.052-11.116l.328-.116a.251.251,0,0,0,.157-.232ZM623.3,118.763c-.853,2.022-3.059,4.63-6.166,4.787-9.32.471-9.75-2.131-10.351-4.193a14.182,14.182,0,0,1-.526-5.934c.246-2.062.765-3.27,1.7-3.878a4.246,4.246,0,0,1,1.96-.676,37.422,37.422,0,0,1,5.135-.239,25.834,25.834,0,0,1,4.144.321c3.319.533,5.558,1.659,5.558,2.772A20.676,20.676,0,0,1,623.3,118.763Zm26.091.594c-.6,2.062-1.031,4.664-10.351,4.193-3.107-.157-5.312-2.765-6.166-4.787a20.676,20.676,0,0,1-1.454-7.04c0-1.53,4.247-3.093,9.7-3.093s6.329.41,7.094.915c.936.608,1.455,1.816,1.7,3.878A14.179,14.179,0,0,1,649.393,119.357Z" transform="translate(561.274 651.427)" fill="#1a1a1a"/>
    <g id="Gruppe_201" data-name="Gruppe 201" transform="translate(1161.558 767.54)">
      <path id="Pfad_601" data-name="Pfad 601" d="M626.473,133.053l-.007,6.732-.007,2.356v1.85l-.007,6.145v.007l-.007-.007h-.007l-.02-.013-26.856-13.671c-.007-.041-.021-.082-.027-.123q-.2-.819-.349-1.659c-.136-.738-.246-1.488-.328-2.247-.034-.239-.054-.478-.075-.717s-.048-.5-.062-.751c-.034-.458-.055-.922-.068-1.386-.007-.3-.014-.6-.014-.9v-8.16c0,.116.007.232.007.349a27.145,27.145,0,0,0,.977,6.364,27.56,27.56,0,0,0,1.741,4.691v.007c1.789,3.722,4.186,6.248,6.392,6.658.136.021.28.034.417.048a24,24,0,0,0,2.67.15c3.482,0,6.576-2.8,8.522-3.933l.041-.021c.1-.062.2-.123.294-.185a.584.584,0,0,1,.082-.048,13.818,13.818,0,0,1,6.638-1.536Z" transform="translate(-598.641 -120.509)" fill="#543e36"/>
      <path id="Pfad_602" data-name="Pfad 602" d="M668.3,120.509l-.007,8.16a33.471,33.471,0,0,1-.546,6c-.143.778-.307,1.55-.5,2.315l-6.3,9.1L640.5,150.137h-.007l-.007.007v-.007l-.02-17.086h.054a13.841,13.841,0,0,1,6.644,1.536.455.455,0,0,1,.075.048c.1.061.2.123.3.185a.151.151,0,0,0,.034.02c1.953,1.134,5.039,3.936,8.522,3.936a24.026,24.026,0,0,0,2.67-.15c.143-.014.28-.027.423-.048,2.2-.41,4.6-2.936,6.384-6.658v-.007a27.622,27.622,0,0,0,1.741-4.691,26.9,26.9,0,0,0,.976-6.453C668.3,120.68,668.3,120.6,668.3,120.509Z" transform="translate(-612.688 -120.509)" fill="#543e36"/>
    </g>
    <ellipse id="Ellipse_43" data-name="Ellipse 43" cx="6.811" cy="2.105" rx="6.811" ry="2.105" transform="translate(1182.547 786.815)" fill="#ecc19c"/>
    <g id="Gruppe_202" data-name="Gruppe 202" transform="translate(1166.569 822.937)">
      <path id="Pfad_603" data-name="Pfad 603" d="M609.088,203.92v37.563h-2.9V206.037c.389-.314.778-.621,1.175-.915C607.927,204.7,608.5,204.3,609.088,203.92Z" transform="translate(-606.186 -203.92)" fill="#415364"/>
      <path id="Pfad_604" data-name="Pfad 604" d="M670.445,203.93v37.556h2.9V206.047Z" transform="translate(-627.768 -203.923)" fill="#415364"/>
    </g>
    <g id="Gruppe_205" data-name="Gruppe 205" transform="translate(1174.614 814.484)">
      <g id="Gruppe_203" data-name="Gruppe 203" transform="translate(6.801 6.155)">
        <path id="Pfad_605" data-name="Pfad 605" d="M628.538,200.459l7.944,9.521,7.944-9.521Z" transform="translate(-628.538 -200.459)" fill="#141720"/>
        <path id="Pfad_606" data-name="Pfad 606" d="M638.124,252.083h-4.7l3.394-43.7c.143.556,2.465.556,2.608,0l3.394,43.7Z" transform="translate(-630.18 -203.12)" fill="#141720"/>
      </g>
      <g id="Gruppe_204" data-name="Gruppe 204">
        <path id="Pfad_607" data-name="Pfad 607" d="M633.04,197.31l-.021.035-.007.013-3.3,5.538-3.08,5.162L618.3,196.47c.266-.191.533-.4.785-.608l.014.013a22.7,22.7,0,0,0,4.4-4.643l9.525,6.064Z" transform="translate(-618.298 -191.206)" fill="#e7ecf2"/>
        <path id="Pfad_608" data-name="Pfad 608" d="M655.244,196.457l-8.338,11.587-3.079-5.162-3.305-5.538-.027-.048,9.587-6.1a22.9,22.9,0,0,0,4.4,4.677C654.739,196.074,654.992,196.272,655.244,196.457Z" transform="translate(-625.753 -191.192)" fill="#e7ecf2"/>
      </g>
    </g>
    <path id="Pfad_609" data-name="Pfad 609" d="M622.159,59.673v126.07h-36.2v-.007a36.036,36.036,0,0,1,1.933-11.7q.338-.993.737-1.967v-.007c.26-.649.546-1.284.847-1.912a35.792,35.792,0,0,1,4.411-7.033c.437-.539.881-1.065,1.338-1.571.225-.259.464-.512.7-.764s.478-.491.724-.737a35.788,35.788,0,0,1,2.738-2.459c.389-.314.778-.621,1.175-.914.566-.424,1.14-.82,1.727-1.2.129-.089.252-.171.383-.252q1.086-.7,2.212-1.311a.024.024,0,0,1,.027-.007V153.9c.294-.164.58-.327.867-.5.567-.348,1.12-.717,1.652-1.112.266-.191.533-.4.785-.608l.014.013a23.078,23.078,0,0,0,7.306-10.188,26.046,26.046,0,0,1-3.134-1.652c-.526-.314-1.045-.656-1.571-1.024-.26-.184-.519-.369-.778-.56-.813-.594-1.619-1.243-2.41-1.939-.219-.2-.437-.4-.656-.6s-.437-.4-.649-.6q-.8-.768-1.557-1.6-.3-.318-.594-.656c-.546-.615-1.079-1.25-1.584-1.912-.2-.239-.383-.485-.567-.731q-1.035-1.373-1.96-2.861c-.164-.266-.328-.539-.485-.806-.191-.321-.376-.649-.56-.976a37.432,37.432,0,0,1-1.858-3.824c-.082-.191-.164-.383-.232-.574-.109-.246-.205-.5-.294-.744q-.205-.543-.389-1.086c-.124-.362-.239-.731-.355-1.1s-.212-.71-.307-1.072c-.109-.383-.211-.772-.3-1.168-.007-.041-.021-.082-.027-.123q-.2-.819-.349-1.659c-.136-.737-.246-1.488-.327-2.247-.034-.238-.054-.478-.075-.717s-.048-.5-.062-.751c-.034-.458-.055-.922-.068-1.386-.007-.3-.013-.6-.013-.9V87.471A27.8,27.8,0,0,1,622.159,59.673Z" transform="translate(567.176 667.464)" fill="#ecc19c" opacity="0.5"/>
  </g>
</svg>
