<svg xmlns="http://www.w3.org/2000/svg" viewBox="0 0 82.005 128.982">
  <g id="Gruppe_633" data-name="Gruppe 633" transform="translate(-920.054 -903.159)">
    <g id="Gruppe_23" data-name="Gruppe 23" transform="translate(920.054 903.159)">
      <path id="Pfad_62" data-name="Pfad 62" d="M419,336.49c0,1.079-.048,2.144-.129,3.2a39.207,39.207,0,0,1-.806,5.265,38.415,38.415,0,0,1-5.476,12.8,38.518,38.518,0,0,1-3.264,4.234c-.294.327-.587.648-.887.962a36.251,36.251,0,0,1-3.121,2.936c-.28.239-.56.472-.847.7a37.243,37.243,0,0,1-4.3,2.97c-.464.28-.942.547-1.421.806a38.519,38.519,0,0,1-18.184,4.568,38.59,38.59,0,0,1-18.2-4.568c-.635-.349-1.263-.7-1.871-1.079a37.97,37.97,0,0,1-5.217-3.844c-.177-.151-.361-.307-.532-.472a37.982,37.982,0,0,1-3.428-3.53c-.2-.232-.4-.464-.587-.7a38.744,38.744,0,0,1-4.213-6.371c-.116-.219-.225-.437-.334-.656a38.628,38.628,0,0,1-2.342-5.8q-.184-.6-.348-1.208a37.515,37.515,0,0,1-1.188-6.426c-.035-.369-.068-.738-.1-1.113-.054-.881-.089-1.775-.089-2.67,0-.539.014-1.072.035-1.6.007-.266.02-.526.041-.792a37.4,37.4,0,0,1,.663-5.128c.075-.375.157-.751.238-1.12a37.382,37.382,0,0,1,1.127-3.913c.157-.465.327-.929.505-1.379a37.1,37.1,0,0,1,1.864-4.07q.829-1.567,1.8-3.045c.416-.642.853-1.263,1.311-1.878.5-.676,1.024-1.332,1.571-1.967a36.341,36.341,0,0,1,3.045-3.182c.369-.348.737-.683,1.12-1.011a37.318,37.318,0,0,1,4.589-3.407c.547-.348,1.1-.683,1.666-1,.82-.464,1.659-.9,2.52-1.3q.8-.379,1.618-.717a38.425,38.425,0,0,1,4.985-1.68c.86-.226,1.734-.417,2.622-.58a38.12,38.12,0,0,1,4.083-.547q1.045-.082,2.11-.1c.307-.007.614-.014.928-.014q1.107,0,2.192.062c.464.027.929.061,1.386.1a37.4,37.4,0,0,1,5.647.956c.424.1.84.212,1.257.328a38.277,38.277,0,0,1,5.975,2.246c.547.26,1.079.526,1.612.813,1,.526,1.959,1.1,2.9,1.714.164.109.335.218.5.327a37.83,37.83,0,0,1,3.762,2.9c.792.676,1.543,1.393,2.267,2.144a36.7,36.7,0,0,1,3.162,3.667c.2.253.389.505.567.765a37.7,37.7,0,0,1,2.6,4.144c.143.26.28.526.41.786a38.088,38.088,0,0,1,3,7.9,37.375,37.375,0,0,1,.84,4.3A38.478,38.478,0,0,1,419,336.49Z" transform="translate(-340.256 -294.482)" fill="#141720"/>
      <path id="Pfad_63" data-name="Pfad 63" d="M361.135,393.335a.536.536,0,0,1-.007.1,3.361,3.361,0,0,1-1.741,2.861,2.123,2.123,0,0,1-.4.191,3.268,3.268,0,0,1-1.243.239,3.392,3.392,0,0,1-3.387-3.394,3.563,3.563,0,0,1,.13-.935,3.3,3.3,0,0,1,.355-.806,3.384,3.384,0,0,1,3.783-1.53,3.138,3.138,0,0,1,1.174.573,3.538,3.538,0,0,1,.758.8A3.356,3.356,0,0,1,361.135,393.335Z" transform="translate(-344.365 -325.344)" fill="#141720"/>
      <path id="Pfad_64" data-name="Pfad 64" d="M347.143,338.3a3.392,3.392,0,0,1-4.876,3.046,3.439,3.439,0,0,1-.676-.43,3.4,3.4,0,0,1,1.12-5.845,3.279,3.279,0,0,1,1.038-.163,2.478,2.478,0,0,1,.389.027,3.364,3.364,0,0,1,2.957,2.827A2.858,2.858,0,0,1,347.143,338.3Z" transform="translate(-339.665 -306.857)" fill="#141720"/>
      <path id="Pfad_65" data-name="Pfad 65" d="M375.745,304.2a3.385,3.385,0,0,1-2.595,3.3,3.333,3.333,0,0,1-.792.1,3.385,3.385,0,0,1-3.312-2.67,3.189,3.189,0,0,1-.082-.724,3.232,3.232,0,0,1,.116-.86,3.386,3.386,0,0,1,3.278-2.526,3.346,3.346,0,0,1,2.492,1.093A3.377,3.377,0,0,1,375.745,304.2Z" transform="translate(-349.271 -295.407)" fill="#141720"/>
      <circle id="Ellipse_11" data-name="Ellipse 11" cx="3.39" cy="3.39" r="3.39" transform="translate(55.003 6.852)" fill="#141720"/>
      <path id="Pfad_66" data-name="Pfad 66" d="M346.094,355.212a3.3,3.3,0,0,1-.232,1.223,3.392,3.392,0,0,1-3.161,2.171,3.352,3.352,0,0,1-1.338-.273,3.735,3.735,0,0,1-.778-.472,3.4,3.4,0,0,1,.184-5.435,3.038,3.038,0,0,1,.485-.274,3.311,3.311,0,0,1,1.448-.327,3.384,3.384,0,0,1,3.155,2.144A3.281,3.281,0,0,1,346.094,355.212Z" transform="translate(-339.313 -312.541)" fill="#141720"/>
      <path id="Pfad_67" data-name="Pfad 67" d="M440.753,395.462a3.39,3.39,0,1,1-3.391-3.391A3.39,3.39,0,0,1,440.753,395.462Z" transform="translate(-371.104 -326.057)" fill="#141720"/>
      <circle id="Ellipse_12" data-name="Ellipse 12" cx="3.39" cy="3.39" r="3.39" transform="translate(66.356 62.07)" fill="#141720"/>
      <circle id="Ellipse_13" data-name="Ellipse 13" cx="3.39" cy="3.39" r="3.39" transform="translate(58.389 68.85)" fill="#141720"/>
      <path id="Pfad_68" data-name="Pfad 68" d="M402.076,297.667a3.407,3.407,0,0,1-3.394,3.393,1.7,1.7,0,0,1-.26-.013,3.283,3.283,0,0,1-1.769-.669,3.375,3.375,0,0,1-1.359-2.71,3.114,3.114,0,0,1,.089-.765,3.32,3.32,0,0,1,1.27-1.939,3.282,3.282,0,0,1,1.769-.669,1.625,1.625,0,0,1,.26-.014A3.41,3.41,0,0,1,402,296.95,3.547,3.547,0,0,1,402.076,297.667Z" transform="translate(-358.114 -293.215)" fill="#141720"/>
      <circle id="Ellipse_14" data-name="Ellipse 14" cx="3.39" cy="3.39" r="3.39" transform="translate(69.746 18.055)" fill="#141720"/>
      <path id="Pfad_69" data-name="Pfad 69" d="M356.881,383.606a4.84,4.84,0,0,1-.259,1.577,4.671,4.671,0,0,1-.505,1.072,4.972,4.972,0,0,1-3.2,2.233,4.271,4.271,0,0,1-.942.1.4.4,0,0,1-.088.007,4.994,4.994,0,0,1-4.459-7.252,3.943,3.943,0,0,1,.355-.587,4.992,4.992,0,0,1,4.1-2.151q.215,0,.43.021a5,5,0,0,1,4.561,4.978Z" transform="translate(-341.858 -321.536)" fill="#141720"/>
      <path id="Pfad_70" data-name="Pfad 70" d="M371.059,395.357a4.982,4.982,0,0,1-3.394,4.725,4.517,4.517,0,0,1-.806.2,4.394,4.394,0,0,1-.8.068,4.971,4.971,0,0,1-4.821-3.722,3.467,3.467,0,0,1-.129-.662,4.367,4.367,0,0,1-.041-.608,4.986,4.986,0,0,1,1.454-3.523,3.181,3.181,0,0,1,.287-.26,4.9,4.9,0,0,1,3.25-1.215A5,5,0,0,1,371.059,395.357Z" transform="translate(-346.62 -325.482)" fill="#141720"/>
      <path id="Pfad_71" data-name="Pfad 71" d="M353.036,329.149a5,5,0,0,1-4.991,5H348a4.971,4.971,0,0,1-3.462-1.447,4.76,4.76,0,0,1-.922-1.243,4.982,4.982,0,0,1,2.493-6.9,4.822,4.822,0,0,1,1.939-.4,4.212,4.212,0,0,1,.662.048,4.954,4.954,0,0,1,4.268,4.227A4.156,4.156,0,0,1,353.036,329.149Z" transform="translate(-340.567 -303.249)" fill="#141720"/>
      <circle id="Ellipse_15" data-name="Ellipse 15" cx="4.995" cy="4.995" r="4.995" transform="translate(47.256 11.336) rotate(-74.619)" fill="#141720"/>
      <path id="Pfad_72" data-name="Pfad 72" d="M385.35,300.464a4.929,4.929,0,0,1-.348,1.824,4.987,4.987,0,0,1-7.743,2.1,4.917,4.917,0,0,1-1.878-3.558,3.057,3.057,0,0,1-.021-.362,4.743,4.743,0,0,1,.177-1.29,4.975,4.975,0,0,1,6.965-3.209,4.989,4.989,0,0,1,2.847,4.5Z" transform="translate(-351.419 -293.615)" fill="#141720"/>
      <path id="Pfad_73" data-name="Pfad 73" d="M349.3,363.382a5,5,0,0,1-5,4.992,4.792,4.792,0,0,1-1.407-.205,4.436,4.436,0,0,1-1-.416,4.982,4.982,0,0,1-1.311-7.689,3.815,3.815,0,0,1,.683-.642,4.95,4.95,0,0,1,4.6-.785A5,5,0,0,1,349.3,363.382Z" transform="translate(-339.313 -314.744)" fill="#141720"/>
      <circle id="Ellipse_16" data-name="Ellipse 16" cx="4.995" cy="4.995" r="4.995" transform="translate(61.871 12.839)" fill="#141720"/>
      <circle id="Ellipse_17" data-name="Ellipse 17" cx="4.996" cy="4.996" r="4.996" transform="translate(67.433 26.706) rotate(-28.362)" fill="#141720"/>
      <path id="Pfad_74" data-name="Pfad 74" d="M370.3,309.481a5,5,0,0,1-5,5,4.709,4.709,0,0,1-1.168-.143,5,5,0,0,1-3.708-3.762,4.8,4.8,0,0,1-.123-1.093,1.7,1.7,0,0,1,.014-.266,4.982,4.982,0,0,1,4.984-4.725,4.571,4.571,0,0,1,.867.082,4.76,4.76,0,0,1,1.632.587,4.96,4.96,0,0,1,2.437,3.571A4.494,4.494,0,0,1,370.3,309.481Z" transform="translate(-346.364 -296.643)" fill="#141720"/>
      <path id="Pfad_75" data-name="Pfad 75" d="M351.038,373.875a4.445,4.445,0,0,1-4.459,4.452h-.062a4.5,4.5,0,0,1-4.4-4.452,4.374,4.374,0,0,1,.717-2.418,4.241,4.241,0,0,1,.656-.792,4.4,4.4,0,0,1,3.086-1.25,4.463,4.463,0,0,1,4.459,4.459Z" transform="translate(-340.256 -318.449)" fill="#141720"/>
      <path id="Pfad_76" data-name="Pfad 76" d="M356.559,322.708a4.445,4.445,0,0,1-2.042,3.742,4.389,4.389,0,0,1-2.418.717,4.454,4.454,0,0,1-4.459-4.458.857.857,0,0,1,.007-.137,4.443,4.443,0,0,1,3.393-4.186,4.118,4.118,0,0,1,1.059-.13,4.279,4.279,0,0,1,1.031.123,4.449,4.449,0,0,1,3.42,4.2A.779.779,0,0,1,356.559,322.708Z" transform="translate(-342.11 -301.267)" fill="#141720"/>
      <path id="Pfad_77" data-name="Pfad 77" d="M411.382,299.134a4.456,4.456,0,1,1-4.456-4.456A4.457,4.457,0,0,1,411.382,299.134Z" transform="translate(-360.524 -293.348)" fill="#141720"/>
      <path id="Pfad_78" data-name="Pfad 78" d="M349.1,346.489a4.457,4.457,0,0,1-7.593,3.169,4.028,4.028,0,0,1-.444-.519,4.443,4.443,0,0,1,.472-5.832,4.073,4.073,0,0,1,.915-.689,4.416,4.416,0,0,1,2.192-.581,4.528,4.528,0,0,1,3.523,1.721A4.42,4.42,0,0,1,349.1,346.489Z" transform="translate(-339.607 -309.254)" fill="#141720"/>
      <circle id="Ellipse_18" data-name="Ellipse 18" cx="4.456" cy="4.456" r="4.456" transform="translate(72.68 36.554)" fill="#141720"/>
      <circle id="Ellipse_19" data-name="Ellipse 19" cx="4.456" cy="4.456" r="4.456" transform="translate(69.746 48.636)" fill="#141720"/>
      <path id="Pfad_79" data-name="Pfad 79" d="M361.662,316a4,4,0,0,1-.061.7,4.434,4.434,0,0,1-3.333,3.619,4.2,4.2,0,0,1-1.065.13,4.439,4.439,0,0,1-3.926-2.363,4.235,4.235,0,0,1-.519-1.959.857.857,0,0,1-.007-.13,4.455,4.455,0,0,1,4.452-4.459,4.092,4.092,0,0,1,.581.041,4.171,4.171,0,0,1,1.229.348A4.429,4.429,0,0,1,361.662,316Z" transform="translate(-343.826 -299.012)" fill="#141720"/>
      <circle id="Ellipse_20" data-name="Ellipse 20" cx="4.456" cy="4.456" r="4.456" transform="translate(59.193 9.103)" fill="#141720"/>
      <path id="Pfad_80" data-name="Pfad 80" d="M394.223,297.129a4.465,4.465,0,0,1-4.452,4.458,4.294,4.294,0,0,1-1.427-.238,4.441,4.441,0,0,1-3.018-3.858c-.007-.124-.014-.239-.014-.362a4.392,4.392,0,0,1,.533-2.1,4.462,4.462,0,0,1,8.3,1.236A4.512,4.512,0,0,1,394.223,297.129Z" transform="translate(-354.762 -292.676)" fill="#141720"/>
      <path id="Pfad_81" data-name="Pfad 81" d="M417.9,460.59v.007H345.462v-.007a36.042,36.042,0,0,1,10.693-25.682c.246-.246.491-.485.745-.724a37.977,37.977,0,0,1,3.175-2.656c.341-.253.689-.505,1.038-.745.717-.491,1.454-.963,2.2-1.4.355-.212.717-.417,1.079-.615a.024.024,0,0,1,.021-.013c.294-.157.581-.328.867-.505.219-.123.43-.253.636-.4a21.739,21.739,0,0,0,1.823-1.3v-.007a22.922,22.922,0,0,0,8.44-14.88,23.639,23.639,0,0,0,.2-3.045l5.305.027,5.4.027a23.672,23.672,0,0,0,.191,2.977,22.833,22.833,0,0,0,8.385,14.906c.246.191.491.383.745.566a.02.02,0,0,1,.013.007c.191.15.389.286.588.416a.994.994,0,0,0,.177.123c.054.041.1.075.157.109l.062.041c.225.15.458.294.689.437.28.171.567.341.853.5a.347.347,0,0,1,.124.061c.321.177.642.362.956.553.416.239.826.491,1.229.751.717.464,1.407.942,2.089,1.461h.013A36.254,36.254,0,0,1,417.9,460.59Z" transform="translate(-341.378 -331.615)" fill="#b08874"/>
      <path id="Pfad_82" data-name="Pfad 82" d="M417.9,469.647H345.462a36.042,36.042,0,0,1,10.693-25.682c.246-.246.491-.485.745-.724a37.977,37.977,0,0,1,3.175-2.656c.341-.253.689-.505,1.038-.745.717-.491,1.447-.963,2.2-1.407.355-.211.717-.416,1.079-.614a.023.023,0,0,1,.027-.007v-.007c.581-.321,1.154-.669,1.707-1.038.26-.17.512-.348.765-.539.027-.013.048-.034.075-.048q.276-.2.553-.43l.205-.164h.007l.014.014c.437.45.9.873,1.379,1.283,0,.007,0,.007.007.007a19.486,19.486,0,0,0,12.53,4.589h.054a19.51,19.51,0,0,0,13.951-5.866l.007-.007.007-.007c.252.211.512.409.778.607.177.137.362.266.553.4.054.041.116.082.177.123s.1.075.157.109l.062.041c.225.15.458.294.689.437.28.171.567.335.853.491a.714.714,0,0,1,.124.062c.321.177.648.362.962.553.416.246.826.5,1.223.758.717.458,1.407.942,2.089,1.454h.013A36.331,36.331,0,0,1,417.9,469.647Z" transform="translate(-341.378 -340.672)" fill="#d2dae2"/>
      <g id="Gruppe_22" data-name="Gruppe 22" transform="translate(21.933 94.915)">
        <path id="Pfad_83" data-name="Pfad 83" d="M409.06,438.421l-.007.007-.745.758a24.5,24.5,0,0,1-17.6,7.4H390.7a24.518,24.518,0,0,1-17.645-7.415l-.711-.731-.007-.007c.355-.211.717-.416,1.079-.614a.023.023,0,0,1,.027-.007v-.007c.294-.163.581-.327.867-.5.212-.13.424-.26.636-.4l.2-.144c.26-.17.519-.348.765-.539.027-.013.048-.034.075-.048.184-.143.375-.286.553-.43l.205-.164.013.014h.007v.007a17.442,17.442,0,0,0,1.379,1.277c0,.007,0,.007.007.007a19.227,19.227,0,0,0,3.974,2.595,19.425,19.425,0,0,0,8.556,1.994h.054a19.51,19.51,0,0,0,13.951-5.866l.007-.007.007-.007c.239.2.478.389.731.58a.02.02,0,0,1,.013.007.158.158,0,0,0,.035.02c.177.137.362.266.553.4.054.041.116.082.177.123s.1.075.157.109l.062.041c.225.15.458.294.689.437.28.171.567.335.853.491a.714.714,0,0,1,.124.062C408.419,438.045,408.746,438.23,409.06,438.421Z" transform="translate(-372.337 -435.587)" fill="#1e272e"/>
      </g>
      <path id="Pfad_84" data-name="Pfad 84" d="M413.742,345.656v16.279a33.038,33.038,0,0,1-.314,4.52,35.852,35.852,0,0,1-3.114,10.42c-.444.949-.922,1.878-1.434,2.78-.116.2-.232.41-.348.608a41.263,41.263,0,0,1-3.428,4.923c-.314.4-.642.785-.977,1.161a34.33,34.33,0,0,1-11.479,8.829,14.8,14.8,0,0,1-13.35.027,34.373,34.373,0,0,1-11.554-8.856c-.362-.417-.717-.84-1.065-1.277a40.961,40.961,0,0,1-4.281-6.507q-.45-.861-.86-1.741c-.164-.348-.321-.7-.472-1.059-.239-.539-.458-1.093-.669-1.645a36.154,36.154,0,0,1-1.571-5.443c-.15-.731-.28-1.468-.375-2.219a32.937,32.937,0,0,1-.315-4.52V345.656Z" transform="translate(-345.635 -310.469)" fill="#b08874"/>
      <path id="Pfad_85" data-name="Pfad 85" d="M357.114,366.346h0a3.694,3.694,0,0,0,3.694-3.693V344.914h-3.694Z" transform="translate(-345.291 -310.22)" fill="#141720"/>
      <path id="Pfad_86" data-name="Pfad 86" d="M437.325,344.914h3.693v21.432h0a3.694,3.694,0,0,1-3.693-3.693Z" transform="translate(-372.23 -310.22)" fill="#141720"/>
      <circle id="Ellipse_21" data-name="Ellipse 21" cx="4.456" cy="4.456" r="4.456" transform="translate(28.933 31.378)" fill="#141720"/>
      <path id="Pfad_87" data-name="Pfad 87" d="M376.275,342.858a4.456,4.456,0,1,1-4.456-4.456A4.456,4.456,0,0,1,376.275,342.858Z" transform="translate(-348.733 -308.033)" fill="#141720"/>
      <path id="Pfad_88" data-name="Pfad 88" d="M360.345,345.46A4.456,4.456,0,1,1,355.889,341,4.456,4.456,0,0,1,360.345,345.46Z" transform="translate(-343.383 -308.907)" fill="#141720"/>
      <path id="Pfad_89" data-name="Pfad 89" d="M411.382,343.652a4.456,4.456,0,1,1-4.456-4.456A4.456,4.456,0,0,1,411.382,343.652Z" transform="translate(-360.524 -308.299)" fill="#141720"/>
      <path id="Pfad_90" data-name="Pfad 90" d="M431.669,343.652a4.456,4.456,0,1,1-4.456-4.456A4.456,4.456,0,0,1,431.669,343.652Z" transform="translate(-367.337 -308.299)" fill="#141720"/>
      <path id="Pfad_91" data-name="Pfad 91" d="M445.59,350.008a4.456,4.456,0,1,1-4.456-4.456A4.456,4.456,0,0,1,445.59,350.008Z" transform="translate(-372.012 -310.434)" fill="#141720"/>
      <circle id="Ellipse_22" data-name="Ellipse 22" cx="3.39" cy="3.39" r="3.39" transform="translate(36.915 32.78)" fill="#141720"/>
      <circle id="Ellipse_23" data-name="Ellipse 23" cx="3.39" cy="3.39" r="3.39" transform="translate(13.946 32.445)" fill="#141720"/>
      <circle id="Ellipse_24" data-name="Ellipse 24" cx="3.39" cy="3.39" r="3.39" transform="translate(25.543 32.445)" fill="#141720"/>
      <path id="Pfad_92" data-name="Pfad 92" d="M421.387,346.523a3.39,3.39,0,1,1-3.39-3.391A3.39,3.39,0,0,1,421.387,346.523Z" transform="translate(-364.6 -309.621)" fill="#141720"/>
      <circle id="Ellipse_25" data-name="Ellipse 25" cx="3.39" cy="3.39" r="3.39" transform="translate(60.942 33.511)" fill="#141720"/>
      <path id="Pfad_93" data-name="Pfad 93" d="M411.538,357.863a.221.221,0,0,0-.191-.219,71.215,71.215,0,0,0-9.71-.724c-5.162,0-11.82,1.619-12.981,1.619h-1.031c-.539,0-2.274-.355-4.493-.724a54.008,54.008,0,0,0-8.481-.895,72.078,72.078,0,0,0-8.3.533c-.669.082-1.154.15-1.407.191a.221.221,0,0,0-.2.219l-.054,2.772a.247.247,0,0,0,.15.226l.314.109c.464.177.423,8.529,2.916,10.619,1.482,1.229,2.8,1.932,8.344,1.932,3.216,0,5.238-.867,7.156-3.455,1.386-1.858,2.608-6.255,2.608-6.255a2.178,2.178,0,0,1,1.939-1.967h.027a2.154,2.154,0,0,1,1.96,1.967s1.229,4.4,2.609,6.255c1.919,2.588,3.94,3.455,7.156,3.455,5.545,0,6.863-.7,8.344-1.932,2.493-2.089,2.451-10.441,2.916-10.619l.314-.109a.247.247,0,0,0,.15-.226Z" transform="translate(-347.835 -314.252)" fill="#1a1a1a"/>
    </g>
    <circle id="Ellipse_26" data-name="Ellipse 26" cx="4.995" cy="4.995" r="4.995" transform="matrix(0.161, -0.987, 0.987, 0.161, 987.941, 966.717)" fill="#141720"/>
    <path id="Pfad_94" data-name="Pfad 94" d="M459.356,343.293a3.39,3.39,0,1,1-3.39-3.39A3.39,3.39,0,0,1,459.356,343.293Z" transform="translate(542.703 594.623)" fill="#141720"/>
    <circle id="Ellipse_27" data-name="Ellipse 27" cx="3.39" cy="3.39" r="3.39" transform="translate(994.486 947.289)" fill="#141720"/>
    <path id="Pfad_95" data-name="Pfad 95" d="M379.621,293.755v127.9H343.4v-.007a36.042,36.042,0,0,1,10.693-25.682c.246-.246.491-.485.745-.724a37.983,37.983,0,0,1,3.175-2.656c.341-.253.689-.505,1.038-.745.717-.491,1.447-.963,2.2-1.407.355-.211.717-.416,1.079-.614a.023.023,0,0,1,.027-.007v-.007c.581-.321,1.154-.669,1.707-1.038.26-.17.512-.348.765-.539.027-.013.048-.034.075-.048q.276-.2.553-.43l.205-.164h.007l.014.014a22.914,22.914,0,0,0,7.3-10.2,34.372,34.372,0,0,1-11.554-8.856c-.635-.349-1.263-.7-1.871-1.079a4.394,4.394,0,0,1-.8.068,4.971,4.971,0,0,1-4.821-3.722,3.268,3.268,0,0,1-1.243.239,3.392,3.392,0,0,1-3.387-3.394,3.564,3.564,0,0,1,.13-.935.4.4,0,0,1-.088.007,4.994,4.994,0,0,1-4.459-7.252,4.453,4.453,0,0,1-3.708-4.383,4.373,4.373,0,0,1,.717-2.418A4.982,4.982,0,0,1,340.584,338a3.4,3.4,0,0,1,.184-5.435,4.444,4.444,0,0,1,.472-5.832,3.4,3.4,0,0,1,1.12-5.845,4.982,4.982,0,0,1,2.493-6.9,4.443,4.443,0,0,1,3.393-4.185.854.854,0,0,1-.007-.13,4.455,4.455,0,0,1,4.453-4.459,4.092,4.092,0,0,1,.58.041,4.982,4.982,0,0,1,4.984-4.725,4.571,4.571,0,0,1,.867.082,3.386,3.386,0,0,1,3.278-2.526,3.427,3.427,0,0,1,1.031.157,4.975,4.975,0,0,1,6.965-3.209,4.448,4.448,0,0,1,7.456-.6A3.282,3.282,0,0,1,379.621,293.755Z" transform="translate(580.741 610.484)" fill="#ecc19c" opacity="0.5"/>
  </g>
</svg>
