<svg xmlns="http://www.w3.org/2000/svg" viewBox="0 0 125.295 133.689">
  <g id="Gruppe_638" data-name="Gruppe 638" transform="translate(-277 -809)">
    <g id="Gruppe_51" data-name="Gruppe 51" transform="translate(303.351 816.272)">
      <path id="Pfad_149" data-name="Pfad 149" d="M177.612,222.574v.007H104.976v-.007a36.132,36.132,0,0,1,1.937-11.728q.339-1,.74-1.972v-.007c.26-.651.547-1.287.848-1.917a35.949,35.949,0,0,1,4.423-7.052c.438-.541.884-1.068,1.342-1.575.226-.26.466-.513.705-.767s.479-.493.726-.74a36.264,36.264,0,0,1,3.923-3.382c.692-.513,1.39-.992,2.116-1.458.26-.164.521-.328.788-.486.116-.068.24-.137.356-.205.356-.212.713-.418,1.075-.616a.043.043,0,0,1,.028-.014c.294-.157.582-.328.869-.507a21.537,21.537,0,0,0,2.458-1.711,22.9,22.9,0,0,0,8.668-17.973l5.292.028h.014l5.429.027a22.935,22.935,0,0,0,1.307,7.668,21.737,21.737,0,0,0,1.226,2.834,22.958,22.958,0,0,0,6.073,7.422,18.449,18.449,0,0,0,1.52,1.123c.055.041.1.075.157.11.246.164.493.328.753.479.281.171.569.342.856.5a.34.34,0,0,1,.123.062c.322.178.644.363.959.554q.411.237.822.493c.28.171.561.349.835.547.568.363,1.123.76,1.664,1.171a.007.007,0,0,0,.007.007h.007c.691.513,1.362,1.061,2.02,1.622s1.287,1.151,1.9,1.76A36.134,36.134,0,0,1,177.612,222.574Z" transform="translate(-104.976 -96.162)" fill="#ecc19c"/>
      <path id="Pfad_150" data-name="Pfad 150" d="M177.612,231.583H104.976a36.132,36.132,0,0,1,1.937-11.728q.339-1,.74-1.972v-.007c.26-.651.547-1.287.848-1.917a35.948,35.948,0,0,1,4.423-7.052c.438-.541.884-1.068,1.342-1.575.226-.26.466-.513.705-.767s.479-.493.726-.74a36.267,36.267,0,0,1,3.923-3.382c.692-.513,1.39-.992,2.116-1.458.26-.164.521-.328.788-.486.116-.075.232-.143.349-.212.356-.212.719-.418,1.081-.617a.026.026,0,0,1,.028-.007v-.007c.294-.164.582-.329.869-.5a21.159,21.159,0,0,0,2.445-1.725l.013.014a19.514,19.514,0,0,0,13.961,5.895h.055a19.557,19.557,0,0,0,13.995-5.888l.007-.007a18.3,18.3,0,0,0,1.513,1.129c.055.041.1.075.157.11.246.164.5.322.753.479.281.171.569.335.856.493a.642.642,0,0,1,.123.061c.322.178.651.363.966.555.274.164.548.329.815.5s.561.349.835.547c.568.363,1.123.76,1.664,1.171h.014c.691.521,1.369,1.062,2.02,1.63s1.287,1.151,1.9,1.76A36.134,36.134,0,0,1,177.612,231.583Z" transform="translate(-104.976 -105.171)" fill="#05c46b"/>
      <g id="Gruppe_47" data-name="Gruppe 47" transform="translate(17.897 92.26)">
        <path id="Pfad_151" data-name="Pfad 151" d="M168.673,200.273l-.007.007-.747.761a24.564,24.564,0,0,1-17.657,7.422h-.014a24.592,24.592,0,0,1-17.678-7.436l-.713-.733-.007-.007c.356-.212.719-.418,1.082-.617a.026.026,0,0,1,.028-.007v-.007c.294-.164.582-.329.869-.5a21.156,21.156,0,0,0,2.445-1.725l.013.014a19.514,19.514,0,0,0,13.961,5.895h.055a19.557,19.557,0,0,0,13.995-5.888l.007-.007a18.3,18.3,0,0,0,1.513,1.129c.055.041.1.075.157.11.246.164.5.322.753.479.281.171.569.335.856.493a.643.643,0,0,1,.123.061C168.029,199.9,168.358,200.081,168.673,200.273Z" transform="translate(-131.851 -197.431)" fill="#4bcffa"/>
      </g>
      <g id="Gruppe_50" data-name="Gruppe 50" transform="translate(8.441)">
        <path id="Pfad_152" data-name="Pfad 152" d="M173.4,98.083V114.8c0,.3-.007.6-.013.9-.007.233-.014.465-.027.7s-.021.459-.041.691c-.007.158-.021.315-.034.473-.007.1-.014.184-.027.28-.014.171-.028.35-.055.521s-.027.328-.055.493-.034.322-.061.486c-.062.493-.144.986-.233,1.472-.062.329-.123.657-.192.98-.007.013-.007.027-.013.041a1.1,1.1,0,0,1-.028.144c-.007.014-.007.027-.013.041a.09.09,0,0,1-.007.041c-.014.068-.028.137-.048.205s-.035.165-.055.246a1.5,1.5,0,0,1-.061.254c-.021.123-.055.246-.083.37-.02.069-.034.144-.061.212s-.034.123-.048.178c-.144.561-.308,1.109-.479,1.657-.082.26-.164.513-.253.774-.007.027-.021.055-.027.082q-.124.35-.246.7c-.028.069-.055.137-.083.212-.082.219-.164.438-.253.657-.1.267-.212.527-.322.787-.1.233-.2.465-.3.7-.013.041-.034.075-.048.116-.117.247-.226.493-.342.733s-.24.507-.37.76c-.246.5-.513,1-.78,1.486l-.37.657a40.412,40.412,0,0,1-3.5,5.094q-.257.339-.534.657c-.253.308-.513.609-.774.9-.232.26-.465.521-.705.774-.657.705-1.328,1.376-2.012,2.006-.137.137-.281.26-.425.39-.233.212-.465.418-.705.617-.184.164-.376.322-.568.479-.493.4-.986.794-1.486,1.157-.206.157-.418.308-.63.452-.342.246-.692.479-1.041.705-.192.13-.39.253-.589.37-.637.4-1.287.76-1.924,1.081-.062.035-.117.062-.178.089-.171.089-.342.171-.513.253s-.349.164-.534.247q-.339.154-.677.287a2.245,2.245,0,0,1-.267.1c-.267.109-.541.212-.808.3-.335.123-.677.226-1.013.322-.233.069-.473.13-.705.185a.1.1,0,0,1-.048.013c-.233.055-.465.11-.7.15a1.61,1.61,0,0,1-.185.035c-.191.034-.383.069-.575.089a8.2,8.2,0,0,1-.822.089,1.9,1.9,0,0,1-.28.021c-.219.014-.438.021-.651.021H145.5c-.212,0-.424-.007-.637-.021a1.46,1.46,0,0,1-.246-.021c-.192-.007-.39-.027-.6-.055a.79.79,0,0,1-.13-.014c-.254-.034-.507-.075-.767-.123-.219-.034-.438-.082-.664-.137a19.688,19.688,0,0,1-3.595-1.212c-.41-.185-.828-.377-1.239-.6-.637-.314-1.273-.671-1.9-1.061-.527-.322-1.054-.665-1.574-1.027-.26-.185-.521-.37-.781-.561-.814-.6-1.622-1.247-2.417-1.945-.219-.2-.438-.4-.657-.6s-.438-.4-.651-.6q-.8-.77-1.561-1.6-.3-.318-.6-.657c-.548-.616-1.082-1.253-1.589-1.917-.2-.239-.383-.485-.568-.733-.691-.917-1.349-1.876-1.965-2.868-.164-.268-.328-.541-.486-.808-.191-.322-.376-.65-.561-.979a37.328,37.328,0,0,1-1.862-3.834c-.083-.191-.164-.383-.233-.575-.109-.246-.205-.5-.294-.747q-.2-.544-.39-1.089c-.123-.362-.24-.733-.356-1.1s-.212-.712-.308-1.075c-.11-.384-.212-.774-.3-1.171-.007-.041-.02-.082-.027-.123q-.195-.822-.349-1.664c-.137-.739-.246-1.492-.329-2.252-.034-.24-.055-.479-.075-.719s-.048-.5-.061-.753c-.035-.458-.055-.924-.069-1.39-.007-.3-.014-.6-.014-.9V98.083a27.779,27.779,0,0,1,2.171-10.8c.034-.1.075-.185.116-.274a27.079,27.079,0,0,1,1.89-3.608c.11-.184.226-.363.342-.541A27.844,27.844,0,0,1,145.5,70.21h.027a28.234,28.234,0,0,1,6.176.685,27.957,27.957,0,0,1,15.761,10q.739.945,1.4,1.951c.123.185.246.37.356.561A27.167,27.167,0,0,1,171.111,87l.123.288a27.626,27.626,0,0,1,2.164,10.55C173.4,97.919,173.4,98,173.4,98.083Z" transform="translate(-117.652 -62.672)" fill="#ecc19c"/>
        <path id="Pfad_153" data-name="Pfad 153" d="M173.4,137.162c0,.3-.007.6-.013.9-.007.233-.014.465-.027.7s-.021.459-.041.691c-.007.158-.021.315-.034.473-.007.1-.014.184-.027.28-.014.171-.028.35-.055.521s-.034.328-.055.493-.034.322-.061.486c-.062.493-.144.986-.233,1.472-.055.288-.109.569-.171.849a1.277,1.277,0,0,1-.034.171,1.1,1.1,0,0,1-.028.144c-.007.014-.007.027-.013.041a.09.09,0,0,1-.007.041v.013c-.014.075-.035.15-.048.219a2.11,2.11,0,0,1-.055.219,1.5,1.5,0,0,1-.061.254,3.852,3.852,0,0,1-.1.4.926.926,0,0,1-.041.185c-.014.061-.034.123-.048.178-.144.561-.308,1.109-.479,1.657-.082.26-.164.513-.253.774-.007.027-.021.055-.027.082q-.124.35-.246.7c-.028.069-.055.137-.083.212-.082.219-.164.438-.253.657-.1.267-.212.527-.322.787-.1.233-.2.465-.3.7-.013.041-.034.075-.048.116-.117.247-.226.493-.342.733s-.24.507-.37.76c-.246.5-.513,1-.78,1.486l-.37.657a40.414,40.414,0,0,1-3.5,5.094q-.257.339-.534.657c-.253.308-.513.609-.774.9-.232.26-.465.521-.705.774-.657.705-1.328,1.376-2.012,2.006-.137.137-.281.26-.425.39-.233.212-.465.418-.705.617-.184.164-.376.322-.568.479-.493.4-.986.794-1.486,1.157-.206.157-.418.308-.63.452-.342.246-.692.479-1.041.705-.192.13-.39.253-.589.37-.637.4-1.287.76-1.924,1.081-.062.035-.117.062-.178.089-.171.089-.342.171-.513.253s-.349.165-.534.247q-.339.154-.677.287a2.242,2.242,0,0,1-.267.1c-.267.109-.541.212-.808.3-.335.123-.677.226-1.013.322-.233.069-.473.13-.705.185a.1.1,0,0,1-.048.013c-.233.055-.465.11-.7.15a1.61,1.61,0,0,1-.185.035c-.191.034-.383.069-.575.089a8.2,8.2,0,0,1-.822.089,1.9,1.9,0,0,1-.28.021c-.219.014-.438.021-.651.021H145.5c-.212,0-.424-.007-.637-.021a1.457,1.457,0,0,1-.246-.021c-.192-.007-.39-.027-.6-.055a.789.789,0,0,1-.13-.014c-.254-.034-.507-.075-.767-.123-.219-.034-.438-.082-.664-.137a19.689,19.689,0,0,1-3.595-1.212c-.41-.185-.828-.377-1.239-.6-.637-.314-1.273-.671-1.9-1.061-.527-.315-1.048-.657-1.574-1.027-.26-.185-.521-.37-.781-.561-.814-.6-1.622-1.247-2.417-1.945-.219-.2-.438-.4-.657-.6s-.438-.4-.651-.6q-.8-.77-1.561-1.6-.3-.318-.6-.657c-.548-.616-1.082-1.253-1.589-1.917-.2-.239-.383-.486-.568-.733-.691-.917-1.349-1.876-1.965-2.868-.164-.268-.328-.541-.486-.808-.191-.322-.376-.65-.561-.979a37.327,37.327,0,0,1-1.862-3.834c-.083-.191-.164-.383-.233-.575-.109-.246-.205-.5-.294-.747q-.2-.544-.39-1.089c-.123-.362-.24-.733-.356-1.1s-.212-.712-.308-1.075c-.11-.384-.212-.774-.3-1.171-.007-.041-.02-.082-.027-.123q-.195-.822-.349-1.664c-.137-.739-.246-1.492-.329-2.252-.034-.24-.055-.479-.075-.719s-.048-.5-.061-.753c-.035-.458-.055-.924-.069-1.39-.007-.3-.014-.6-.014-.9l4.45,8.75,7.648,3.334,9.044.814h.007l6.7.609h.041l6.271.569h.007l13.988,1.259Z" transform="translate(-117.652 -85.038)" fill="#f2f2f2"/>
        <g id="Gruppe_48" data-name="Gruppe 48" transform="translate(0 43.939)">
          <path id="Pfad_154" data-name="Pfad 154" d="M145.559,137.454l-.007,6.744v.007l-.007,2.362v1.856l-.007,6.162v.007l-.007-.007h-.007l-.007-.007-.014-.007-26.928-13.707c-.007-.041-.02-.082-.027-.123q-.195-.822-.349-1.664c-.137-.739-.246-1.492-.329-2.252-.034-.24-.055-.479-.075-.719s-.048-.5-.061-.753c-.035-.458-.055-.924-.069-1.39-.007-.3-.014-.6-.014-.9v-8.182c0,.117.007.233.007.349,0,.083.007.164.013.246a27.289,27.289,0,0,0,.966,6.135,27.64,27.64,0,0,0,1.746,4.7v.007c1.793,3.731,4.2,6.264,6.408,6.675.137.021.281.035.418.048a24.075,24.075,0,0,0,2.677.151c3.492,0,6.593-2.807,8.545-3.943l.041-.021c.1-.062.206-.124.294-.185a.5.5,0,0,1,.083-.048,13.843,13.843,0,0,1,6.655-1.54Z" transform="translate(-117.652 -124.873)" fill="#f2f2f2"/>
          <path id="Pfad_155" data-name="Pfad 155" d="M187.387,124.871l-.007,8.182a33.489,33.489,0,0,1-.547,6.018c-.144.781-.308,1.554-.5,2.321l-6.319,9.127-20.5,4.06h-.007l-.007.007v-.007l-.021-17.133h.055a13.883,13.883,0,0,1,6.662,1.541.427.427,0,0,1,.075.048c.1.061.2.123.3.184a.158.158,0,0,0,.035.021c1.958,1.137,5.052,3.946,8.545,3.946a24.065,24.065,0,0,0,2.677-.151c.144-.013.28-.027.424-.048,2.2-.411,4.615-2.944,6.4-6.675v-.007a27.641,27.641,0,0,0,1.745-4.7,26.911,26.911,0,0,0,.979-6.47C187.387,125.042,187.387,124.96,187.387,124.871Z" transform="translate(-131.625 -124.871)" fill="#f2f2f2"/>
        </g>
        <ellipse id="Ellipse_37" data-name="Ellipse 37" cx="6.829" cy="2.111" rx="6.829" ry="2.111" transform="translate(21.048 63.266)" fill="#ecc19c"/>
        <path id="Pfad_156" data-name="Pfad 156" d="M171.689,110.954a.23.23,0,0,0-.2-.233,74.117,74.117,0,0,0-10.126-.753c-5.375,0-12.311,1.684-13.523,1.684h-1.075c-.561,0-2.369-.363-4.683-.753a56.042,56.042,0,0,0-8.839-.931,75.557,75.557,0,0,0-8.655.555c-.7.082-1.2.157-1.472.2a.23.23,0,0,0-.2.233l-.055,2.889a.259.259,0,0,0,.151.233l.329.109c.486.185.445,8.894,3.04,11.071,1.54,1.281,2.917,2.013,8.7,2.013,3.348,0,5.457-.9,7.456-3.6,1.438-1.938,2.718-6.518,2.718-6.518a2.278,2.278,0,0,1,1.986-2.054h.055a2.242,2.242,0,0,1,2.047,2.054s1.281,4.58,2.718,6.518c2,2.7,4.108,3.6,7.456,3.6,5.786,0,7.162-.733,8.7-2.013,2.6-2.177,2.554-10.886,3.04-11.071l.328-.109a.258.258,0,0,0,.151-.233Zm-29.146,10.3c-.856,2.013-3.047,4.608-6.142,4.765-9.277.465-9.7-2.122-10.3-4.177a14.108,14.108,0,0,1-.52-5.9c.239-2.054.76-3.259,1.691-3.862a4.182,4.182,0,0,1,1.951-.678,38.465,38.465,0,0,1,5.108-.232,26.381,26.381,0,0,1,4.129.314c3.3.534,5.532,1.658,5.532,2.76A20.669,20.669,0,0,1,142.543,121.258Zm25.97.589c-.6,2.054-1.027,4.642-10.3,4.177-3.095-.158-5.292-2.752-6.141-4.765a20.669,20.669,0,0,1-1.444-7.011c0-1.52,4.224-3.074,9.661-3.074s6.3.4,7.059.91c.931.6,1.451,1.807,1.691,3.862A14.108,14.108,0,0,1,168.512,121.847Z" transform="translate(-119.393 -75.953)" fill="#1a1a1a"/>
        <g id="Gruppe_49" data-name="Gruppe 49">
          <path id="Pfad_157" data-name="Pfad 157" d="M173.467,83.5c-.007,0-.007.007-.014.007h-55.8c0-19.712,13.283-18.918,27.853-17.3h.014l3.115.349a31.21,31.21,0,0,0,24.217-7.668C178.9,63.2,179.971,79.095,173.467,83.5Z" transform="translate(-117.652 -58.89)" fill="#f2f2f2"/>
          <path id="Pfad_158" data-name="Pfad 158" d="M127.375,94.1l-.15.472c-.075.233-.151.465-.233.692-.069.184-.13.37-.205.547a31.8,31.8,0,0,1-5.594,9.366,15.921,15.921,0,0,0-3.519,10.01c-.013.281-.021.562-.021.856V95.268l2.287-.274,2.232-.267,2.629-.315Z" transform="translate(-117.652 -70.654)" fill="#f2f2f2"/>
          <path id="Pfad_159" data-name="Pfad 159" d="M196.706,95.272l-9.72-1.16.151.469a31.456,31.456,0,0,0,6.029,10.6c1.77,2.1,3.539,5.529,3.539,10.87Z" transform="translate(-140.814 -70.656)" fill="#f2f2f2"/>
          <path id="Pfad_160" data-name="Pfad 160" d="M169.827,92.137c0,2.174-9.3,3.937-20.77,3.937s-20.771-1.763-20.771-3.937,9.3-3.936,20.771-3.936S169.827,89.963,169.827,92.137Z" transform="translate(-121.204 -68.682)" fill="#f2f2f2"/>
        </g>
      </g>
    </g>
    <path id="Pfad_676" data-name="Pfad 676" d="M141.27,69.5V188.6H104.976v-.007a36.132,36.132,0,0,1,1.937-11.728q.339-1,.74-1.972v-.007c.26-.651.547-1.287.848-1.917a35.949,35.949,0,0,1,4.423-7.052c.438-.541.884-1.068,1.342-1.575.226-.26.466-.513.705-.766s.479-.493.726-.74a36.264,36.264,0,0,1,3.923-3.382c.692-.513,1.39-.992,2.116-1.458.26-.164.521-.328.788-.486.116-.075.232-.143.349-.212.356-.212.719-.418,1.081-.617a.026.026,0,0,1,.028-.007v-.007c.294-.164.582-.329.869-.5a21.164,21.164,0,0,0,2.445-1.725l.013.014a23.029,23.029,0,0,0,6.087-7.388c-.637-.314-1.273-.671-1.9-1.061-.527-.315-1.048-.657-1.574-1.027-.26-.185-.521-.37-.781-.561-.814-.6-1.622-1.247-2.417-1.945-.219-.2-.438-.4-.657-.6s-.438-.4-.651-.6q-.8-.77-1.561-1.6-.3-.318-.6-.657c-.548-.616-1.082-1.253-1.589-1.917-.2-.239-.383-.485-.568-.733-.691-.917-1.349-1.876-1.965-2.868-.164-.268-.328-.541-.486-.808-.191-.322-.376-.65-.561-.979a37.33,37.33,0,0,1-1.862-3.834c-.083-.191-.164-.383-.233-.575-.109-.246-.205-.5-.294-.747q-.2-.544-.39-1.089c-.123-.362-.24-.733-.356-1.1s-.212-.712-.308-1.075c-.11-.384-.212-.774-.3-1.171-.007-.041-.02-.082-.027-.123q-.195-.822-.349-1.664c-.137-.739-.246-1.492-.329-2.252-.034-.24-.055-.479-.075-.719s-.048-.5-.061-.753c-.035-.458-.055-.924-.069-1.39-.007-.3-.014-.6-.014-.9V86.8C113.417,67.086,126.7,67.88,141.27,69.5Z" transform="translate(198.375 754.088)" fill="#ecc19c" opacity="0.5"/>
    <circle id="Ellipse_61" data-name="Ellipse 61" cx="62.648" cy="62.648" r="62.648" transform="translate(276.999 809)" fill="none"/>
  </g>
</svg>
