<svg xmlns="http://www.w3.org/2000/svg" viewBox="0 0 73.476 126.416">
  <g id="Gruppe_632" data-name="Gruppe 632" transform="translate(-693.916 -908.753)">
    <g id="Gruppe_6" data-name="Gruppe 6" transform="translate(693.916 908.753)">
      <g id="Gruppe_5" data-name="Gruppe 5">
        <path id="Pfad_32" data-name="Pfad 32" d="M177.607,463.08v.007H104.968v-.007a36.133,36.133,0,0,1,1.937-11.729q.34-1,.74-1.972v-.007c.26-.651.547-1.287.848-1.917a35.951,35.951,0,0,1,4.423-7.052c.438-.541.884-1.068,1.342-1.575.226-.26.466-.513.705-.767s.479-.493.726-.74a36.261,36.261,0,0,1,3.923-3.382c.692-.513,1.391-.992,2.116-1.458.308-.2.623-.391.938-.575l.547-.329c.083-.041.158-.082.24-.13.164-.1.329-.185.493-.274a.041.041,0,0,1,.027-.014c.294-.157.581-.328.869-.507a21.54,21.54,0,0,0,2.458-1.712,22.865,22.865,0,0,0,3.157-3.047,23.3,23.3,0,0,0,4.17-7.169,21.953,21.953,0,0,0,.644-2.143c.137-.513.246-1.034.342-1.561a23.278,23.278,0,0,0,.356-4.053l5.292.027h.027l.924.007,4.492.021A23.059,23.059,0,0,0,147.05,415c.089.534.205,1.062.342,1.582a21.517,21.517,0,0,0,.623,2.109,23.131,23.131,0,0,0,7.3,10.256c.26.212.521.418.788.609.24.178.486.35.733.513.055.041.1.075.157.11.246.164.493.328.753.479.281.171.569.342.856.5a.36.36,0,0,1,.124.062c.6.335,1.2.685,1.78,1.048.28.171.561.349.835.547.568.363,1.123.76,1.664,1.171a.007.007,0,0,0,.007.007h.007c.691.513,1.363,1.061,2.02,1.622s1.287,1.151,1.9,1.76A36.135,36.135,0,0,1,177.607,463.08Z" transform="translate(-104.55 -336.671)" fill="#ecc19c"/>
        <path id="Pfad_33" data-name="Pfad 33" d="M177.607,472.088H104.968a36.133,36.133,0,0,1,1.937-11.729q.34-1,.74-1.972v-.007c.26-.651.547-1.287.848-1.917a35.951,35.951,0,0,1,4.423-7.052c.438-.541.884-1.068,1.342-1.575.226-.26.466-.513.705-.767s.479-.493.726-.74a36.261,36.261,0,0,1,3.923-3.382c.692-.513,1.391-.992,2.116-1.458.308-.2.623-.391.938-.575l.547-.329c.083-.041.158-.082.24-.13.164-.1.329-.192.493-.281a.025.025,0,0,1,.027-.007v-.007c.294-.164.581-.329.869-.5a21.162,21.162,0,0,0,2.445-1.726l.013.014a19.515,19.515,0,0,0,13.961,5.9h.055c.3,0,.6-.007.9-.027a19.515,19.515,0,0,0,13.1-5.861l.007-.007a18.4,18.4,0,0,0,1.513,1.129c.055.041.1.075.157.11.246.164.5.322.753.479.281.171.569.335.856.493a.711.711,0,0,1,.124.061c.6.336,1.2.685,1.78,1.055.28.171.561.349.835.547.568.363,1.123.76,1.664,1.171h.014c.691.521,1.369,1.062,2.02,1.63s1.287,1.151,1.9,1.76A36.135,36.135,0,0,1,177.607,472.088Z" transform="translate(-104.55 -345.679)" fill="#4bcffa"/>
        <path id="Pfad_34" data-name="Pfad 34" d="M164.9,422.5v4.17a3.031,3.031,0,0,1-.561,1.767,3.073,3.073,0,0,1-2.54,1.335H145.185a3.116,3.116,0,0,1-3.1-3.1V422.5a3.106,3.106,0,0,1,3.1-3.1H161.8a3,3,0,0,1,1.664.493A3.082,3.082,0,0,1,164.9,422.5Z" transform="translate(-116.948 -339.487)" fill="#4bcffa"/>
        <path id="Pfad_35" data-name="Pfad 35" d="M164.979,435.43v9.093H131.545v-6.744l.547-.329c.083-.041.158-.082.24-.13.164-.1.329-.185.493-.274a.041.041,0,0,1,.027-.014c.294-.157.581-.328.869-.507a21.535,21.535,0,0,0,2.458-1.712,22.866,22.866,0,0,0,3.157-3.047,22.364,22.364,0,0,0,2.3-3.218h17.117a22.138,22.138,0,0,0,2.068,2.944,22.413,22.413,0,0,0,3.368,3.327C164.452,435.033,164.712,435.238,164.979,435.43Z" transform="translate(-113.427 -342.544)" fill="#4bcffa"/>
        <path id="Pfad_36" data-name="Pfad 36" d="M177.816,338.816c0,15.022-7.84,28.086-19.378,34.728a34.69,34.69,0,0,1-11.6,4.19,33.278,33.278,0,0,1-4.834.473c-.308.007-.616.013-.924.013h-.007a34.485,34.485,0,0,1-17.35-4.67c-11.537-6.634-19.384-19.706-19.384-34.735,0-21.219,15.625-38.521,35.207-39.37a.288.288,0,0,1,.075-.007l.575-.021c.288-.007.568-.013.856-.013h.027c.294,0,.589.007.883.013h.062c.205.007.411.014.616.027h.021l.288.021.349.021C162.553,300.726,177.816,317.85,177.816,338.816Z" transform="translate(-104.34 -299.405)" fill="#141720"/>
        <path id="Pfad_37" data-name="Pfad 37" d="M173.4,327.279V348.1c0,.3-.007.6-.014.9-.007.246-.014.486-.027.733q-.01.329-.041.657c-.007.157-.021.315-.034.472-.007.1-.014.185-.027.281-.014.171-.027.349-.055.52-.027.329-.068.651-.116.979-.007.083-.021.164-.035.246-.021.164-.048.329-.075.493v.021c-.041.239-.082.472-.123.712-.062.328-.123.657-.192.979-.007.014-.007.027-.013.041a1.1,1.1,0,0,1-.028.144c-.007.013-.007.027-.013.041-.034.178-.075.35-.117.521a1.324,1.324,0,0,1-.055.226c-.021.123-.055.246-.082.37-.021.069-.035.144-.062.212s-.035.123-.048.178c-.144.561-.308,1.109-.479,1.657-.082.26-.164.513-.253.774-.007.027-.021.055-.027.083q-.124.349-.246.7c-.027.069-.055.137-.083.212-.082.219-.164.438-.253.657-.1.267-.212.527-.322.787-.1.233-.2.466-.3.7-.013.041-.034.075-.048.117-.116.246-.226.493-.342.733s-.24.507-.37.76c-.246.5-.513,1-.781,1.486l-.37.657a40.321,40.321,0,0,1-3.5,5.094q-.257.34-.534.658c-.253.308-.513.609-.774.9-.219.246-.445.5-.678.739a.1.1,0,0,1-.027.034c-.657.705-1.328,1.377-2.013,2.007-.137.137-.281.26-.425.39-.232.212-.465.418-.705.616-.184.165-.376.322-.568.479-.493.4-.986.794-1.486,1.157-.206.157-.418.308-.63.452-.342.246-.692.479-1.041.705-.192.13-.39.253-.589.37a.749.749,0,0,1-.1.055c-.664.41-1.342.787-2.007,1.116-.171.089-.342.171-.513.254s-.349.164-.534.246q-.339.154-.677.288a2.241,2.241,0,0,1-.267.1c-.267.109-.541.212-.808.3-.335.123-.677.226-1.013.322-.233.069-.473.131-.705.185a.1.1,0,0,1-.048.014c-.233.055-.466.109-.7.15a1.785,1.785,0,0,1-.184.034c-.192.035-.384.069-.575.089-.274.041-.548.075-.822.089a1.982,1.982,0,0,1-.28.02c-.219.014-.432.021-.644.021H145.5c-.212,0-.424-.007-.637-.021a1.535,1.535,0,0,1-.246-.02c-.192-.007-.39-.028-.6-.055a.869.869,0,0,1-.13-.013c-.253-.035-.507-.075-.767-.123-.219-.035-.438-.083-.664-.137a19.69,19.69,0,0,1-3.595-1.212,26.257,26.257,0,0,1-3.143-1.657c-.061-.034-.116-.075-.178-.109-.466-.288-.938-.6-1.4-.918-.26-.185-.521-.37-.781-.561q-1.222-.894-2.417-1.945c-.219-.2-.438-.4-.657-.6s-.438-.4-.651-.6c-.506-.487-1-.986-1.472-1.514a1.125,1.125,0,0,1-.089-.089q-.3-.319-.6-.657c-.548-.617-1.082-1.253-1.588-1.917-.2-.24-.384-.486-.569-.733q-1.037-1.377-1.965-2.869c-.164-.267-.328-.541-.485-.808-.192-.322-.377-.651-.562-.98a37.322,37.322,0,0,1-1.862-3.834c-.082-.192-.164-.384-.233-.575-.109-.246-.205-.5-.294-.746q-.2-.544-.39-1.089c-.123-.363-.24-.733-.356-1.1s-.212-.713-.308-1.076c-.11-.383-.212-.773-.3-1.171-.007-.041-.021-.082-.028-.123q-.195-.821-.349-1.664c-.137-.74-.246-1.492-.328-2.253-.035-.24-.055-.479-.076-.719s-.047-.5-.061-.753c-.035-.459-.055-.924-.069-1.39-.007-.3-.013-.6-.013-.9V327.279a27.878,27.878,0,0,1,26.347-27.833.288.288,0,0,1,.075-.007l.575-.021c.288-.007.568-.013.856-.013h.027c.294,0,.589.007.883.013h.062c.205.007.411.014.616.027h.021l.288.021c.205.014.411.027.609.048.1.007.2.014.3.027l.2.021a28.552,28.552,0,0,1,3.2.527,27.885,27.885,0,0,1,21.691,26.943C173.4,327.114,173.4,327.2,173.4,327.279Z" transform="translate(-108.784 -299.405)" fill="#ecc19c"/>
        <path id="Pfad_38" data-name="Pfad 38" d="M176.5,337.6H108.319c0-20.52,14.441-37.255,32.558-38.152a.288.288,0,0,1,.075-.007l.575-.021c.288-.007.568-.013.856-.013h.027c.294,0,.589.007.883.013h.062c.205.007.411.014.616.027h.021l.288.021.349.021c.083.007.171.013.26.027s.2.014.3.027l.2.021C162.821,301.246,176.5,317.632,176.5,337.6Z" transform="translate(-105.669 -299.405)" fill="#141720"/>
      </g>
      <path id="Pfad_39" data-name="Pfad 39" d="M142.006,299.418v126.4H104.758v-.007a36.133,36.133,0,0,1,1.937-11.729q.34-1,.74-1.972v-.007c.26-.651.547-1.287.848-1.917a35.951,35.951,0,0,1,4.423-7.053c.438-.541.884-1.068,1.342-1.575.226-.26.466-.513.705-.767s.479-.493.726-.74a36.264,36.264,0,0,1,3.923-3.382c.692-.513,1.391-.992,2.116-1.458.308-.2.623-.391.938-.575l.547-.329c.083-.041.158-.082.24-.13.164-.1.329-.192.493-.281a.025.025,0,0,1,.027-.007v-.007c.294-.165.581-.329.869-.5a21.155,21.155,0,0,0,2.445-1.726l.013.014a22.865,22.865,0,0,0,3.157-3.047,3.09,3.09,0,0,1-.774-2.041v-4.17a3.093,3.093,0,0,1,1.623-2.725c-.466-.288-.938-.6-1.4-.918-.26-.185-.521-.37-.781-.561q-1.222-.894-2.417-1.945c-.219-.2-.438-.4-.657-.6s-.438-.4-.651-.6c-.506-.487-1-.986-1.472-1.514-11.537-6.634-19.384-19.706-19.384-34.735,0-21.219,15.625-38.521,35.207-39.37a.288.288,0,0,1,.075-.007l.575-.021c.288-.007.568-.013.856-.013h.027c.294,0,.589.007.883.013Z" transform="translate(-104.34 -299.405)" fill="#ecc19c" opacity="0.5"/>
    </g>
  </g>
</svg>
