<svg xmlns="http://www.w3.org/2000/svg" viewBox="0 0 72.639 123.975">
  <g id="Gruppe_630" data-name="Gruppe 630" transform="translate(-923.255 -727.645)">
    <g id="Gruppe_628" data-name="Gruppe 628">
      <path id="Pfad_40" data-name="Pfad 40" d="M403.516,190.561H403.5a35.192,35.192,0,0,0-4.282-2.77.392.392,0,0,0-.127-.063A22.976,22.976,0,0,1,387.2,167.59l-10.736-.051a22.976,22.976,0,0,1-11.994,20.189.039.039,0,0,0-.025.013,37.483,37.483,0,0,0-4.333,2.77,36.244,36.244,0,0,0-14.649,29.147H418.1A36.23,36.23,0,0,0,403.516,190.561Z" transform="translate(577.792 631.96)" fill="#ecc19c"/>
      <path id="Pfad_41" data-name="Pfad 41" d="M418.1,228.661H345.464a36.243,36.243,0,0,1,14.649-29.146,37.392,37.392,0,0,1,4.333-2.77.039.039,0,0,1,.025-.013,22.59,22.59,0,0,0,3.316-2.224,19.59,19.59,0,0,0,28.028.013,21.175,21.175,0,0,0,3.278,2.211.393.393,0,0,1,.127.063,35.268,35.268,0,0,1,4.282,2.77h.013A36.233,36.233,0,0,1,418.1,228.661Z" transform="translate(577.793 622.951)" fill="#0fbcf9"/>
      <path id="Pfad_42" data-name="Pfad 42" d="M358.143,86.254v28.527c0,19.3,16.94,34.94,27.875,34.94s27.876-15.643,27.876-34.94V86.254Z" transform="translate(573.557 659.112)" fill="#ecc19c"/>
      <path id="Pfad_43" data-name="Pfad 43" d="M405.553,72.114a32.739,32.739,0,0,0-25.615-12.47c-18.327,0-33.172,15.3-33.172,34.164A34.5,34.5,0,0,0,357.6,119.069a38.478,38.478,0,0,1-2.676-14.238,36.877,36.877,0,0,1,6.631-21.475c4.393,1.952,11.511,2.659,19.32,1.582,7.742-1.06,14.339-3.618,18.058-6.664,6.783,5.991,11.192,15.651,11.192,26.557a37.963,37.963,0,0,1-3.2,15.45c6.547-2.71,11.36-12.37,11.36-23.865C418.292,84.114,412.772,73.966,405.553,72.114Z" transform="translate(577.358 668.001)" fill="#494846"/>
      <path id="Pfad_44" data-name="Pfad 44" d="M382.093,59.75V183.619H345.462v-.007a36.163,36.163,0,0,1,9.292-24.259,36.648,36.648,0,0,1,5.361-4.889,37.773,37.773,0,0,1,3.211-2.129c.37-.219.747-.432,1.123-.637a.024.024,0,0,1,.021-.013c.294-.164.582-.329.87-.507a20.938,20.938,0,0,0,2.451-1.719l.014.014a23.013,23.013,0,0,0,7.32-10.223c-7.306-3.225-15.194-11.1-18.959-21.171a34.516,34.516,0,0,1-9.832-24.272c0-18.863,14.844-34.16,33.174-34.16Q380.809,59.647,382.093,59.75Z" transform="translate(577.793 668)" fill="#ecc19c" opacity="0.5"/>
    </g>
  </g>
</svg>
