<svg xmlns="http://www.w3.org/2000/svg" viewBox="0 0 72.436 123.142">
  <g id="Gruppe_635" data-name="Gruppe 635" transform="translate(-1153.118 -1091.001)">
    <g id="Gruppe_26" data-name="Gruppe 26" transform="translate(1153.118 1091.002)">
      <path id="Pfad_96" data-name="Pfad 96" d="M658.367,700.509v.007H585.931v-.007a36.081,36.081,0,0,1,10.686-25.689c.308-.307.615-.6.936-.895a35.674,35.674,0,0,1,2.984-2.479c.683-.512,1.393-.99,2.11-1.455s1.455-.9,2.212-1.311a.043.043,0,0,1,.027-.013c.294-.164.581-.328.867-.505a20.987,20.987,0,0,0,2.451-1.7,22.958,22.958,0,0,0,7.306-10.188v-.007a22.78,22.78,0,0,0,1.338-7.73l10.707.048a22.816,22.816,0,0,0,8.584,17.884c.225.185.458.362.689.533.321.239.649.472.976.69.246.163.5.327.751.478.28.171.567.341.854.5a.187.187,0,0,1,.068.027l.062.041q1.26.7,2.451,1.474c.266.171.533.349.792.533.341.246.689.492,1.024.751h.013A36.122,36.122,0,0,1,658.367,700.509Z" transform="translate(-585.931 -577.376)" fill="#a57561"/>
      <path id="Pfad_97" data-name="Pfad 97" d="M658.367,709.574H585.931a36.081,36.081,0,0,1,10.686-25.689c.308-.307.615-.6.936-.895a35.776,35.776,0,0,1,2.984-2.485c.683-.505,1.393-.99,2.11-1.448s1.455-.9,2.212-1.311a.043.043,0,0,1,.027-.013c.294-.164.581-.328.867-.505a21,21,0,0,0,2.451-1.7,19.539,19.539,0,0,0,27.935.007c.225.185.458.362.689.533.321.239.649.472.976.69.246.163.5.327.751.478.28.177.567.341.854.5a.187.187,0,0,1,.068.027.283.283,0,0,1,.062.034q1.26.7,2.451,1.482c.266.171.533.349.792.533.341.246.689.491,1.024.751h.013A36.122,36.122,0,0,1,658.367,709.574Z" transform="translate(-585.931 -586.44)" fill="#ffa801"/>
      <path id="Pfad_98" data-name="Pfad 98" d="M598.608,575.97v22.66c0,19.245,16.894,34.846,27.8,34.846s27.8-15.6,27.8-34.846V575.97Z" transform="translate(-590.189 -553.004)" fill="#a57561"/>
      <path id="Pfad_99" data-name="Pfad 99" d="M598.608,596.76h0a2.48,2.48,0,0,0,2.479-2.48V578.517h-2.479Z" transform="translate(-590.189 -553.86)" fill="#141720"/>
      <path id="Pfad_100" data-name="Pfad 100" d="M681.069,596.76h0V578.517h-2.48V594.28A2.48,2.48,0,0,0,681.069,596.76Z" transform="translate(-617.05 -553.86)" fill="#141720"/>
      <path id="Pfad_101" data-name="Pfad 101" d="M654.205,565.368c0,3.243-.218,4.025-2.48,3.852-.091-1.572-11.384-2.853-25.312-2.853s-25.23,1.281-25.321,2.853c-2.262.173-2.48-.609-2.48-3.852,0-.318.009-.654.018-1.009.345-8,4.86-22.968,27.783-22.968s27.429,14.963,27.774,22.968C654.2,564.714,654.205,565.05,654.205,565.368Z" transform="translate(-590.19 -541.391)" fill="#141720"/>
    </g>
    <path id="Pfad_102" data-name="Pfad 102" d="M647.4,675.28A44.653,44.653,0,0,1,633.433,695.4a44.64,44.64,0,0,1-13.964-20.123c.034.014.075.027.109.041a20.764,20.764,0,0,0,27.7.007C647.322,675.315,647.363,675.294,647.4,675.28Z" transform="translate(555.924 504.645)" fill="#fff"/>
    <path id="Pfad_103" data-name="Pfad 103" d="M622.155,541.391V664.53H585.931v-.007a36.027,36.027,0,0,1,10.694-25.683c.726-.733,1.5-1.43,2.287-2.1.527-.44,1.07-.872,1.627-1.282a36.075,36.075,0,0,1,3.2-2.126q.561-.33,1.121-.638a.016.016,0,0,1,.022-.007v-.007a22.39,22.39,0,0,0,3.306-2.214l.015.015a22.958,22.958,0,0,0,7.308-10.2c-10.027-4.42-21.161-17.635-21.161-33.263V564.355h.022C594.72,556.351,599.235,541.391,622.155,541.391Z" transform="translate(567.187 549.611)" fill="#ecc19c" opacity="0.5"/>
  </g>
</svg>
