<svg xmlns="http://www.w3.org/2000/svg" viewBox="0 0 92.439 124.613">
  <g id="Gruppe_634" data-name="Gruppe 634" transform="translate(-1140.988 -909.601)">
    <g id="Gruppe_18" data-name="Gruppe 18" transform="translate(1140.988 909.601)">
      <path id="Pfad_54" data-name="Pfad 54" d="M658.787,385.6v58.055L585.225,442.4V384.346Z" transform="translate(-573.564 -329.391)" fill="#421800"/>
      <path id="Pfad_55" data-name="Pfad 55" d="M654.246,332.691V349.81c0,.3-.007.6-.014.9-.007.246-.013.485-.027.731-.007.218-.021.437-.041.656-.007.157-.021.314-.035.472-.007.095-.013.184-.027.28-.014.171-.027.348-.054.519-.027.327-.068.648-.116.976-.007.082-.021.163-.034.246-.021.164-.048.327-.076.491v.021c-.041.239-.082.471-.123.71-.061.328-.123.656-.191.976-.007.014-.007.028-.013.041a1.1,1.1,0,0,1-.027.143c-.007.014-.007.027-.014.041-.034.177-.075.348-.116.519a1.324,1.324,0,0,1-.054.225c-.021.124-.054.246-.082.369-.021.068-.035.143-.062.211s-.034.123-.048.178c-.143.56-.307,1.106-.478,1.652-.082.259-.164.512-.253.772-.007.027-.021.054-.027.082l-.246.7c-.027.068-.054.136-.082.211-.082.219-.164.437-.253.656-.1.266-.212.526-.321.786-.1.232-.2.464-.3.7-.014.041-.035.076-.048.116-.116.246-.226.492-.341.731s-.239.505-.369.758c-.246.5-.512,1-.778,1.481l-.369.656a40.122,40.122,0,0,1-3.49,5.081q-.256.338-.533.656c-.252.307-.512.608-.771.9-.218.246-.444.5-.676.737a.14.14,0,0,1-.027.035q-.983,1.055-2.008,2c-.137.137-.28.26-.424.389-.232.212-.464.416-.7.615-.184.163-.375.321-.567.478-.491.4-.983.792-1.482,1.154-.2.157-.416.307-.628.45-.341.246-.689.478-1.038.7-.191.13-.389.253-.587.369-.7.43-1.4.826-2.1,1.168-.171.088-.341.171-.512.252s-.349.164-.533.246c-.225.1-.451.2-.676.287a2.1,2.1,0,0,1-.266.1c-.266.11-.539.212-.806.3-.335.123-.676.225-1.011.321-.232.068-.471.129-.7.185a.1.1,0,0,1-.048.013c-.232.054-.464.11-.7.15a1.8,1.8,0,0,1-.184.034c-.191.034-.383.068-.574.088-.273.041-.546.075-.819.089a1.9,1.9,0,0,1-.28.021c-.219.013-.43.021-.642.021h-.027c-.211,0-.423-.007-.635-.021a1.465,1.465,0,0,1-.246-.021c-.191-.007-.389-.027-.594-.055a.864.864,0,0,1-.13-.014c-.252-.034-.505-.075-.764-.123-.219-.034-.437-.082-.663-.137a19.627,19.627,0,0,1-3.584-1.208,26.238,26.238,0,0,1-3.134-1.652c-.526-.321-1.052-.663-1.571-1.025-.26-.184-.519-.369-.778-.56-.813-.594-1.619-1.243-2.41-1.939-.219-.2-.437-.4-.656-.6s-.436-.4-.648-.6c-.505-.485-1-.984-1.469-1.509a1.12,1.12,0,0,1-.088-.089q-.3-.318-.594-.656c-.546-.614-1.079-1.249-1.584-1.912-.2-.239-.383-.485-.567-.731q-1.035-1.373-1.96-2.861c-.164-.266-.328-.539-.485-.806-.191-.321-.376-.649-.56-.976a37.38,37.38,0,0,1-1.858-3.824c-.082-.191-.164-.382-.232-.573-.109-.246-.205-.5-.294-.745q-.205-.543-.389-1.086c-.124-.362-.239-.731-.355-1.1s-.212-.71-.308-1.072c-.109-.383-.212-.772-.3-1.168-.007-.041-.021-.082-.027-.123q-.2-.82-.349-1.66c-.136-.737-.246-1.488-.327-2.246-.034-.239-.054-.478-.075-.717s-.048-.5-.062-.751c-.034-.458-.055-.922-.068-1.386-.007-.3-.013-.6-.013-.9V332.691a27.8,27.8,0,0,1,26.275-27.758.292.292,0,0,1,.076-.007l.573-.021c.287-.007.567-.014.853-.014h.027c.294,0,.588.007.881.014.225.007.45.013.676.027h.02a28.049,28.049,0,0,1,4.582.642,27.811,27.811,0,0,1,21.633,26.87C654.246,332.527,654.246,332.609,654.246,332.691Z" transform="translate(-578.07 -302.707)" fill="#f0d0b4"/>
      <path id="Pfad_56" data-name="Pfad 56" d="M658.408,462.936v.007H585.965v-.007a36.016,36.016,0,0,1,1.9-11.595c.014-.034.021-.068.035-.1q.338-.993.737-1.967v-.007c.26-.649.546-1.284.847-1.912a35.792,35.792,0,0,1,4.411-7.033c.437-.539.881-1.065,1.338-1.57.225-.26.464-.512.7-.765s.478-.491.724-.737a35.9,35.9,0,0,1,3.912-3.373c.689-.512,1.386-.99,2.11-1.455.1-.062.191-.123.287-.177.266-.171.532-.335.806-.492.369-.218.744-.43,1.12-.635a.042.042,0,0,1,.027-.013c.294-.157.58-.328.867-.505a21.539,21.539,0,0,0,2.451-1.708,22.845,22.845,0,0,0,8.645-17.924l5.278.027h.089l5.34.027a23.069,23.069,0,0,0,.341,3.968,22.571,22.571,0,0,0,.963,3.68,22.87,22.87,0,0,0,7.279,10.229,18.516,18.516,0,0,0,1.516,1.12c.054.041.1.075.157.109.246.164.492.328.751.478.28.171.567.341.853.5a.345.345,0,0,1,.123.061c.6.335,1.195.683,1.775,1.045a1.447,1.447,0,0,1,.137.089c.232.143.471.294.7.458.567.361,1.12.758,1.66,1.168a.007.007,0,0,0,.007.007h.007c.69.512,1.359,1.059,2.014,1.619s1.284,1.147,1.891,1.755a36.068,36.068,0,0,1,10.646,25.634Z" transform="translate(-573.813 -338.331)" fill="#f0d0b4"/>
      <path id="Pfad_57" data-name="Pfad 57" d="M658.408,471.993H585.965a36.016,36.016,0,0,1,1.9-11.595c.014-.034.021-.068.035-.1q.338-.993.737-1.967v-.007c.26-.649.546-1.284.847-1.912a35.792,35.792,0,0,1,4.411-7.033c.437-.539.881-1.065,1.338-1.57.225-.26.464-.512.7-.765s.478-.491.724-.737a35.9,35.9,0,0,1,3.912-3.373c.689-.512,1.386-.99,2.11-1.455.1-.062.191-.123.287-.177.266-.171.532-.335.806-.492.369-.225.744-.437,1.12-.642a.023.023,0,0,1,.027-.007v-.007c.294-.163.58-.327.867-.5a21.172,21.172,0,0,0,2.437-1.721l.014.013a19.46,19.46,0,0,0,13.923,5.88h.089a19.494,19.494,0,0,0,13.923-5.872l.007-.007a18.375,18.375,0,0,0,1.509,1.127c.054.041.1.075.157.109.246.164.5.321.751.478.28.171.567.335.853.491a.712.712,0,0,1,.123.062c.6.335,1.195.683,1.775,1.051a1.447,1.447,0,0,1,.137.089c.232.143.471.294.7.458.567.361,1.12.758,1.66,1.168h.013c.69.519,1.366,1.058,2.014,1.625s1.284,1.147,1.891,1.755a36.068,36.068,0,0,1,10.646,25.634Z" transform="translate(-573.813 -347.388)" fill="#ef5777"/>
      <path id="Pfad_58" data-name="Pfad 58" d="M653.048,406.175a.589.589,0,0,1-.157.048c-3.592.935-17.754-16.131-17.9-34.021a33.221,33.221,0,0,1,.253-4.343c.478-3.858,2.335-7.566,3.878-11.3a23.927,23.927,0,0,0,2.247-8.979c0-16.389-4.753-11.049-18.007-19.891-3.2-2.131-5.477-3.879-7.259-5.3-4.923-3.906-6.173-5.306-12.926-5.306-8.59,0-12,14.92-12.98,21.3a56.684,56.684,0,0,0,3.216,28.577c3.317,8.207,3.319,16.252-3.216,25.19-2.451,3.353-6.207,14.681-10.871,18.334a4.051,4.051,0,0,1-4.609.711c-12.742-6.521-5.073-27.451-1.25-40.554,4.118-14.1,5.36-28.393,8.351-42.63,3.373-16.033,17.1-25.8,22.643-21.844,1.851-3.319,6.692-4.561,11.643-4.561a29.055,29.055,0,0,1,9.942,1.694c20.246,7.86,20.588,26.624,21.666,34.428.888,6.446,4.063,12.469,5.176,18.833v.021a24.023,24.023,0,0,1,.389,4.084c.048,7.45-.786,12.489,4.876,18.7C662.451,384.062,659.166,403.491,653.048,406.175Z" transform="translate(-567.667 -301.602)" fill="#421800"/>
      <g id="Gruppe_17" data-name="Gruppe 17" transform="translate(29.155 90.545)">
        <path id="Pfad_59" data-name="Pfad 59" d="M630.849,443.826l-.021.034-.007.014a9.88,9.88,0,0,1-15.549,1.4l-3.707-3.974c.628-.4,1.27-.779,1.925-1.134a.023.023,0,0,1,.027-.007v-.007c.294-.163.58-.327.867-.5a21.168,21.168,0,0,0,2.437-1.721l.014.013a19.46,19.46,0,0,0,13.923,5.88Z" transform="translate(-611.566 -437.933)" fill="#e7ecf2"/>
        <path id="Pfad_60" data-name="Pfad 60" d="M659.836,441.361l-3.653,3.919a9.88,9.88,0,0,1-15.549-1.4l-.007-.014-.027-.034a19.494,19.494,0,0,0,13.923-5.872l.007-.007a18.375,18.375,0,0,0,1.509,1.127c.054.041.1.075.157.109.246.164.5.321.751.478.28.171.567.335.853.491a.714.714,0,0,1,.123.062c.6.335,1.195.683,1.775,1.051A1.439,1.439,0,0,1,659.836,441.361Z" transform="translate(-621.317 -437.94)" fill="#e7ecf2"/>
      </g>
    </g>
    <path id="Pfad_61" data-name="Pfad 61" d="M616.106,301.6V426.214H579.82v-.007a36.015,36.015,0,0,1,1.9-11.595h-2.39v-4.131a4.051,4.051,0,0,1-4.609.711c-12.742-6.521-5.073-27.451-1.25-40.554,4.118-14.1,5.36-28.393,8.351-42.63,3.373-16.033,17.1-25.8,22.643-21.844C606.314,302.845,611.155,301.6,616.106,301.6Z" transform="translate(573.321 607.999)" fill="#f0d0b4" opacity="0.5"/>
  </g>
</svg>
