<svg xmlns="http://www.w3.org/2000/svg" viewBox="0 0 72.64 129.737">
  <g id="Gruppe_636" data-name="Gruppe 636" transform="translate(-924.332 -1086.964)">
    <g id="Gruppe_35" data-name="Gruppe 35" transform="translate(924.332 1086.964)">
      <g id="Gruppe_31" data-name="Gruppe 31" transform="translate(4.314 37.303)">
        <g id="Gruppe_30" data-name="Gruppe 30">
          <path id="Pfad_104" data-name="Pfad 104" d="M360.2,675.127c0,2.65-1.048,4.93-2.547,5.888a2.816,2.816,0,0,1-3.163,0c-1.5-.958-2.547-3.239-2.547-5.888a8.72,8.72,0,0,1,.773-3.7c.74-1.622,1.965-2.676,3.355-2.676s2.616,1.054,3.355,2.676A8.72,8.72,0,0,1,360.2,675.127Z" transform="translate(-351.943 -616.928)" fill="#141720"/>
          <path id="Pfad_105" data-name="Pfad 105" d="M360.2,664.013a8.723,8.723,0,0,1-.774,3.7c-.747,1.616-1.972,2.664-3.355,2.664s-2.609-1.048-3.355-2.664a9.259,9.259,0,0,1,0-7.408c.747-1.616,1.972-2.671,3.355-2.671s2.609,1.055,3.355,2.671A8.726,8.726,0,0,1,360.2,664.013Z" transform="translate(-351.943 -613.215)" fill="#141720"/>
          <path id="Pfad_106" data-name="Pfad 106" d="M360.2,652.889a8.725,8.725,0,0,1-.774,3.7c-.747,1.616-1.972,2.671-3.355,2.671s-2.609-1.054-3.355-2.671a9.243,9.243,0,0,1,0-7.4c.74-1.623,1.965-2.677,3.355-2.677s2.616,1.054,3.355,2.677A8.717,8.717,0,0,1,360.2,652.889Z" transform="translate(-351.943 -609.499)" fill="#141720"/>
          <path id="Pfad_107" data-name="Pfad 107" d="M360.2,641.775a8.726,8.726,0,0,1-.774,3.7c-.747,1.616-1.972,2.671-3.355,2.671s-2.609-1.055-3.355-2.671a9.243,9.243,0,0,1,0-7.4c.74-1.623,1.965-2.677,3.355-2.677s2.616,1.054,3.355,2.677A8.717,8.717,0,0,1,360.2,641.775Z" transform="translate(-351.943 -605.787)" fill="#141720"/>
          <path id="Pfad_108" data-name="Pfad 108" d="M360.2,630.653a9.231,9.231,0,0,1-.226,2.075,7.79,7.79,0,0,1-.548,1.636c-.747,1.616-1.972,2.663-3.355,2.663s-2.609-1.048-3.355-2.663a9.261,9.261,0,0,1,0-7.409c.74-1.616,1.965-2.67,3.355-2.67a2.791,2.791,0,0,1,.89.151,4.475,4.475,0,0,1,2.465,2.519A8.719,8.719,0,0,1,360.2,630.653Z" transform="translate(-351.943 -602.074)" fill="#141720"/>
          <path id="Pfad_109" data-name="Pfad 109" d="M360.2,619.536a8.724,8.724,0,0,1-.774,3.7,5.49,5.49,0,0,1-1.2,1.726,3.117,3.117,0,0,1-2.157.945c-1.383,0-2.609-1.054-3.355-2.671a9.243,9.243,0,0,1,0-7.4c.74-1.622,1.965-2.677,3.355-2.677s2.616,1.055,3.355,2.677A8.719,8.719,0,0,1,360.2,619.536Z" transform="translate(-351.943 -598.358)" fill="#141720"/>
          <path id="Pfad_110" data-name="Pfad 110" d="M360.2,608.422c0,.075,0,.15-.007.219a8.637,8.637,0,0,1-.767,3.485,4.215,4.215,0,0,1-2.91,2.629,2.407,2.407,0,0,1-.446.041c-1.383,0-2.609-1.054-3.355-2.671a9.259,9.259,0,0,1,0-7.408,5.787,5.787,0,0,1,1.034-1.568,3.217,3.217,0,0,1,2.321-1.1c1.383,0,2.609,1.054,3.355,2.671A8.726,8.726,0,0,1,360.2,608.422Z" transform="translate(-351.943 -594.645)" fill="#141720"/>
          <path id="Pfad_111" data-name="Pfad 111" d="M360.2,597.3a8.728,8.728,0,0,1-.774,3.7,4.209,4.209,0,0,1-2.93,2.636c-.007-.007-.007,0-.007,0a2.768,2.768,0,0,1-.418.035c-1.383,0-2.609-1.055-3.355-2.671a8.728,8.728,0,0,1-.773-3.7,9.383,9.383,0,0,1,.274-2.28c.6-2.389,2.1-4.088,3.855-4.088C358.352,590.933,360.2,593.781,360.2,597.3Z" transform="translate(-351.943 -590.933)" fill="#141720"/>
        </g>
        <path id="Pfad_112" data-name="Pfad 112" d="M360.156,692.653h-8.08l2.458-8.107,1.582-5.224,1.582,5.224.767,2.52Z" transform="translate(-351.988 -620.458)" fill="#141720"/>
      </g>
      <g id="Gruppe_33" data-name="Gruppe 33" transform="translate(60.071 37.3)">
        <g id="Gruppe_32" data-name="Gruppe 32">
          <path id="Pfad_113" data-name="Pfad 113" d="M443.922,675.127c0,3.52-1.848,6.373-4.128,6.373s-4.128-2.853-4.128-6.373,1.848-6.373,4.128-6.373S443.922,671.607,443.922,675.127Z" transform="translate(-435.667 -616.925)" fill="#141720"/>
          <path id="Pfad_114" data-name="Pfad 114" d="M443.922,664.009c0,3.52-1.848,6.373-4.128,6.373s-4.128-2.853-4.128-6.373,1.848-6.373,4.128-6.373S443.922,660.489,443.922,664.009Z" transform="translate(-435.667 -613.212)" fill="#141720"/>
          <path id="Pfad_115" data-name="Pfad 115" d="M443.922,652.891c0,3.52-1.848,6.373-4.128,6.373s-4.128-2.854-4.128-6.373,1.848-6.373,4.128-6.373S443.922,649.371,443.922,652.891Z" transform="translate(-435.667 -609.498)" fill="#141720"/>
          <path id="Pfad_116" data-name="Pfad 116" d="M443.922,641.773c0,3.52-1.848,6.373-4.128,6.373s-4.128-2.854-4.128-6.373,1.848-6.373,4.128-6.373S443.922,638.254,443.922,641.773Z" transform="translate(-435.667 -605.784)" fill="#141720"/>
          <path id="Pfad_117" data-name="Pfad 117" d="M443.922,630.655c0,3.52-1.848,6.373-4.128,6.373s-4.128-2.854-4.128-6.373,1.848-6.373,4.128-6.373S443.922,627.136,443.922,630.655Z" transform="translate(-435.667 -602.07)" fill="#141720"/>
          <path id="Pfad_118" data-name="Pfad 118" d="M443.922,619.537c0,3.52-1.848,6.373-4.128,6.373s-4.128-2.854-4.128-6.373,1.848-6.373,4.128-6.373S443.922,616.018,443.922,619.537Z" transform="translate(-435.667 -598.356)" fill="#141720"/>
          <path id="Pfad_119" data-name="Pfad 119" d="M443.922,608.419c0,3.52-1.848,6.373-4.128,6.373s-4.128-2.853-4.128-6.373,1.848-6.373,4.128-6.373S443.922,604.9,443.922,608.419Z" transform="translate(-435.667 -594.643)" fill="#141720"/>
          <path id="Pfad_120" data-name="Pfad 120" d="M443.922,597.3c0,3.52-1.848,6.373-4.128,6.373s-4.128-2.853-4.128-6.373,1.848-6.373,4.128-6.373S443.922,593.782,443.922,597.3Z" transform="translate(-435.667 -590.929)" fill="#141720"/>
        </g>
        <path id="Pfad_121" data-name="Pfad 121" d="M439.839,679.317,435.8,692.652h8.079Z" transform="translate(-435.711 -620.454)" fill="#141720"/>
      </g>
      <path id="Pfad_122" data-name="Pfad 122" d="M418.1,703.582v.007h-72.64v-.007a36.133,36.133,0,0,1,1.938-11.729q.339-1,.739-1.972v-.007c.26-.651.548-1.287.849-1.917a35.655,35.655,0,0,1,2.629-4.608c.561-.836,1.164-1.658,1.794-2.445.438-.541.883-1.068,1.342-1.575.226-.26.466-.513.705-.767s.479-.493.726-.74a.571.571,0,0,1,.069-.061,35.425,35.425,0,0,1,3.855-3.321c.692-.513,1.39-.992,2.116-1.458.089-.062.185-.117.281-.172.63-.4,1.273-.78,1.931-1.136a.026.026,0,0,1,.021-.007h.007l.007-.007a8,8,0,0,0,.705-.411,1.783,1.783,0,0,0,.158-.089c.192-.117.384-.24.575-.363.061-.041.123-.083.184-.117.165-.109.329-.219.493-.342.206-.137.411-.288.609-.438,0-.007,0-.007.007,0,.2-.144.4-.294.589-.452l.007-.007a22.858,22.858,0,0,0,3.157-3.047,22.522,22.522,0,0,0,4.814-9.312c.136-.513.246-1.034.342-1.561a23.281,23.281,0,0,0,.356-4.054l5.293.028h.027l.924.007,4.492.021a23.058,23.058,0,0,0,.342,3.978c.089.534.205,1.062.342,1.582a21.327,21.327,0,0,0,.623,2.109,22.308,22.308,0,0,0,1.863,3.985,22.083,22.083,0,0,0,2.068,2.944,22.416,22.416,0,0,0,3.368,3.327c.179.151.356.294.541.425a1.768,1.768,0,0,0,.179.13l.015.012c.1.075.2.155.3.221.164.109.322.226.486.336.055.041.1.075.157.109l.37.246c.131.083.254.158.384.233s.281.171.424.253.281.171.425.246a.711.711,0,0,1,.123.062l.226.123c.048.027.1.055.137.082.185.1.363.206.541.308.294.171.6.349.883.534s.561.349.836.547c.568.363,1.123.761,1.664,1.171a.007.007,0,0,0,.007.007h.007c.691.513,1.363,1.061,2.02,1.622.616.527,1.2,1.076,1.78,1.65.041.035.075.069.117.11a36.252,36.252,0,0,1,10.674,25.7Z" transform="translate(-345.465 -573.852)" fill="#dfb28b"/>
      <path id="Pfad_123" data-name="Pfad 123" d="M418.1,712.591h-72.64a36.134,36.134,0,0,1,1.938-11.729q.339-1,.739-1.972v-.007c.26-.651.548-1.287.849-1.917a35.655,35.655,0,0,1,2.629-4.608c.561-.836,1.164-1.658,1.794-2.445.438-.541.883-1.068,1.342-1.575.226-.26.466-.513.705-.767s.479-.493.726-.74a.566.566,0,0,1,.069-.061,35.419,35.419,0,0,1,3.855-3.321c.692-.513,1.39-.992,2.116-1.458.089-.062.185-.117.281-.172.63-.4,1.273-.78,1.931-1.136a.007.007,0,0,1,.007-.007c.007-.007.007-.007.014,0h.007v-.007h.007c.24-.137.473-.274.705-.411a1.782,1.782,0,0,0,.158-.089c.192-.117.384-.24.575-.363s.37-.254.554-.377l.226-.164c.171-.117.342-.24.506-.363a.209.209,0,0,1,.048-.035c.178-.137.356-.28.534-.424l.007-.007.013.013c.39.4.788.781,1.212,1.143.205.178.418.349.63.52.007.014.007.014.013.007.2.157.39.308.589.459.048.034.089.068.137.1.206.143.411.287.617.424.466.308.944.6,1.431.862.247.137.493.267.747.39s.513.247.781.356a.231.231,0,0,0,.1.048q.883.381,1.808.678c.232.075.466.144.705.205l.637.165a.552.552,0,0,0,.151.035,21.392,21.392,0,0,0,2.129.37c.247.027.493.055.747.075.507.041,1.014.061,1.527.061h.055c.151,0,.3,0,.452-.007a.85.85,0,0,0,.226-.007c.075,0,.144-.007.219-.014.322-.013.637-.034.952-.061.274-.027.548-.062.815-.1a.74.74,0,0,0,.212-.027c.212-.027.418-.069.623-.1a1,1,0,0,0,.246-.048c.151-.027.3-.061.445-.089s.294-.062.438-.1c.3-.076.6-.151.9-.24s.589-.179.876-.281c.308-.1.6-.212.9-.336.144-.055.288-.109.424-.171a17.238,17.238,0,0,0,2.041-1.034c.233-.13.459-.267.685-.4.151-.1.295-.192.438-.294.123-.082.247-.165.363-.246.246-.171.486-.349.726-.534s.473-.376.7-.568c.459-.384.9-.794,1.315-1.219l.014-.014c.232.192.472.377.712.561l.015.012.088.065.041.026c.212.158.431.315.657.466.055.041.1.075.157.109.246.164.5.322.753.479.281.171.568.335.856.493a.726.726,0,0,1,.123.061c.075.041.151.089.219.13.048.027.1.055.137.082.185.1.363.206.541.308.294.171.6.349.883.534s.561.349.836.547c.568.363,1.123.76,1.664,1.171h.014c.691.521,1.369,1.062,2.02,1.63.616.527,1.2,1.075,1.78,1.65.041.035.075.069.117.11a36.251,36.251,0,0,1,10.674,25.7Z" transform="translate(-345.465 -582.86)" fill="#9d78dc"/>
      <g id="Gruppe_34" data-name="Gruppe 34" transform="translate(17.043 95.584)">
        <path id="Pfad_124" data-name="Pfad 124" d="M390.392,684.357l-.021.034-.007.014c-.013.013-.021.034-.034.048a9.9,9.9,0,0,1-15.557,1.355l-3.717-3.985c.63-.4,1.273-.781,1.931-1.136a.026.026,0,0,1,.021-.007h.007v-.007h.007c.24-.137.473-.274.705-.411a1.782,1.782,0,0,0,.158-.089c.192-.117.384-.24.575-.363.061-.041.123-.083.184-.117.123-.089.246-.171.37-.26l.123-.082c.206-.144.411-.288.609-.438,0-.007,0-.007.007,0a.243.243,0,0,1,.041-.041c.178-.136.356-.28.534-.424l.014.013c.39.4.794.781,1.219,1.137.205.185.418.363.63.52.007.014.007.014.013.007.192.164.39.315.589.459.048.034.089.068.137.1a7.484,7.484,0,0,0,.617.424,14.256,14.256,0,0,0,1.431.862c.247.137.493.267.747.39s.52.247.78.356a.232.232,0,0,0,.1.048,18.339,18.339,0,0,0,1.808.678c.232.075.466.144.705.205q.318.093.637.164a.55.55,0,0,0,.151.035,15.54,15.54,0,0,0,2.129.37c.247.034.493.061.747.075.5.048,1.006.069,1.52.069Z" transform="translate(-371.056 -678.448)" fill="#e7ecf2"/>
        <path id="Pfad_125" data-name="Pfad 125" d="M419.38,681.882l-3.663,3.93a9.907,9.907,0,0,1-15.591-1.4l-.007-.014-.027-.034a19.546,19.546,0,0,0,13.961-5.888l.007-.007a18.419,18.419,0,0,0,1.513,1.129c.055.041.1.075.157.109.247.164.5.322.753.479.281.171.569.336.856.493a.712.712,0,0,1,.124.062c.6.336,1.2.685,1.78,1.054A1.46,1.46,0,0,1,419.38,681.882Z" transform="translate(-380.755 -678.454)" fill="#e7ecf2"/>
      </g>
      <path id="Pfad_126" data-name="Pfad 126" d="M402.924,553.606a33.923,33.923,0,0,1-43.156,32.612,35.211,35.211,0,0,1-3.7-1.287c-.007-.007-.007,0-.007,0-.143-.061-.28-.123-.418-.185-.117-.048-.226-.1-.335-.144a33.746,33.746,0,0,1-1.986-3.876,32.862,32.862,0,0,1,30.2-45.806,32.648,32.648,0,0,1,16.193,4.266c.206.432.4.87.589,1.315a33.3,33.3,0,0,1,1.554,4.621A33.961,33.961,0,0,1,402.924,553.606Z" transform="translate(-347.203 -534.92)" fill="#141720"/>
      <path id="Pfad_127" data-name="Pfad 127" d="M439.941,570.176a32.751,32.751,0,0,1-3.252,14.269,33.914,33.914,0,0,1-12.811-41.533c.11-.26.219-.514.336-.774A32.841,32.841,0,0,1,439.941,570.176Z" transform="translate(-370.78 -537.331)" fill="#141720"/>
      <path id="Pfad_128" data-name="Pfad 128" d="M413.9,567.781v20.911c0,.274-.007.542-.013.815-.007.246-.014.486-.027.733-.007.219-.021.438-.041.657-.007.157-.021.315-.034.472-.007.1-.014.185-.027.281-.014.171-.028.349-.055.52-.027.329-.069.651-.117.979-.007.083-.02.164-.034.247-.021.164-.048.328-.075.493v.021a.467.467,0,0,0-.014.1c-.041.206-.075.411-.109.617-.062.328-.123.657-.192.979-.007.014-.007.027-.014.041a.994.994,0,0,1-.027.144c-.007.013-.007.027-.013.041-.027.144-.062.288-.1.425-.007.034-.014.061-.021.1a1.393,1.393,0,0,1-.055.226c-.021.123-.055.246-.083.37-.021.069-.034.144-.061.213s-.035.123-.048.178c-.144.561-.308,1.109-.479,1.657-.082.26-.164.514-.253.774-.007.027-.021.055-.027.083-.076.219-.158.445-.233.664-.007.013-.007.021-.014.034-.027.069-.055.137-.082.212-.082.219-.164.438-.253.657-.1.267-.212.527-.322.787-.1.233-.2.466-.3.7-.014.041-.034.075-.048.117-.117.246-.226.493-.342.733s-.24.507-.37.76c-.007.014-.014.021-.021.035-.24.486-.5.979-.76,1.451l-.37.657a40.3,40.3,0,0,1-3.5,5.095q-.257.339-.534.657c-.254.308-.513.61-.774.9-.219.246-.445.5-.678.739a.1.1,0,0,1-.027.034q-.986,1.059-2.013,2.007c-.136.137-.28.26-.424.39-.233.212-.466.418-.705.616-.185.164-.377.322-.568.479-.493.4-.986.794-1.486,1.157-.206.158-.418.308-.63.452-.342.246-.692.48-1.041.705-.192.13-.39.253-.589.37a.674.674,0,0,1-.1.055c-.665.411-1.343.788-2.007,1.116-.171.089-.342.171-.513.254s-.349.164-.534.246q-.339.154-.678.288a2.166,2.166,0,0,1-.267.1c-.267.109-.541.212-.808.3-.336.123-.678.226-1.013.322-.233.069-.473.13-.705.185a.1.1,0,0,1-.048.014c-.233.055-.466.109-.7.151a1.792,1.792,0,0,1-.185.034c-.192.035-.383.069-.575.089-.274.041-.548.075-.822.089a2,2,0,0,1-.281.02c-.219.014-.431.021-.643.021H386q-.319,0-.637-.021a1.534,1.534,0,0,1-.246-.02c-.192-.007-.391-.028-.6-.055a.844.844,0,0,1-.13-.013c-.254-.035-.507-.075-.767-.123-.219-.035-.438-.083-.664-.137a19.633,19.633,0,0,1-3.595-1.212,26.167,26.167,0,0,1-3.143-1.657c-.062-.034-.117-.075-.178-.109-.466-.288-.938-.6-1.4-.918-.26-.185-.52-.37-.781-.561-.814-.6-1.622-1.246-2.417-1.945-.219-.2-.438-.4-.657-.6s-.438-.4-.651-.6c-.507-.486-1-.986-1.472-1.514a1.013,1.013,0,0,1-.089-.089q-.3-.319-.6-.657c-.548-.617-1.082-1.253-1.589-1.917-.2-.24-.383-.486-.568-.733q-1.037-1.376-1.965-2.869c-.164-.267-.328-.541-.486-.808-.192-.322-.376-.651-.561-.979-.267-.48-.52-.966-.767-1.458-.4-.774-.761-1.568-1.1-2.376-.083-.192-.164-.384-.233-.575-.109-.246-.205-.5-.294-.746-.041-.117-.089-.233-.123-.35q-.144-.37-.267-.739c-.123-.363-.24-.733-.356-1.1s-.212-.713-.308-1.076c-.11-.383-.212-.773-.3-1.171-.007-.041-.021-.082-.027-.123,0-.013-.007-.021-.007-.034-.13-.534-.24-1.082-.342-1.63-.041-.206-.075-.411-.1-.623-.1-.534-.164-1.082-.226-1.63-.034-.239-.055-.479-.075-.719s-.048-.5-.061-.753c-.035-.459-.055-.924-.069-1.39-.007-.274-.014-.541-.014-.815V567.781a27.878,27.878,0,0,1,26.348-27.833.286.286,0,0,1,.075-.007l.575-.021c.287-.007.568-.013.856-.013h.027c.294,0,.589.007.883.013h.062c.205.007.411.014.616.027h.021l.288.021c.205.014.411.027.609.048.1.007.2.014.3.027l.2.021a28.546,28.546,0,0,1,3.2.527,27.913,27.913,0,0,1,9.613,4.218c.643.438,1.26.9,1.855,1.4.233.192.459.384.685.575v.007a27.123,27.123,0,0,1,3.608,3.8,27.694,27.694,0,0,1,5.93,16.947C413.9,567.616,413.9,567.7,413.9,567.781Z" transform="translate(-349.7 -536.586)" fill="#dfb28b"/>
      <path id="Pfad_129" data-name="Pfad 129" d="M416.365,567.765a32.692,32.692,0,0,1-1.123,8.518,30.412,30.412,0,0,1-1.534,4.43c-.184.445-.384.89-.6,1.321-.582-.376-1.157-.774-1.712-1.2-.411-.294-.814-.609-1.211-.931a35.051,35.051,0,0,1-2.835-2.581,33.965,33.965,0,0,1-7.053-10.613,33.953,33.953,0,0,1-40.534,19.507,35.211,35.211,0,0,1-3.7-1.287c-.007-.007-.007,0-.007,0-.143-.061-.28-.123-.418-.185-.117-.048-.226-.1-.335-.144a33.746,33.746,0,0,1-1.986-3.876,32.862,32.862,0,0,1,30.2-45.806,32.648,32.648,0,0,1,16.193,4.266c.308.172.616.356.924.541A32.841,32.841,0,0,1,416.365,567.765Z" transform="translate(-347.203 -534.92)" fill="#141720"/>
    </g>
    <path id="Pfad_130" data-name="Pfad 130" d="M348.93,567.765a32.862,32.862,0,0,0,1.123,8.545,9.384,9.384,0,0,0-.274,2.28,8.728,8.728,0,0,0,.773,3.7,9.259,9.259,0,0,0,0,7.408,9.243,9.243,0,0,0,0,7.4,9.261,9.261,0,0,0,0,7.409,9.243,9.243,0,0,0,0,7.4,9.243,9.243,0,0,0,0,7.4,9.259,9.259,0,0,0,0,7.408,8.719,8.719,0,0,0-.773,3.7c0,2.65,1.048,4.93,2.547,5.888l-2.458,8.107h1.753a35.655,35.655,0,0,0-2.629,4.608c-.3.63-.589,1.267-.849,1.917v.007q-.4.976-.739,1.972a36.133,36.133,0,0,0-1.938,11.729v.007h36.317V534.92A32.849,32.849,0,0,0,348.93,567.765Zm24.327,56.481a22.3,22.3,0,0,1-2.3,3.218,22.862,22.862,0,0,1-3.157,3.047l-.013-.013-.007.007c-.178.144-.356.288-.534.424a.211.211,0,0,0-.048.035c-.164.123-.335.246-.506.363l-.226.164c-.184.123-.37.254-.554.377s-.384.246-.575.363a1.8,1.8,0,0,1-.158.089c-.232.137-.466.274-.705.411h-.007v.007h-.007c-.007-.007-.007-.007-.014,0a.007.007,0,0,0-.007.007c-.657.356-1.3.733-1.931,1.136-.1.055-.192.11-.281.172-.726.466-1.424.944-2.116,1.458a35.419,35.419,0,0,0-3.855,3.321l-.767-2.52c1.5-.958,2.547-3.239,2.547-5.888a8.719,8.719,0,0,0-.774-3.7,9.252,9.252,0,0,0,0-7.408,9.236,9.236,0,0,0,0-7.4,9.236,9.236,0,0,0,0-7.4,7.79,7.79,0,0,0,.548-1.636c.246.493.5.979.767,1.458.185.328.37.657.561.979.158.267.322.541.486.808q.925,1.489,1.965,2.869c.185.246.37.493.568.733.507.664,1.041,1.3,1.589,1.917q.3.339.6.657a1.017,1.017,0,0,0,.089.089c.472.527.965,1.028,1.472,1.514.212.2.432.4.651.6s.438.4.657.6c.795.7,1.6,1.349,2.417,1.945.26.192.521.376.781.561.459.322.932.63,1.4.918.061.034.116.075.178.109a26.159,26.159,0,0,0,3.143,1.657A22.17,22.17,0,0,1,373.257,624.246Z" transform="translate(578.867 552.044)" fill="#dfb28b" opacity="0.5"/>
  </g>
</svg>
