<svg id="Ebene_1" data-name="Ebene 1" xmlns="http://www.w3.org/2000/svg" viewBox="0 0 72.45 126.07"><defs><style>.cls-1,.cls-8{fill:#ecc19c;}.cls-2{fill:#c5d4e2;}.cls-3{fill:#543e36;}.cls-4{fill:#1a1a1a;}.cls-5{fill:#415364;}.cls-6{fill:#141720;}.cls-7{fill:#e7ecf2;}.cls-8{opacity:0.5;isolation:isolate;}</style></defs><title>Avatar3</title><g id="Gruppe_629" data-name="Gruppe 629"><path id="Pfad_592" data-name="Pfad 592" class="cls-1" d="M64,27.8V48.56c0,.3,0,.6,0,.9,0,.62-.05,1.25-.1,1.86l-.06.64c-.09.88-.21,1.74-.37,2.6-.06.29-.11.57-.17.85a.85.85,0,0,1,0,.17c-.05.29-.12.57-.19.85s-.07.3-.1.45-.07.26-.11.39c-.14.56-.3,1.1-.47,1.65l-.26.77s0,.06,0,.08l-.25.7c0,.07,0,.14-.08.22s-.17.43-.26.65-.21.53-.32.79l-.3.7s0,.07,0,.11c-.12.25-.23.49-.35.73s-.23.51-.36.76c-.25.5-.52,1-.78,1.48l-.37.66a40.1,40.1,0,0,1-3.49,5.08c-.17.23-.35.44-.53.66l-.77.9c-.24.25-.47.51-.7.77-.66.7-1.33,1.37-2,2l-.43.39-.7.61-.56.48c-.49.4-1,.79-1.48,1.15-.2.16-.42.31-.63.45s-.69.48-1,.7c-.19.13-.39.25-.59.37-.7.43-1.4.83-2.1,1.17l-.51.25-.53.25-.68.29-.26.1c-.27.1-.54.21-.81.3s-.68.22-1,.32-.47.13-.7.18l0,0c-.23,0-.46.11-.7.15l-.18,0-.58.09c-.27,0-.54.07-.82.09l-.28,0-.65,0h0l-.63,0-.25,0-.59-.06H34.6l-.77-.12c-.22,0-.43-.08-.66-.14a19.69,19.69,0,0,1-3.59-1.21,26.9,26.9,0,0,1-3.14-1.66c-.52-.32-1.05-.66-1.57-1l-.78-.56c-.81-.59-1.61-1.24-2.41-1.94l-.65-.6-.65-.6c-.53-.51-1.05-1-1.56-1.6-.2-.21-.39-.43-.59-.66-.55-.61-1.08-1.25-1.58-1.91-.2-.24-.39-.48-.57-.73-.69-.91-1.34-1.87-2-2.86-.17-.27-.33-.54-.49-.81l-.56-1a36.47,36.47,0,0,1-1.85-3.83q-.13-.28-.24-.57c-.11-.25-.2-.5-.29-.74s-.27-.73-.39-1.09-.24-.73-.35-1.1-.22-.71-.31-1.07-.21-.77-.3-1.17l0-.12c-.13-.55-.25-1.1-.35-1.66-.13-.74-.24-1.49-.32-2.25,0-.24-.06-.48-.08-.72s-.05-.5-.06-.75c0-.46-.06-.92-.07-1.38,0-.3,0-.6,0-.9V27.8A27.79,27.79,0,0,1,36.19,0h0a28.36,28.36,0,0,1,6.16.68A27.82,27.82,0,0,1,64,27.8Z" transform="translate(0 0)"/><path id="Pfad_593" data-name="Pfad 593" class="cls-1" d="M72.44,126.06H0a36.11,36.11,0,0,1,1.93-11.7c.23-.66.47-1.31.74-2h0c.27-.65.55-1.29.85-1.91a35.7,35.7,0,0,1,4.41-7c.43-.54.88-1.06,1.34-1.57.22-.26.46-.51.7-.76s.47-.49.72-.74A36.93,36.93,0,0,1,14.6,97c.69-.51,1.39-1,2.11-1.46s1.46-.89,2.21-1.3h0l.87-.5c.56-.35,1.12-.71,1.66-1.11.27-.19.53-.39.79-.6.61-.49,1.21-1,1.77-1.57l.56-.56c.38-.4.74-.81,1.09-1.24.17-.2.34-.41.5-.63l.48-.64a22.7,22.7,0,0,0,4.24-13.29l5.28,0,5.43,0A22.84,22.84,0,0,0,50.2,92l.76.59c.25.19.5.36.76.54l.16.1q.36.25.75.48c.28.17.56.34.85.5l.12.06c.6.34,1.2.69,1.78,1,.28.17.56.35.83.55.57.37,1.12.75,1.66,1.16h0a36.82,36.82,0,0,1,3.9,3.37A36.06,36.06,0,0,1,72.44,126.06Z" transform="translate(0 0)"/><path id="Pfad_594" data-name="Pfad 594" class="cls-2" d="M72.44,126.06H0a36.11,36.11,0,0,1,1.93-11.7c.23-.66.47-1.31.74-2,0,0,0,0,0,0,.26-.65.55-1.28.85-1.91a35.34,35.34,0,0,1,4.41-7c.43-.54.88-1.07,1.34-1.57.22-.26.46-.52.7-.77s.47-.49.72-.74A36.93,36.93,0,0,1,14.6,97c.69-.51,1.39-1,2.11-1.45s1.46-.9,2.21-1.31h0l.87-.5A20.52,20.52,0,0,0,22.25,92h0a19.43,19.43,0,0,0,13.92,5.88h.06A19.45,19.45,0,0,0,50.2,92h0a16.48,16.48,0,0,0,1.51,1.13.91.91,0,0,0,.16.11l.75.48.85.49.12.06c.6.34,1.2.68,1.78,1,.28.17.56.35.83.55.57.36,1.12.76,1.66,1.17h0a36.26,36.26,0,0,1,14.55,29Z" transform="translate(0 0)"/><path id="Pfad_595" data-name="Pfad 595" class="cls-3" d="M64,48.57c0,.3,0,.6,0,.9,0,.62-.05,1.24-.1,1.85l-.06.64c-.09.88-.21,1.75-.37,2.61l-.17.85a1.36,1.36,0,0,1,0,.17c-.05.28-.12.56-.19.84a3.74,3.74,0,0,1-.12.48,2.11,2.11,0,0,1-.09.36c-.14.56-.31,1.11-.48,1.66-.08.26-.16.51-.25.77l0,.08-.24.7a1.8,1.8,0,0,0-.08.21l-.26.66c-.1.26-.21.52-.32.78l-.3.7a.61.61,0,0,1,0,.12c-.11.24-.22.49-.34.73s-.24.5-.37.76c-.24.5-.51,1-.77,1.48l-.37.66a40.83,40.83,0,0,1-3.49,5.08c-.17.22-.35.44-.53.65s-.52.61-.78.9-.46.52-.7.77c-.65.7-1.32,1.38-2,2-.14.14-.28.26-.43.39s-.46.42-.7.62l-.56.47c-.5.4-1,.8-1.49,1.16l-.62.45c-.35.24-.69.48-1,.7-.19.13-.39.25-.59.37q-1,.64-2.1,1.17l-.51.25-.53.24c-.23.11-.46.2-.68.29l-.27.1c-.26.11-.54.21-.8.3s-.68.23-1,.32l-.7.19h0c-.23.06-.47.11-.7.15l-.19,0-.57.09a7.58,7.58,0,0,1-.82.08,1.32,1.32,0,0,1-.28,0c-.22,0-.44,0-.65,0h0c-.21,0-.42,0-.63,0a1,1,0,0,1-.25,0,4,4,0,0,1-.59-.05H34.6l-.77-.13c-.22,0-.44-.08-.66-.13a20.77,20.77,0,0,1-3.59-1.21,26.7,26.7,0,0,1-3.13-1.65c-.53-.32-1-.66-1.57-1l-.78-.56c-.81-.59-1.61-1.24-2.41-1.94l-.65-.6-.65-.6c-.54-.51-1.06-1-1.56-1.6-.2-.21-.4-.43-.59-.65-.55-.62-1.08-1.25-1.59-1.92-.2-.24-.38-.48-.56-.73-.69-.91-1.35-1.87-2-2.86-.17-.26-.33-.54-.49-.8s-.38-.65-.56-1a39.58,39.58,0,0,1-1.86-3.82c-.08-.2-.16-.39-.23-.58s-.2-.5-.29-.74-.27-.73-.39-1.09-.24-.73-.36-1.1-.21-.71-.3-1.07-.22-.77-.3-1.17a.53.53,0,0,1,0-.12c-.14-.55-.25-1.1-.35-1.66q-.21-1.11-.33-2.25c0-.24-.05-.48-.07-.72s-.05-.5-.07-.75c0-.45-.05-.92-.06-1.38,0-.3,0-.6,0-.9l4.44,8.72,7.63,3.33,9,.81L36.2,62h0l6.26.57,14,1.25Z" transform="translate(0 0)"/><path id="Pfad_596" data-name="Pfad 596" class="cls-3" d="M58.1,10.65a38.34,38.34,0,0,1-5.22,8.54l-.37.45A38.36,38.36,0,0,1,36.2,31.15,39.38,39.38,0,0,1,31,32.65c-1.2.25-2.41.45-3.65.59a39.27,39.27,0,0,1-4.33.24,38.94,38.94,0,0,1-4.95-.32,36.67,36.67,0,0,1-4.65-.89q-1.29-.33-2.55-.75c-.84-.28-1.63-.57-2.43-.9V27.8A27.79,27.79,0,0,1,36.2,0h0a28.36,28.36,0,0,1,6.16.68,27.87,27.87,0,0,1,15.72,10Z" transform="translate(0 0)"/><path id="Pfad_597" data-name="Pfad 597" class="cls-3" d="M64,27.8v5.47a42.69,42.69,0,0,1-11.5-13.6,0,0,0,0,0,0,0A42.24,42.24,0,0,1,47.59,2.43,27.81,27.81,0,0,1,64,27.8Z" transform="translate(0 0)"/><path id="Pfad_598" data-name="Pfad 598" class="cls-3" d="M11.68,29.94c-.3.51-.56,1-.83,1.58-.1.21-.2.44-.31.66a23.09,23.09,0,0,0-2.11,8.57c0,.08,0,.16,0,.23V30.28c0-.39,0-.76,0-1.13C9.51,29.43,10.59,29.7,11.68,29.94Z" transform="translate(0 0)"/><path id="Pfad_599" data-name="Pfad 599" class="cls-3" d="M60.78,29.94c.41.73.78,1.47,1.13,2.23A23,23,0,0,1,64,41V30.27c0-.37,0-.75,0-1.12C63,29.43,61.87,29.7,60.78,29.94Z" transform="translate(0 0)"/><path id="Pfad_600" data-name="Pfad 600" class="cls-4" d="M60.72,32.7a.23.23,0,0,0-.2-.23,73.45,73.45,0,0,0-10.16-.76C45,31.71,38,33.4,36.77,33.4H35.68c-.56,0-2.38-.36-4.7-.75a56.32,56.32,0,0,0-8.88-.94,76.52,76.52,0,0,0-8.69.56c-.7.08-1.21.16-1.48.2a.24.24,0,0,0-.2.23l-.06,2.9a.26.26,0,0,0,.16.23l.33.12c.48.18.44,8.93,3.05,11.12,1.55,1.29,2.93,2,8.74,2,3.37,0,5.48-.9,7.49-3.61,1.45-1.95,2.73-6.55,2.73-6.55a2.27,2.27,0,0,1,2-2.06h0a2.24,2.24,0,0,1,2.05,2.06s1.29,4.6,2.74,6.55c2,2.71,4.12,3.61,7.49,3.61,5.81,0,7.19-.73,8.74-2,2.6-2.19,2.56-10.94,3-11.12l.33-.12a.23.23,0,0,0,.15-.23ZM31.43,43.05c-.85,2-3.05,4.63-6.16,4.79-9.32.47-9.75-2.13-10.35-4.19a14.21,14.21,0,0,1-.53-5.94c.25-2.06.77-3.27,1.7-3.88a4.29,4.29,0,0,1,2-.67,36.79,36.79,0,0,1,5.14-.24,26.15,26.15,0,0,1,4.14.32c3.32.53,5.56,1.66,5.56,2.77A20.45,20.45,0,0,1,31.43,43.05Zm26.1.6c-.6,2.06-1,4.66-10.36,4.19-3.1-.16-5.31-2.77-6.16-4.79a20.68,20.68,0,0,1-1.46-7c0-1.53,4.25-3.09,9.7-3.09s6.33.41,7.1.91c.93.61,1.45,1.82,1.7,3.88a14.2,14.2,0,0,1-.52,5.94Z" transform="translate(0 0)"/><g id="Gruppe_201" data-name="Gruppe 201"><path id="Pfad_601" data-name="Pfad 601" class="cls-3" d="M36.25,53V70h0L9.34,56.35l0-.13c-.13-.54-.25-1.1-.35-1.66-.13-.73-.24-1.48-.32-2.24,0-.24-.06-.48-.08-.72s-.05-.5-.06-.75c0-.46-.06-.92-.07-1.39,0-.3,0-.6,0-.9V40.75a27.52,27.52,0,0,0,1,6.37,28.11,28.11,0,0,0,1.74,4.69h0c1.79,3.73,4.19,6.25,6.39,6.66l.42.05a23.89,23.89,0,0,0,2.67.15c3.48,0,6.58-2.8,8.52-3.93l0,0,.3-.19.08-.05A13.79,13.79,0,0,1,36.2,53Z" transform="translate(0 0)"/><path id="Pfad_602" data-name="Pfad 602" class="cls-3" d="M64,40.4v8.16a33.47,33.47,0,0,1-.54,6c-.15.78-.31,1.55-.5,2.32L56.68,66,36.23,70h0l0-17.09h0a13.8,13.8,0,0,1,6.64,1.54l.08.05.3.18,0,0c2,1.14,5,3.94,8.53,3.94a23.89,23.89,0,0,0,2.67-.15l.42-.05c2.2-.41,4.6-2.93,6.38-6.66h0A27.26,27.26,0,0,0,63,47.12a26.65,26.65,0,0,0,1-6.46A2.26,2.26,0,0,0,64,40.4Z" transform="translate(0 0)"/></g><ellipse id="Ellipse_43" data-name="Ellipse 43" class="cls-1" cx="36.22" cy="61.78" rx="6.81" ry="2.11"/><g id="Gruppe_202" data-name="Gruppe 202"><path class="cls-5" d="M16.33,95.8c-.59.38-1.16.78-1.72,1.2-.4.3-.79.6-1.18.92v28.15h2.9Z" transform="translate(0 0)"/><polygon class="cls-5" points="59.01 97.92 56.11 95.81 56.11 126.07 59.01 126.07 59.01 97.92"/></g><g id="Gruppe_205" data-name="Gruppe 205"><g id="Gruppe_203" data-name="Gruppe 203"><path id="Pfad_605" data-name="Pfad 605" class="cls-6" d="M28.28,93.5,36.22,103l7.94-9.52Z" transform="translate(0 0)"/><path class="cls-6" d="M37.52,98.76c-.14.56-2.46.56-2.61,0l-2.12,27.31h6.85Z" transform="translate(0 0)"/></g><g id="Gruppe_204" data-name="Gruppe 204"><path id="Pfad_607" data-name="Pfad 607" class="cls-7" d="M36.22,93.45l0,0h0L32.89,99l-3.08,5.16L21.48,92.61c.26-.19.53-.4.78-.61l0,0a23.1,23.1,0,0,0,4.4-4.65l9.52,6.07Z" transform="translate(0 0)"/><path id="Pfad_608" data-name="Pfad 608" class="cls-7" d="M51,92.61,42.63,104.2,39.55,99,36.24,93.5l0,0,9.58-6.1A23,23,0,0,0,50.2,92C50.46,92.23,50.71,92.43,51,92.61Z" transform="translate(0 0)"/></g></g><path id="Pfad_609" data-name="Pfad 609" class="cls-8" d="M36.2,0V126.07H0a35.84,35.84,0,0,1,1.93-11.7c.22-.66.47-1.31.74-2h0c.26-.65.54-1.29.84-1.91a36.65,36.65,0,0,1,4.41-7c.44-.54.88-1.06,1.34-1.57.23-.26.47-.51.7-.76l.73-.74q1.31-1.29,2.73-2.46c.39-.31.78-.62,1.18-.91.56-.43,1.14-.82,1.73-1.2.12-.09.25-.17.38-.25.72-.47,1.46-.91,2.21-1.31h0l.86-.5c.57-.35,1.12-.72,1.66-1.12.26-.19.53-.4.78-.6h0a23.14,23.14,0,0,0,7.3-10.19,25.93,25.93,0,0,1-3.13-1.65c-.53-.31-1.05-.66-1.57-1l-.78-.56c-.81-.6-1.62-1.25-2.41-1.94l-.66-.6-.65-.6c-.53-.52-1.05-1-1.55-1.6-.2-.22-.4-.43-.6-.66-.54-.61-1.08-1.25-1.58-1.91-.2-.24-.38-.49-.57-.73-.69-.92-1.34-1.87-2-2.86-.16-.27-.33-.54-.48-.81s-.38-.65-.56-1a37.43,37.43,0,0,1-1.86-3.82c-.08-.19-.17-.38-.23-.57s-.21-.5-.3-.75l-.39-1.08c-.12-.37-.24-.73-.35-1.1s-.21-.71-.31-1.08-.21-.77-.3-1.16l0-.13c-.13-.54-.24-1.1-.34-1.66-.14-.73-.25-1.48-.33-2.24,0-.24-.06-.48-.08-.72s0-.5-.06-.75c0-.46-.05-.92-.07-1.39,0-.3,0-.6,0-.9V27.8A27.8,27.8,0,0,1,36.2,0Z" transform="translate(0 0)"/></g></svg>