<svg xmlns="http://www.w3.org/2000/svg" viewBox="0 0 15.945 15.908">
    <g id="call-answer" transform="translate(60 -.394)">
        <g id="Gruppe_239" data-name="Gruppe 239" transform="translate(0 .394)">
            <g id="Gruppe_238" data-name="Gruppe 238">
                <path id="Pfad_615" d="M15.588 12.978l-2.463-2.463a1.284 1.284 0 0 0-1.81.034l-1.241 1.24-.245-.136a12.346 12.346 0 0 1-2.983-2.158 12.415 12.415 0 0 1-2.163-2.99l-.133-.239.833-.831.409-.41a1.283 1.283 0 0 0 .033-1.811L3.362.751a1.283 1.283 0 0 0-1.81.034l-.694.7.018.015A4.013 4.013 0 0 0 .3 2.511a4.182 4.182 0 0 0-.25 1.023c-.325 2.7.907 5.16 4.25 8.5 4.621 4.621 8.345 4.272 8.506 4.255a4.161 4.161 0 0 0 1.026-.258 4 4 0 0 0 1.005-.569l.015.013.7-.689a1.285 1.285 0 0 0 .036-1.808z" class="cls-1" data-name="Pfad 615" transform="translate(-60 -.394)"/>
            </g>
        </g>
    </g>
</svg>
