<svg xmlns="http://www.w3.org/2000/svg" viewBox="0 0 50.963 50.962">
  <g id="Gruppe_451" data-name="Gruppe 451" transform="translate(-1527 -664)">
    <path id="Pfad_660" data-name="Pfad 660" d="M1580.087,715.646s-7.946-2.289-7.946-7.177c0,0-.543-2.172,0-3.258s1.629-2.715,1.629-2.715a22.649,22.649,0,0,0,1.086-3.258c0-.543,1.086-1.086,1.086-1.086s2.172-1.629.543-5.973c0,0,1.086-8.145-1.086-10.861a9.7,9.7,0,0,0-5.431-3.258s-4.887-3.8-12.49.543c0,0-4.344,2.172-3.8,8.689l.543,5.43a4.934,4.934,0,0,0,1.629,6.517s1.086,4.344,2.172,5.43,0,4.887,0,4.887,0,1.629-7.06,5.431l-.758.323" transform="translate(-12.833 -6.657)" fill="none" stroke="#485460" stroke-miterlimit="10" stroke-width="2"/>
    <circle id="Ellipse_68" data-name="Ellipse 68" cx="24.481" cy="24.481" r="24.481" transform="translate(1528 665)" fill="none" stroke="#717AFA" stroke-miterlimit="10" stroke-width="2"/>
  </g>
</svg>
