<svg xmlns="http://www.w3.org/2000/svg" viewBox="0 0 57.86 52.83">
    <defs>
        <style>
            .cls-1{fill:#0fbcf9;opacity:.18}
        </style>
    </defs>
    <g id="progress" transform="translate(.04 .02)">
        <g id="Ebene_1" data-name="Ebene 1" transform="translate(-.04 -.019)">
            <path id="Pfad_943" d="M9.75 20.17A24.06 24.06 0 0 1 12 12.91l2-3.21L46.48 18c.1 1.1.41-.36.37-.77A17.53 17.53 0 0 0 36.69 2.62a19.09 19.09 0 0 0-12.84-.74 22.6 22.6 0 0 0-7.6 3.83 23.15 23.15 0 0 0-5.44 5.85 33.48 33.48 0 0 0-4.26 10.79c-.12.5 1-.41 1-.37.45-.33 2.06-1.2 2.2-1.81z" class="cls-1" data-name="Pfad 943" transform="translate(.04 .019)"/>
            <path id="Pfad_944" d="M10.358 21.89a23.086 23.086 0 0 1 2.425-7.28q6.709-13 26.249-9.87l-2.624-1.07 5.04 2.41-2.31-1.39 4.588 3.09-2.1-1.69 3.9 3.7-1.722-2 4.378 6.66-.9-2.21 1.585 4.81-.5-2.33.682 5c.073.57.22.13.325 0 .283-.38 0-1.88-.084-2.33a17.453 17.453 0 0 0-3.15-7.41 18.479 18.479 0 0 0-9.618-6.6 22.039 22.039 0 0 0-13.576.71 24.71 24.71 0 0 0-7.2 4.61 22.68 22.68 0 0 0-4.893 6.05 34.007 34.007 0 0 0-3.381 9c-.115.47.934-.31.892-.28.409-.31 1.868-1.04 1.994-1.58z" class="cls-1" data-name="Pfad 944" transform="translate(.04 .019)"/>
            <path id="Pfad_945" d="M9.93 18.69A19.52 19.52 0 0 1 13.08 10l1-1.58 32.37 8.83c0 .63.4-.1.38-.43-.29-4.18-1.51-8.07-4.45-11.15a17.31 17.31 0 0 0-6.55-4.57 20.94 20.94 0 0 0-13.93.15 23 23 0 0 0-9 6.15 32.19 32.19 0 0 0-4.33 6.79C6.89 17.5 6.92 18.12 6 21.64c0 0 2.05-1.3 2.07-1.32.44-.32 1.72-1.01 1.86-1.63z" class="cls-1" data-name="Pfad 945" transform="translate(.04 .019)"/>
            <path id="Pfad_946" d="M9.42 24.06A23.83 23.83 0 0 1 16 10.88q8-7.83 20.85-3.92l-2.76-1.13 5.14 2.49-2.67-1.65 4.78 3.42-2.55-2.2 4.35 4.32-2.4-2.77 3.87 5.1-1.94-3.18 3 5.72-1.47-3.58 2 6.26-.92-4a46.24 46.24 0 0 0 1 6.85.32.32 0 0 0 .09.27.92.92 0 0 0 .17-.49A13.87 13.87 0 0 0 46 17a16.55 16.55 0 0 0-6-8.47 19.26 19.26 0 0 0-3.47-2.18A18.26 18.26 0 0 0 26.89 5a20.28 20.28 0 0 0-13.48 7.76c-2.86 3.61-4.23 7.54-5.27 12-.08.34 1.21-.37 1.28-.7z" class="cls-1" data-name="Pfad 946" transform="translate(.04 .019)"/>
            <path id="Pfad_947" d="M9.49 22.61a23.87 23.87 0 0 1 2.33-7.27Q20.16-.53 39.3 6.69l-2.12-1.36 4.21 3.08-1.92-1.71 3.73 3.76-1.73-2.08 3.2 4.35-1.36-2.31 2.43 4.79-1-2.54 1.61 5.18-.58-2.77a21.11 21.11 0 0 0 .76 5.55.18.18 0 0 0 .08.18 1.07 1.07 0 0 0 .19-.34c.4-1.43-.41-4.21-.79-5.37a16.67 16.67 0 0 0-6.14-8.47 18.85 18.85 0 0 0-17.45-2.11 22.11 22.11 0 0 0-8.32 5.6 34.721 34.721 0 0 0-2.49 3.17c-2.22 3.19-3.26 6.89-4.14 10.6-.09.41.68-.15.66-.14.31-.2 1.27-.75 1.36-1.14z" class="cls-1" data-name="Pfad 947" transform="translate(.04 .019)"/>
            <path id="Pfad_948" d="M9.25 21.15a28.88 28.88 0 0 1 3.27-8.88 10.57 10.57 0 0 1 3.56-4.13Q28-5.78 46.19 18.94c.05.46.23.1.31 0 .24-.29 0-1.46 0-1.82a17.47 17.47 0 0 0-8.56-12.91 18 18 0 0 0-9.3-2.29 21.29 21.29 0 0 0-13.73 5.72A15.73 15.73 0 0 0 11 12.09l-1.9 3.43a25.61 25.61 0 0 0-2.37 7.28c-.11.46.82-.26.78-.23.38-.25 1.62-.93 1.74-1.42z" class="cls-1" data-name="Pfad 948" transform="translate(.04 .019)"/>
            <path id="Pfad_949" d="M10.182 23.92a22.8 22.8 0 0 1 2.439-7.26Q19.779 3.49 36.1 5.72L32.772 5l6.476 1.83-3.4-1.3 5.887 2.68-3.149-1.84 5.35 3.63-2.953-2.44 4.846 4.49-2.7-2.94 4.2 5.26-2.1-3.29 3.154 5.79-1.5-3.6 2.1 6.21-.957-3.86a42.132 42.132 0 0 0 1.051 6.69.411.411 0 0 0 .147.32 2.728 2.728 0 0 0 .116-.93 25.7 25.7 0 0 0-.168-2.7 6.317 6.317 0 0 0-1.514-3.81 14.476 14.476 0 0 0-1.65-3.34A17.957 17.957 0 0 0 38.533 6a24.374 24.374 0 0 0-5.855-1.35 21.215 21.215 0 0 0-14.99 4.49 21.487 21.487 0 0 0-5.172 5.39A33.254 33.254 0 0 0 8.31 25c-.095.38.631-.1.62-.09.295-.12 1.157-.64 1.252-.99z" class="cls-1" data-name="Pfad 949" transform="translate(.04 .019)"/>
            <path id="Pfad_950" d="M39.49 19.13l2.43.59L46.39 22a10.53 10.53 0 0 0 2.3 1.26 1.14 1.14 0 0 0 .61 0 .54.54 0 0 0 .36-.29 38.71 38.71 0 0 0 5-5.37c.13-.13-1.47-1.24-1.77-.92q-2.85 7.78-7.22 3.9c-.39-.23-.79-.44-1.2-.65a24.61 24.61 0 0 0-6-2.27c-.21-.07.62 1.34 1.02 1.47z" class="cls-1" data-name="Pfad 950" transform="translate(2.04 .704)"/>
            <path id="Pfad_951" d="M40.17 20.83a20.56 20.56 0 0 1 4.7 1.61c1.22.61 3.33 2.36 4.55 2.47.26 0 .19.11.5.05a.57.57 0 0 0 .56-.39c1.68-1.75 3.34-3.52 5-5.33 0 0-2.62-2-3-1.6-5.48 5.54-2.88 5.49-7.18 3.19a27.55 27.55 0 0 0-7.15-2.74c-.49-.11.39.91.34.84.33.44 1.1 1.77 1.68 1.9z" class="cls-1" data-name="Pfad 951" transform="translate(2.04 .756)"/>
            <path id="Pfad_952" d="M39.64 18.25a25.7 25.7 0 0 1 6.75 2.85 8.4 8.4 0 0 0 2.48 1.33 1.31 1.31 0 0 0 .56-.06l.57-.48 4.74-5.37c.17-.19-1-.93-1.2-.65l-5.29 5.57-3.25-1.8a23.68 23.68 0 0 0-6-2.36c-.22-.08.35.9.64.97z" class="cls-1" data-name="Pfad 952" transform="translate(2.04 .67)"/>
            <path id="Pfad_953" d="M39.83 23.42a20.22 20.22 0 0 1 6.81 2.92c.83.49 1.69.95 2.56 1.36a.59.59 0 0 0 .63-.1 19.27 19.27 0 0 1 5-6.11s-3.18-2.49-3.64-2.06c-6 5.51-3.82 4.73-8.62 2.21a24.12 24.12 0 0 0-6-2.16c.05 0 1.42 2.06 1.45 2.09.42.43 1.15 1.69 1.81 1.85z" class="cls-1" data-name="Pfad 953" transform="translate(2.04 .849)"/>
            <path id="Pfad_954" d="M39.6 21.48a20.14 20.14 0 0 1 4.72 1.63c1.2.61 3.38 2.42 4.57 2.5.29 0 .18.13.51 0a.55.55 0 0 0 .52-.43 45.23 45.23 0 0 1 4.89-5.38s-2.53-2-2.94-1.57c-5.07 4.92-3 5.47-6.2 3.64a28 28 0 0 0-8.16-3.27c-.49-.11.4.93.35.87.34.53 1.14 1.87 1.74 2.01z" class="cls-1" data-name="Pfad 954" transform="translate(2.04 .782)"/>
            <path id="Pfad_955" d="M39.14 19.9A21.83 21.83 0 0 1 45 22.13l2.19 1.21a12.07 12.07 0 0 0 1.37.74c2-.14 7.82-7.78 5.84-5.68.11-.11-1.65-1.37-2-1-5.74 5.87-3.23 5.78-7.41 3.51a27.55 27.55 0 0 0-7-2.75c-.39-.09.15.63.13.6.1.24.65 1.05 1.02 1.14z" class="cls-1" data-name="Pfad 955" transform="translate(2.04 .734)"/>
            <path id="Pfad_956" d="M40.74 23.35a19.8 19.8 0 0 1 6.75 2.86 27.059 27.059 0 0 0 2.56 1.34.6.6 0 0 0 .65-.08 45.621 45.621 0 0 1 5.12-6.09s-3.63-2.8-4.11-2.34c-6 5.63-3.63 4.81-8.46 2.25a24.09 24.09 0 0 0-6-2.22.75.75 0 0 0 .24.55q.66.87 1.35 1.71c.38.47 1.16 1.85 1.9 2.02z" class="cls-1" data-name="Pfad 956" transform="translate(2.04 .838)"/>
            <path id="Pfad_957" d="M48.766 32.55l-.9 2.51a19.473 19.473 0 0 1-8.982 7.7c-8.142 3.77-19.16 5.31-27.166-1.26l2.476 2.41-3.956-4.28 2.036 2.74-3.15-4.82 1.584 3.05-2.12-5.29L9.7 38.65c-.073-.34-1.458-5.88-1.354-6-.115.14-.073-.14-.157.42a7.542 7.542 0 0 0 .178 1.74c.231 1.83.619 2.36 1.71 4.32a15.168 15.168 0 0 0 3.9 5 14.382 14.382 0 0 0 4.585 2.34c7.345 2.24 14.91 0 21.489-3.24a25.289 25.289 0 0 0 4.849-3.12c.672-.57 1.364-1.23 1.983-1.86a15.442 15.442 0 0 0 3.872-6.73c.136-.38-.661.08-.64.07-.321.13-1.203.61-1.349.96z" class="cls-1" data-name="Pfad 957" transform="translate(.04 1.845)"/>
            <path id="Pfad_958" d="M47.48 34.17l-.85 2.51-5 5.64a25.47 25.47 0 0 1-6 3.12c-9.18 3.49-19.49 4.9-25.82-6l.83 1.84-1.45-5.89c-.13-.79-.43-.92-.37 0a12.92 12.92 0 0 0 1.57 6 15.83 15.83 0 0 0 12.75 7.37C28.7 49 34 47.27 39 44.85a24.88 24.88 0 0 0 4.77-3.14 23.53 23.53 0 0 0 2.89-2.93 16.41 16.41 0 0 0 3-5.85c.14-.42-.74.14-.69.12-.34.2-1.35.68-1.49 1.12z" class="cls-1" data-name="Pfad 958" transform="translate(2.04 1.845)"/>
            <path id="Pfad_959" d="M48.646 31.44a11.417 11.417 0 0 1-4.021 6.46 15.759 15.759 0 0 1-3.317 2.4c-7.884 4.7-19.663 6.42-28.061 1.52l3.3 2.45-5.127-4.18 3.149 3-4.577-5 2.593 3.5L8.911 36l2.026 4-2.562-6.24 1.417 4.3L8.4 31.47a.691.691 0 0 0-.193-.47 1.947 1.947 0 0 0-.136.32 6.751 6.751 0 0 0 .273 2.47A13.748 13.748 0 0 0 9.478 38a14.838 14.838 0 0 0 10.771 7.7 25.424 25.424 0 0 0 11.117-.26 41.537 41.537 0 0 0 9.826-4.07 23.5 23.5 0 0 0 5.144-4 15.924 15.924 0 0 0 3.874-6.72c.084-.26-1.449.43-1.564.79z" class="cls-1" data-name="Pfad 959" transform="translate(.04 1.845)"/>
            <path id="Pfad_960" d="M47.916 36.83l-2.21 4.51a14.717 14.717 0 0 1-11.426 5.35 15.9 15.9 0 0 1-11.363 3.45q-10.5.17-14.6-13.14c-.063-.63-.419-.09-.4.28A13.839 13.839 0 0 0 16.3 49.17c5.09 2.36 10.9 2.23 16.223.7a36.6 36.6 0 0 0 13.227-6.43 25.81 25.81 0 0 0 4.074-4.19c1.466-1.9 1.634-2.94 2.388-5.14 0 0-2.231 1.19-2.262 1.21-.484.28-1.814.88-2.034 1.51z" class="cls-1" data-name="Pfad 960" transform="translate(.04 1.845)"/>
            <path id="Pfad_961" d="M48.566 34.91l-.881 2.51a10.6 10.6 0 0 1-7.023 5.65 16.642 16.642 0 0 1-12.432 4.46l-6.814 1L8.6 35.93c-.2-1.28-.409 0-.367.55a13.734 13.734 0 0 0 9.256 11.68 25.442 25.442 0 0 0 16.981-.38A36.844 36.844 0 0 0 44.279 43a25.031 25.031 0 0 0 4.245-3.87 16.433 16.433 0 0 0 3.145-5.94c.168-.47-1 .3-.922.26-.472.23-1.981.89-2.181 1.46z" class="cls-1" data-name="Pfad 961" transform="translate(.04 1.845)"/>
            <path id="Pfad_962" d="M48.4 33.41A8.415 8.415 0 0 1 46.8 37Q37.236 52.75 10 40.56L11.7 43l-2.782-4.5 1.282 2.59-1.9-4.81.839 2.77L8.215 34c-.073-.44-.336-.42-.325 0a12.844 12.844 0 0 0 2.21 7.24 14.433 14.433 0 0 0 6.7 5.45c5.065 2.14 10.832 1.85 16 .23a37.777 37.777 0 0 0 11.136-5.33 24.449 24.449 0 0 0 4.048-3.78A15.717 15.717 0 0 0 51 32c.147-.44-.849.2-.8.17-.407.2-1.634.76-1.8 1.24z" class="cls-1" data-name="Pfad 962" transform="translate(.04 1.845)"/>
            <path id="Pfad_963" d="M47.23 36.28A16.32 16.32 0 0 1 45.07 41l-5.72 4.72a19 19 0 0 1-3.66 1.7 48.19 48.19 0 0 1-6.09 1.89 13.24 13.24 0 0 1-3.31.54q-11.14 1.66-17.2-13c-.06-.7-.39-.08-.37.31A13.22 13.22 0 0 0 12 45.42a15.07 15.07 0 0 0 5.69 3.89c6.18 2.53 12.84 1 18.8-1.41a27.5 27.5 0 0 0 7.55-4.32c.8-.67 1.62-1.41 2.36-2.15a16.89 16.89 0 0 0 4-7.08c.17-.49-1 .34-.95.3-.45.35-2.02 1.02-2.22 1.63z" class="cls-1" data-name="Pfad 963" transform="translate(2.04 1.845)"/>
            <path id="Pfad_964" d="M5.24 31.47L.48 38.55 3.14 38A13.52 13.52 0 0 1 6 34a8.25 8.25 0 0 1 3.29-2.7l-.59-.23.44.32-.73-1.12c1.1 2.46.43 1.1 4.57 3.21a2.52 2.52 0 0 0 1.36.09c-.09 0 .82-.1.47-.28-3-1.52-4.46-4.23-7.3-3.4a16.7 16.7 0 0 0-2.64 2.47 29.3 29.3 0 0 0-4.39 6.19c-.22.36.74.09.74.09.4-.07 1.66-.22 1.92-.61l4.77-6.9c.24-.35-.72-.14-.72-.14-.37.01-1.71.13-1.95.48z" class="cls-1" data-name="Pfad 964" transform="translate(.04 1.312)"/>
            <path id="Pfad_965" d="M5.87 33.09l-4.76 7.07 2.4-.46a13.89 13.89 0 0 1 2.81-4.15 7.82 7.82 0 0 1 3.51-2.83l-1-.46.82.57-.71-1c1 2.23.46 1.05 3.83 3.45.39.28 1.55.06 2 0-.12 0 1.07-.09.66-.31-3.38-1.84-4.43-4.47-7.26-3.51a5.48 5.48 0 0 0-2.63 2.38 29.83 29.83 0 0 0-4.43 6.32c-.21.35.67.11.67.11.38-.07 1.48-.21 1.73-.57l4.76-6.91c.23-.33-.65-.15-.66-.15-.34.04-1.51.12-1.74.45z" class="cls-1" data-name="Pfad 965" transform="translate(.04 1.381)"/>
            <path id="Pfad_966" d="M5.18 30.31L.42 37.38l2.51-.47a16.63 16.63 0 0 1 6.26-6.66L8.6 30l.45.34-.72-1.17c1.12 2.66.35 1.17 5.14 2.81a2.81 2.81 0 0 0 1.16.24c.19 0 .27-.21.07-.31s-6.13-3.3-6.45-3.29c-1.11 0-1.11.39-2.12 1.33a33.7 33.7 0 0 0-5.71 7.43c-.22.36.69.1.7.1.38-.07 1.56-.21 1.81-.57L7.7 30a3.78 3.78 0 0 0-2.52.31z" class="cls-1" data-name="Pfad 966" transform="translate(.04 1.262)"/>
            <path id="Pfad_967" d="M4.7 35.42l-4.7 7 3.75-.91a11.48 11.48 0 0 1 5.4-6.83l-1.7-.82 4.15 5c.23.27 1.59-.52 1.72-.57-.06 0 1.7-.86 1.55-.94-2-1-4.7-4.62-7.48-3.76A7.56 7.56 0 0 0 4.79 36 46.881 46.881 0 0 0 0 42.42c-.28.41 1 0 1 0 .54-.12 2.33-.31 2.68-.81l4.87-7a19.24 19.24 0 0 0-2 .2c-.37.11-1.55.19-1.85.61z" class="cls-1" data-name="Pfad 967" transform="translate(.04 1.479)"/>
            <path id="Pfad_968" d="M5.16 33.73L.41 40.82l3.17-.75a11.94 11.94 0 0 1 5.83-6.89l-1.72-.86 4.54 4.08c.35.31 1.39-.12 1.72-.21.07 0 1.29-.31.91-.51-2-1-4.53-4.46-7.24-3.64A7 7 0 0 0 5 34.42a36 36 0 0 0-4.57 6.4c-.25.39.87.06.85.06.46-.09 2-.27 2.26-.7l4.77-6.89c.26-.38-.85-.12-.84-.12-.47.06-2.04.16-2.31.56z" class="cls-1" data-name="Pfad 968" transform="translate(.04 1.41)"/>
            <path id="Pfad_969" d="M4.82 32.33L.08 39.41l3.15-.64L9 32.11l-.59-.22.44.31-.73-1.09c1.1 2.38.49 1.08 4.37 3.45a2.77 2.77 0 0 0 1.51 0c-.07 0 .85-.14.49-.32S8.32 30.57 8 30.58c-1 .05-1.08.42-2.07 1.33a35.79 35.79 0 0 0-5.85 7.5c-.26.4.88.06.86.06.46-.09 2-.26 2.29-.7L8 31.88c.26-.38-.86-.11-.86-.12-.42.06-2.05.16-2.32.57z" class="cls-1" data-name="Pfad 969" transform="translate(.04 1.35)"/>
            <path id="Pfad_970" d="M5.82 35l-4.76 7.12 2.78-.56a12.73 12.73 0 0 1 2.59-4.16 7.38 7.38 0 0 1 3.39-2.87l-1-.4.66.44-.7-1.14a9.28 9.28 0 0 0 3.06 4.08c.35.41 2-.08 2.37-.14.1 0 1.72-.26 1.33-.47-3.54-1.9-4.49-4.54-7.36-3.51a6.62 6.62 0 0 0-2.63 2.37 34.94 34.94 0 0 0-4.49 6.36c-.23.38.78.08.77.08.42-.08 1.73-.24 2-.64l4.77-6.9c.25-.36-.76-.13-.76-.13-.37.05-1.77.14-2.02.47z" class="cls-1" data-name="Pfad 970" transform="translate(.04 1.466)"/>
        </g>
    </g>
</svg>
