<svg xmlns="http://www.w3.org/2000/svg" viewBox="0 0 71.784 68.842">
    <defs>
        <style>
            .cls-1{fill:#0fbcf9;opacity:.18}
        </style>
    </defs>
    <g id="Element_2" data-name="Element 2" transform="rotate(-14.98 65.624 19.453)">
        <g id="Ebene_1" data-name="Ebene 1">
            <path id="Pfad_815" d="M3.71 48.59a12.79 12.79 0 0 1 2-5.27l1.7-2.27a41.74 41.74 0 0 1 4.09-4 69.07 69.07 0 0 1 8.19-6.71A95.68 95.68 0 0 1 38 19.71a73.059 73.059 0 0 1 9.92-3.82 94.889 94.889 0 0 1 13.81-3.26c.45-.08-.68-.45-.52-.4a4.09 4.09 0 0 0-1.75-.29 94.781 94.781 0 0 0-14.09 3.59l-6.82 2.58A94 94 0 0 0 16.65 31a72.55 72.55 0 0 0-11.4 10.61 25 25 0 0 0-2.7 3.68 14.88 14.88 0 0 0-2 5.53c-.13.52 1-.43 1-.38.45-.35 1.99-1.21 2.16-1.85z" class="cls-1" data-name="Pfad 815"/>
            <path id="Pfad_816" d="M4.18 50.32A12.79 12.79 0 0 1 6.23 45L8 42.71a39 39 0 0 1 4.17-4.06 69.84 69.84 0 0 1 8.24-6.72 96.291 96.291 0 0 1 18.4-10.61 72.05 72.05 0 0 1 9.95-3.8 94.921 94.921 0 0 1 13.82-3.23c.54-.1-1-.52-.79-.46a6.54 6.54 0 0 0-2.53-.48 124.061 124.061 0 0 0-20.64 6.36 93.93 93.93 0 0 0-21.54 12.95A69.289 69.289 0 0 0 6 43.14a26 26 0 0 0-2.59 3.6 14.73 14.73 0 0 0-1.94 5.44c-.11.48.9-.33.84-.29.41-.3 1.69-1.01 1.87-1.57z" class="cls-1" data-name="Pfad 816"/>
            <path id="Pfad_817" d="M3.9 47.11a18.09 18.09 0 0 1 5.51-9.35 105.2 105.2 0 0 1 10.26-8.6 89.36 89.36 0 0 1 15-9.18l6.47-2.86a94.49 94.49 0 0 1 20.53-5.64c.41-.08-.57-.44-.44-.39a3.06 3.06 0 0 0-1.49-.23 95.688 95.688 0 0 0-14.24 3.53A97.517 97.517 0 0 0 31.93 20a100.691 100.691 0 0 0-18.41 12.1 64.21 64.21 0 0 0-9.66 9.7 20.36 20.36 0 0 0-3.07 5.28c-.31 1-.57 2-.79 3.05 0 0 2-1.33 2.07-1.36.44-.34 1.66-1.03 1.83-1.66z" class="cls-1" data-name="Pfad 817"/>
            <path id="Pfad_818" d="M3.39 52.48l3.67-7.42L9 43a94.71 94.71 0 0 1 22.44-16.4 96 96 0 0 1 13-5.73 116.439 116.439 0 0 1 17.28-4.42c.53-.1-1-.52-.75-.46a5.79 5.79 0 0 0-2.38-.45A96.382 96.382 0 0 0 45 19.28a97.59 97.59 0 0 0-13 5.66A95.08 95.08 0 0 0 9.49 41.35a32.69 32.69 0 0 0-5.41 6.5 15.37 15.37 0 0 0-2 5.37c-.03.3 1.22-.41 1.31-.74z" class="cls-1" data-name="Pfad 818"/>
            <path id="Pfad_819" d="M3.46 51a9.46 9.46 0 0 1 1.39-4 19.21 19.21 0 0 1 6.56-7.65 95.49 95.49 0 0 1 14.11-10.74 90.2 90.2 0 0 1 15.8-8.09 120.642 120.642 0 0 1 20.55-5.63c.51-.1-.88-.5-.68-.44A5.29 5.29 0 0 0 59 14a124.1 124.1 0 0 0-20.49 6.3 93.82 93.82 0 0 0-21.46 12.83A71 71 0 0 0 6 43.43 24.35 24.35 0 0 0 3.4 47a14.21 14.21 0 0 0-1.94 5.38c-.11.41.68-.17.65-.15.33-.23 1.23-.76 1.35-1.23z" class="cls-1" data-name="Pfad 819"/>
            <path id="Pfad_820" d="M3.21 49.58a9.62 9.62 0 0 1 1.38-4 19 19 0 0 1 6.5-7.59A96.089 96.089 0 0 1 25.17 27.2a91.31 91.31 0 0 1 15.77-8.09 122.1 122.1 0 0 1 20.51-5.64c.45-.09-.66-.45-.51-.41a3.83 3.83 0 0 0-1.7-.28 123.279 123.279 0 0 0-20.74 6.16 93.38 93.38 0 0 0-21.77 12.79A72.35 72.35 0 0 0 5.41 42.18a23.76 23.76 0 0 0-2.69 3.62 14.75 14.75 0 0 0-2 5.47c-.12.46.84-.28.78-.24.39-.27 1.57-.94 1.71-1.45z" class="cls-1" data-name="Pfad 820"/>
            <path id="Pfad_821" d="M4.06 52.35l.71-2.77a42.86 42.86 0 0 1 10-11.24A88.239 88.239 0 0 1 29.21 28a114.59 114.59 0 0 1 12.89-6.16c6.69-2.72 13.58-4.21 20.64-5.55.59-.11-1.21-.55-1-.48a7.92 7.92 0 0 0-2.95-.52A87.541 87.541 0 0 0 45.16 19l-6.61 2.64a93.6 93.6 0 0 0-21.14 12.87 67.63 67.63 0 0 0-10.78 10.2 25.64 25.64 0 0 0-2.48 3.46 14 14 0 0 0-1.84 5.29c-.1.38.6-.11.58-.1.3-.14 1.11-.65 1.17-1.01z" class="cls-1" data-name="Pfad 821"/>
            <path id="Pfad_822" d="M53.33 1.92a10.18 10.18 0 0 1 4.75 2q4.83 3.24 9.71 6.43l-.51-1.24v1.41l.19-.75q-5.31 7.13-10.29 14.48c-.08.11-.72 1-.58 1.13s.31 0 .47-.23l10.38-13.88.4-.32a1.56 1.56 0 0 0 .22-.68 2.88 2.88 0 0 0-.5-1.27 3.13 3.13 0 0 0-.9-.8l-8.3-5a15 15 0 0 0-2.9-1.68C53.85.7 54.52 1 52.2.48c-.37-.08.14.57.12.53a2.4 2.4 0 0 0 1.01.91z" class="cls-1" data-name="Pfad 822"/>
            <path id="Pfad_823" d="M54 3.64A7.87 7.87 0 0 1 58 5q5.07 3.48 10.35 6.64l-1.47-2.53 1.28 3.28-.77-2.46.11 1.54v-1.38l-9.47 15.2c-.19.3-.95 1.21-.85 1.61s.55-.37.56-.39q2.39-10.74 10.66-13.85a2.05 2.05 0 0 0 .22-.5c.24-.59-.87-2.65-1.27-3C65 6.94 57 2.89 58 3.48l-2-1.14A9.7 9.7 0 0 0 51.78 1c-.5-.09.48.91.41.83.38.46 1.22 1.68 1.81 1.81z" class="cls-1" data-name="Pfad 823"/>
            <path id="Pfad_824" d="M53.46 1a8.06 8.06 0 0 1 3.86 1.45q5.15 3.49 10 7.42c-3.43 4.48-8.11 10.52-10.56 13.73-.22.29-.42 1.26 0 .65Q60 14.81 67.63 10.44a1.24 1.24 0 0 0 .43-.42A1.12 1.12 0 0 0 68 8.9a3 3 0 0 0-.75-.9Q62 5 57 1.56A9.17 9.17 0 0 0 52.87 0c-.58-.13.28.91.59 1z" class="cls-1" data-name="Pfad 824"/>
            <path id="Pfad_825" d="M53.5 6.09a7.66 7.66 0 0 1 4.06 1.5q5.22 3.75 10.51 7.41l-2.44-4.73.24.75-.07-.61-9.52 18.74c-.27.54-.07.57.27.17Q59 18.07 67.5 15.77a.7.7 0 0 0 .72-.69c.25-.45-.61-1.6-.82-2-.39-.77-.86-2.4-1.61-2.89C62.47 8 58.82 6.4 55.4 4.39a13.91 13.91 0 0 0-5.11-1.81 12.992 12.992 0 0 1 1.15 1.49c.48.51 1.34 1.87 2.06 2.02z" class="cls-1" data-name="Pfad 825"/>
            <path id="Pfad_826" d="M53.44 4.27a7.8 7.8 0 0 1 4 1.43q5.13 3.54 10.35 6.94l-1.23-2.76.44 2.95-.11-2.53-9.6 15.94s-1.05 2.22-.36 1.3q2.59-10.78 11-14c.08-.18.16-.37.23-.56.25-.61-1-3.08-1.47-3.44A65.87 65.87 0 0 0 57.27 4l-1.92-1.13a9.62 9.62 0 0 0-4.18-1.24c-.5-.09.48.91.41.83.42.44 1.24 1.68 1.86 1.81z" class="cls-1" data-name="Pfad 826"/>
            <path id="Pfad_827" d="M53 2.71a9.65 9.65 0 0 1 5.64 2.52q4.36 2.9 8.79 5.82l-.71-1.66-9.64 15.22c-.19.28-.9 1.14-.8 1.51s.52-.33.54-.35L67 12.11l.32-.2c.45-.72.07.61.46-.79a3.38 3.38 0 0 0-.85-2c-2.2-2.2-11.23-6.78-9.29-5.62-.63-.39-1.26-.78-1.9-1.14A9.27 9.27 0 0 0 51.62 1c-.4-.08.21.64.18.59.2.33.79 1.04 1.2 1.12z" class="cls-1" data-name="Pfad 827"/>
            <path id="Pfad_828" d="M54.6 6.07a10 10 0 0 1 4.74 2.06q4.74 3.38 9.53 6.68L66.39 10l.27.81-.07-.6-9.46 18.61c-.25.49 0 .51.27.16q2.12-12.51 10.86-13.53a.63.63 0 0 0 .74-.55c.27-.41-.65-1.66-.83-2-.42-.82-.87-2.38-1.64-2.93C63.3 7.59 59.52 6.07 56.06 4a14.4 14.4 0 0 0-5.2-1.88.73.73 0 0 0 .28.52c.47.54 1 1.07 1.45 1.58s1.29 1.7 2.01 1.85z" class="cls-1" data-name="Pfad 828"/>
        </g>
    </g>
</svg>
