<svg xmlns="http://www.w3.org/2000/svg" viewBox="0 0 153.686 72.34">
  <g id="Gruppe_632" data-name="Gruppe 632" transform="translate(-2964 -7676.188)">
    <g id="Element_2" data-name="Element 2" transform="matrix(0.998, 0.07, -0.07, 0.998, 3048.953, 7690.669)">
      <g id="Ebene_1" data-name="Ebene 1">
        <path id="Pfad_815" data-name="Pfad 815" d="M3.71,48.59a12.79,12.79,0,0,1,2-5.27l1.7-2.27a41.74,41.74,0,0,1,4.09-4,69.07,69.07,0,0,1,8.19-6.71A95.68,95.68,0,0,1,38,19.71a73.059,73.059,0,0,1,9.92-3.82,94.889,94.889,0,0,1,13.81-3.26c.45-.08-.68-.45-.52-.4a4.09,4.09,0,0,0-1.75-.29,94.781,94.781,0,0,0-14.09,3.59l-6.82,2.58A94,94,0,0,0,16.65,31,72.55,72.55,0,0,0,5.25,41.61a25,25,0,0,0-2.7,3.68,14.88,14.88,0,0,0-2,5.53c-.13.52,1-.43,1-.38C2,50.09,3.54,49.23,3.71,48.59Z" fill="#717AFA" opacity="0.18"/>
        <path id="Pfad_816" data-name="Pfad 816" d="M4.18,50.32A12.79,12.79,0,0,1,6.23,45L8,42.71a39,39,0,0,1,4.17-4.06,69.84,69.84,0,0,1,8.24-6.72,96.291,96.291,0,0,1,18.4-10.61,72.05,72.05,0,0,1,9.95-3.8,94.921,94.921,0,0,1,13.82-3.23c.54-.1-1-.52-.79-.46a6.54,6.54,0,0,0-2.53-.48,124.061,124.061,0,0,0-20.64,6.36A93.93,93.93,0,0,0,17.08,32.66,69.289,69.289,0,0,0,6,43.14a26,26,0,0,0-2.59,3.6,14.73,14.73,0,0,0-1.94,5.44c-.11.48.9-.33.84-.29C2.72,51.59,4,50.88,4.18,50.32Z" fill="#717AFA" opacity="0.18"/>
        <path id="Pfad_817" data-name="Pfad 817" d="M3.9,47.11a18.09,18.09,0,0,1,5.51-9.35,105.2,105.2,0,0,1,10.26-8.6,89.36,89.36,0,0,1,15-9.18l6.47-2.86a94.49,94.49,0,0,1,20.53-5.64c.41-.08-.57-.44-.44-.39a3.06,3.06,0,0,0-1.49-.23A95.688,95.688,0,0,0,45.5,14.39,97.517,97.517,0,0,0,31.93,20,100.691,100.691,0,0,0,13.52,32.1a64.21,64.21,0,0,0-9.66,9.7A20.36,20.36,0,0,0,.79,47.08c-.31,1-.57,2-.79,3.05,0,0,2-1.33,2.07-1.36C2.51,48.43,3.73,47.74,3.9,47.11Z" fill="#717AFA" opacity="0.18"/>
        <path id="Pfad_818" data-name="Pfad 818" d="M3.39,52.48l3.67-7.42L9,43A94.71,94.71,0,0,1,31.44,26.6a96,96,0,0,1,13-5.73,116.439,116.439,0,0,1,17.28-4.42c.53-.1-1-.52-.75-.46a5.79,5.79,0,0,0-2.38-.45A96.382,96.382,0,0,0,45,19.28a97.59,97.59,0,0,0-13,5.66A95.08,95.08,0,0,0,9.49,41.35a32.69,32.69,0,0,0-5.41,6.5,15.37,15.37,0,0,0-2,5.37C2.05,53.52,3.3,52.81,3.39,52.48Z" fill="#717AFA" opacity="0.18"/>
        <path id="Pfad_819" data-name="Pfad 819" d="M3.46,51a9.46,9.46,0,0,1,1.39-4,19.21,19.21,0,0,1,6.56-7.65A95.49,95.49,0,0,1,25.52,28.61a90.2,90.2,0,0,1,15.8-8.09,120.642,120.642,0,0,1,20.55-5.63c.51-.1-.88-.5-.68-.44A5.29,5.29,0,0,0,59,14a124.1,124.1,0,0,0-20.49,6.3A93.82,93.82,0,0,0,17.05,33.13,71,71,0,0,0,6,43.43,24.35,24.35,0,0,0,3.4,47a14.21,14.21,0,0,0-1.94,5.38c-.11.41.68-.17.65-.15C2.44,52,3.34,51.47,3.46,51Z" fill="#717AFA" opacity="0.18"/>
        <path id="Pfad_820" data-name="Pfad 820" d="M3.21,49.58a9.62,9.62,0,0,1,1.38-4,19,19,0,0,1,6.5-7.59A96.089,96.089,0,0,1,25.17,27.2a91.31,91.31,0,0,1,15.77-8.09,122.1,122.1,0,0,1,20.51-5.64c.45-.09-.66-.45-.51-.41a3.83,3.83,0,0,0-1.7-.28A123.279,123.279,0,0,0,38.5,18.94,93.38,93.38,0,0,0,16.73,31.73,72.35,72.35,0,0,0,5.41,42.18,23.76,23.76,0,0,0,2.72,45.8a14.75,14.75,0,0,0-2,5.47c-.12.46.84-.28.78-.24C1.89,50.76,3.07,50.09,3.21,49.58Z" fill="#717AFA" opacity="0.18"/>
        <path id="Pfad_821" data-name="Pfad 821" d="M4.06,52.35l.71-2.77a42.86,42.86,0,0,1,10-11.24A88.239,88.239,0,0,1,29.21,28,114.59,114.59,0,0,1,42.1,21.84c6.69-2.72,13.58-4.21,20.64-5.55.59-.11-1.21-.55-1-.48a7.92,7.92,0,0,0-2.95-.52A87.541,87.541,0,0,0,45.16,19l-6.61,2.64A93.6,93.6,0,0,0,17.41,34.51,67.63,67.63,0,0,0,6.63,44.71a25.64,25.64,0,0,0-2.48,3.46,14,14,0,0,0-1.84,5.29c-.1.38.6-.11.58-.1C3.19,53.22,4,52.71,4.06,52.35Z" fill="#717AFA" opacity="0.18"/>
        <path id="Pfad_822" data-name="Pfad 822" d="M53.33,1.92a10.18,10.18,0,0,1,4.75,2q4.83,3.24,9.71,6.43l-.51-1.24v1.41l.19-.75Q62.16,16.9,57.18,24.25c-.08.11-.72,1-.58,1.13s.31,0,.47-.23L67.45,11.27l.4-.32a1.56,1.56,0,0,0,.22-.68A2.88,2.88,0,0,0,67.57,9a3.13,3.13,0,0,0-.9-.8l-8.3-5a15,15,0,0,0-2.9-1.68C53.85.7,54.52,1,52.2.48c-.37-.08.14.57.12.53a2.4,2.4,0,0,0,1.01.91Z" fill="#717AFA" opacity="0.18"/>
        <path id="Pfad_823" data-name="Pfad 823" d="M54,3.64A7.87,7.87,0,0,1,58,5q5.07,3.48,10.35,6.64L66.88,9.11l1.28,3.28-.77-2.46.11,1.54V10.09l-9.47,15.2c-.19.3-.95,1.21-.85,1.61s.55-.37.56-.39Q60.13,15.77,68.4,12.66a2.05,2.05,0,0,0,.22-.5c.24-.59-.87-2.65-1.27-3C65,6.94,57,2.89,58,3.48L56,2.34A9.7,9.7,0,0,0,51.78,1c-.5-.09.48.91.41.83C52.57,2.29,53.41,3.51,54,3.64Z" fill="#717AFA" opacity="0.18"/>
        <path id="Pfad_824" data-name="Pfad 824" d="M53.46,1a8.06,8.06,0,0,1,3.86,1.45q5.15,3.49,10,7.42c-3.43,4.48-8.11,10.52-10.56,13.73-.22.29-.42,1.26,0,.65Q60,14.81,67.63,10.44a1.24,1.24,0,0,0,.43-.42A1.12,1.12,0,0,0,68,8.9a3,3,0,0,0-.75-.9Q62,5,57,1.56A9.17,9.17,0,0,0,52.87,0C52.29-.13,53.15.91,53.46,1Z" fill="#717AFA" opacity="0.18"/>
        <path id="Pfad_825" data-name="Pfad 825" d="M53.5,6.09a7.66,7.66,0,0,1,4.06,1.5Q62.78,11.34,68.07,15l-2.44-4.73.24.75-.07-.61L56.28,29.15c-.27.54-.07.57.27.17Q59,18.07,67.5,15.77a.7.7,0,0,0,.72-.69c.25-.45-.61-1.6-.82-2-.39-.77-.86-2.4-1.61-2.89C62.47,8,58.82,6.4,55.4,4.39a13.91,13.91,0,0,0-5.11-1.81,12.992,12.992,0,0,1,1.15,1.49C51.92,4.58,52.78,5.94,53.5,6.09Z" fill="#717AFA" opacity="0.18"/>
        <path id="Pfad_826" data-name="Pfad 826" d="M53.44,4.27a7.8,7.8,0,0,1,4,1.43q5.13,3.54,10.35,6.94L66.56,9.88,67,12.83l-.11-2.53-9.6,15.94s-1.05,2.22-.36,1.3q2.59-10.78,11-14c.08-.18.16-.37.23-.56.25-.61-1-3.08-1.47-3.44A65.87,65.87,0,0,0,57.27,4L55.35,2.87a9.62,9.62,0,0,0-4.18-1.24c-.5-.09.48.91.41.83C52,2.9,52.82,4.14,53.44,4.27Z" fill="#717AFA" opacity="0.18"/>
        <path id="Pfad_827" data-name="Pfad 827" d="M53,2.71a9.65,9.65,0,0,1,5.64,2.52q4.36,2.9,8.79,5.82l-.71-1.66L57.08,24.61c-.19.28-.9,1.14-.8,1.51s.52-.33.54-.35L67,12.11l.32-.2c.45-.72.07.61.46-.79a3.38,3.38,0,0,0-.85-2c-2.2-2.2-11.23-6.78-9.29-5.62-.63-.39-1.26-.78-1.9-1.14A9.27,9.27,0,0,0,51.62,1c-.4-.08.21.64.18.59C52,1.92,52.59,2.63,53,2.71Z" fill="#717AFA" opacity="0.18"/>
        <path id="Pfad_828" data-name="Pfad 828" d="M54.6,6.07a10,10,0,0,1,4.74,2.06q4.74,3.38,9.53,6.68L66.39,10l.27.81-.07-.6L57.13,28.82c-.25.49,0,.51.27.16q2.12-12.51,10.86-13.53A.63.63,0,0,0,69,14.9c.27-.41-.65-1.66-.83-2-.42-.82-.87-2.38-1.64-2.93C63.3,7.59,59.52,6.07,56.06,4a14.4,14.4,0,0,0-5.2-1.88.73.73,0,0,0,.28.52c.47.54,1,1.07,1.45,1.58S53.88,5.92,54.6,6.07Z" fill="#717AFA" opacity="0.18"/>
      </g>
    </g>
    <g id="Gruppe_631" data-name="Gruppe 631" transform="translate(1436 7425.53)">
      <path id="Pfad_829" data-name="Pfad 829" d="M12.278,58.925a7.779,7.779,0,0,0-3.215-.436L7.4,58.768a8.925,8.925,0,0,0-4.2,2.505C1.42,63.108.051,66.146.5,68.753a3.867,3.867,0,0,0,1.014,2.363,5.578,5.578,0,0,0,2.241.974,31.086,31.086,0,0,0,6.988.745c1.815,0,3.423.071,4.422,1.973l-.208-.609-.213,1.861a3.189,3.189,0,0,1-.614.639A14.5,14.5,0,0,1,9.5,79.463a11.583,11.583,0,0,1-6.724,3.043c-.309.061-.035.137.122.162a3.043,3.043,0,0,0,1.2-.035,18.616,18.616,0,0,0,4.29-1.486l1.881-1.06a17.4,17.4,0,0,0,1.912-1.359c.649-.532,1.253-1.055,1.927-1.552a3.824,3.824,0,0,0,.969-.948,2.592,2.592,0,0,0-1.045-3.317,4.564,4.564,0,0,0-1.866-.7c-1.78-.274-3.6-.137-5.4-.4l-3.124-.563a2.971,2.971,0,0,1-1.014-.461A2.86,2.86,0,0,1,1.694,69a7.1,7.1,0,0,1,.862-3.727,9.7,9.7,0,0,1,1.907-2.51A7.921,7.921,0,0,1,8.145,60.73a6.481,6.481,0,0,1,2.333-.319,7.272,7.272,0,0,1,2.825.7c.03,0-.426-1.161-.421-1.146C12.805,59.822,12.541,58.986,12.278,58.925Z" transform="translate(1527.817 223.978)" fill="#717AFA" opacity="0.18"/>
      <path id="Pfad_830" data-name="Pfad 830" d="M13.083,61.077a11.015,11.015,0,0,0-3.23-.507,8.92,8.92,0,0,0-4.747,1.653,9.593,9.593,0,0,0-4.057,7.9,4.351,4.351,0,0,0,.786,2.444A3.712,3.712,0,0,0,3.99,73.811a28.906,28.906,0,0,0,7.409.862c1.9,0,3.479.117,4.381,1.922l-.39-1.187q.695,8.418-11.983,8.935c-.223.046-.071.1,0,.162a2.084,2.084,0,0,0,.953,0,21.664,21.664,0,0,0,6.552-2.6,20.129,20.129,0,0,0,1.841-1.369c.634-.507,1.222-1.055,1.876-1.521.456-.335,1.192-.938,1.313-1.521A3.474,3.474,0,0,0,14.29,74.11a8.758,8.758,0,0,0-3.895-.832,32.766,32.766,0,0,1-6.572-.827,2.1,2.1,0,0,1-1.349-1.07,3.479,3.479,0,0,1-.188-2.247,9.6,9.6,0,0,1,1.09-3.276,8.418,8.418,0,0,1,2.713-2.85,8.738,8.738,0,0,1,7.434-.715C13.7,62.335,13.326,61.143,13.083,61.077Z" transform="translate(1527.508 222.941)" fill="#717AFA" opacity="0.18"/>
      <path id="Pfad_831" data-name="Pfad 831" d="M12.059,57.2a7.759,7.759,0,0,0-3.276-.385,9.077,9.077,0,0,0-3.281.943,9.316,9.316,0,0,0-4.143,4.513c-.964,2.1-1.775,5.578.1,7.429a5.284,5.284,0,0,0,2.2,1.131l3.169.532q1.613.127,3.24.218a22.7,22.7,0,0,1,2.419.1q3.8,2.333,1.663,3.707a3.611,3.611,0,0,0-.6.39A19.777,19.777,0,0,1,2.7,81.085c-.325.066-.046.142.127.167a3.494,3.494,0,0,0,1.242-.02,22.48,22.48,0,0,0,6.014-2.5c.619-.38,1.222-.791,1.805-1.227.715-.507,1.395-1.1,2.11-1.623a2.733,2.733,0,0,0,1.3-1.491,2.627,2.627,0,0,0-1.1-2.414,5.913,5.913,0,0,0-3.55-.8c-2.8-.035-9.757.233-9.052-4.3l.548-1.724a5.74,5.74,0,0,1,.791-1.729,10.416,10.416,0,0,1,2.176-2.424A7.982,7.982,0,0,1,9.163,59.32l1.521-.03a6.917,6.917,0,0,1,2.7.8c-.041-.01-.548-1.466-.548-1.481C12.738,58.412,12.358,57.271,12.059,57.2Z" transform="translate(1527.858 224.81)" fill="#717AFA" opacity="0.18"/>
      <path id="Pfad_832" data-name="Pfad 832" d="M12.081,63.037a9.483,9.483,0,0,0-4.823-.172A6.192,6.192,0,0,0,4.89,63.879,10.142,10.142,0,0,0-.019,71.9a5.157,5.157,0,0,0,.456,2.617A3.469,3.469,0,0,0,2.6,76.151a23.916,23.916,0,0,0,7.333.933,16.125,16.125,0,0,1,2.475.056,3,3,0,0,1,2.353,1.329l-.583-1.121.771,1.7-.73-2.028.421,1.75-.254-1.278.152,2.48V78.19l-.4,2.226.36-1.572-1.521,2.662L14,80.061l-2.865,2.911,1.222-1.014A19.144,19.144,0,0,1,2.5,86.522c-.274.056-.1.086,0,.157a2.612,2.612,0,0,0,1.171,0,17.854,17.854,0,0,0,4.736-1.648,17.748,17.748,0,0,0,3.438-2.312,6.131,6.131,0,0,1,1.729-1.308l.543-.335a2.475,2.475,0,0,0,.979-1.06c.274-.852-.259-1.861-.553-2.627A3.139,3.139,0,0,0,12.659,75.5c-2.536-.984-5.274-.776-7.891-1.283a5.921,5.921,0,0,1-2.252-.588,2.667,2.667,0,0,1-.877-1.2,4.412,4.412,0,0,1,.071-1.567,10.34,10.34,0,0,1,.71-2.967,8.139,8.139,0,0,1,2.434-3.1l4.381-1.628a7.718,7.718,0,0,1,3.043.477C12.461,63.712,12.223,63.073,12.081,63.037Z" transform="translate(1528.039 221.924)" fill="#717AFA" opacity="0.18"/>
      <path id="Pfad_833" data-name="Pfad 833" d="M12.466,61.7a8.629,8.629,0,0,0-3.23-.507,9.336,9.336,0,0,0-4.757,1.638A9.7,9.7,0,0,0,.391,70.8a3.934,3.934,0,0,0,1.045,2.845,5.857,5.857,0,0,0,2.373,1.014,35.279,35.279,0,0,0,7.607.715c1.663.041,2.992.319,3.773,1.937l-.451-1.4.157,2.049.076-.806-3.479,4.275.964-.776A19.347,19.347,0,0,1,2.78,84.983c-.264.051-.091.086,0,.157a2.536,2.536,0,0,0,1.136,0,19.824,19.824,0,0,0,6.76-2.809c.583-.436,1.131-.923,1.689-1.384.948-.781,2.977-1.755,2.977-3.235a4.483,4.483,0,0,0-.416-1.729,4.07,4.07,0,0,0-3.093-2.028,11.156,11.156,0,0,0-1.587-.2c-1.161-.1-2.323-.183-3.484-.269L3.84,72.9A2.247,2.247,0,0,1,1.867,71.23a4.665,4.665,0,0,1,.157-2.318,8.723,8.723,0,0,1,1.207-2.946,8.114,8.114,0,0,1,2.262-2.343,8.365,8.365,0,0,1,7.368-.832C13.013,62.817,12.679,61.757,12.466,61.7Z" transform="translate(1527.831 222.641)" fill="#717AFA" opacity="0.18"/>
      <path id="Pfad_834" data-name="Pfad 834" d="M11.979,59.991a8,8,0,0,0-3.2-.456L7.1,59.794a9.021,9.021,0,0,0-4.234,2.414C1.05,64.038-.38,67.081.092,69.708a3.69,3.69,0,0,0,1.07,2.307,5.877,5.877,0,0,0,2.252.933,31.792,31.792,0,0,0,6.988.761c1.77,0,3.428.086,4.4,1.952l-.279-.842a2.206,2.206,0,0,1-.446,2.343A19.361,19.361,0,0,1,2.409,83.43c-.33.066-.046.142.132.162a3.464,3.464,0,0,0,1.293.005A18.964,18.964,0,0,0,8.18,82.076a19.747,19.747,0,0,0,3.773-2.536c.573-.472,1.126-.943,1.719-1.389A3.763,3.763,0,0,0,14.707,77.1c.938-1.577-.558-3.393-2-3.9-3.068-1.085-6.562-.172-9.635-1.45a2.612,2.612,0,0,1-1.613-2.7,9.022,9.022,0,0,1,.786-2.84,8.657,8.657,0,0,1,2.241-3.043,7.982,7.982,0,0,1,3.89-1.836L9.894,61.2a7.683,7.683,0,0,1,2.936.609,7.754,7.754,0,0,0-.335-.964C12.425,60.711,12.222,60.052,11.979,59.991Z" transform="translate(1528.019 223.459)" fill="#717AFA" opacity="0.18"/>
      <path id="Pfad_835" data-name="Pfad 835" d="M12.959,62.712a8.068,8.068,0,0,0-3.144-.436,7.065,7.065,0,0,0-2.465.532,6.217,6.217,0,0,0-2.307,1.166A10.036,10.036,0,0,0,.986,71.541a5.528,5.528,0,0,0,.441,2.591A3.413,3.413,0,0,0,3.522,75.77a23.307,23.307,0,0,0,7.333,1.014,17.851,17.851,0,0,1,2.5.1,3.043,3.043,0,0,1,2.343,1.308l-.913-1.668,1.065,2.2-.756-1.993.6,2.323-.4-1.836.137,2.389V77.981l-.3,1.623.233-.938-3.246,3.95,1.014-.842L3.415,86.186c-.213.046-.066.1,0,.157a1.917,1.917,0,0,0,.913,0,20.709,20.709,0,0,0,6.77-2.688,26.873,26.873,0,0,0,2.247-1.821c.548-.446,1.126-.806,1.7-1.212a2.662,2.662,0,0,0,.958-.984c.289-.822-.279-1.831-.568-2.536a3.246,3.246,0,0,0-2-1.861c-2.536-.923-5.233-.71-7.845-1.207-1.242-.243-2.855-.243-3.281-1.765a7.651,7.651,0,0,1,.725-4.762,8.342,8.342,0,0,1,5.436-4.468l1.6-.238a7.906,7.906,0,0,1,3.043.507C13.319,63.336,13.1,62.747,12.959,62.712Z" transform="translate(1527.541 222.108)" fill="#717AFA" opacity="0.18"/>
      <path id="Pfad_836" data-name="Pfad 836" d="M31.834,55.826a43.024,43.024,0,0,0-.061,6.892l.507,3.464.872,3.4a7.2,7.2,0,0,0,1.511,2.769c2.632,2.536,6.238.157,8.509-1.623.041-.03-.695-.634-.887-.467C40.7,71.6,38.432,73.357,36.251,72.4c-1.968-.867-2.383-3.4-2.825-5.244a26.619,26.619,0,0,1-.882-5.117,29.575,29.575,0,0,1,.142-6.8C32.7,55.111,31.834,55.618,31.834,55.826Z" transform="translate(1512.413 225.576)" fill="#717AFA" opacity="0.18"/>
      <path id="Pfad_837" data-name="Pfad 837" d="M32.372,57.27a31.542,31.542,0,0,0-.046,6.917c.127,1.182.3,2.358.538,3.519.38,1.846.9,4.64,2.368,6.146,2.581,2.652,6.329.086,8.555-1.658,0,0-1.146-1.045-1.4-.842a12.286,12.286,0,0,1-2.328,1.521c-1.014.507-1.968.953-3.093.456a3.656,3.656,0,0,1-1.846-1.978,18.885,18.885,0,0,1-1.8-8.053,28.485,28.485,0,0,1,.142-6.765C33.452,56.413,32.388,57.021,32.372,57.27Z" transform="translate(1512.169 224.938)" fill="#717AFA" opacity="0.18"/>
      <path id="Pfad_838" data-name="Pfad 838" d="M31.636,54.886a48.3,48.3,0,0,0-.046,6.932,26.036,26.036,0,0,0,.948,5.188,10.468,10.468,0,0,0,.624,2.211c.406,1.065,1.014,2.48,2.135,3.043,2.784,1.42,5.675-.674,7.764-2.383.172-.137-.477-.477-.614-.35a13.576,13.576,0,0,1-2.637,2.079,6.283,6.283,0,0,1-2.216.654,2.028,2.028,0,0,1-2.226-1.014,2.875,2.875,0,0,1-1.592-2A17.08,17.08,0,0,1,33.03,66.5a26.676,26.676,0,0,1-.867-5.193A29.97,29.97,0,0,1,32.3,54.47C32.305,54.3,31.646,54.719,31.636,54.886Z" transform="translate(1512.5 225.967)" fill="#717AFA" opacity="0.18"/>
      <path id="Pfad_839" data-name="Pfad 839" d="M31.016,59.183a34.139,34.139,0,0,0,0,6.978,34.631,34.631,0,0,0,1.425,6.917,6.412,6.412,0,0,0,2,3.175c2.82,2.14,6.207-.629,8.352-2.429,0,0-1.344-1.248-1.638-1.065a8.834,8.834,0,0,1-1.572.877,10.275,10.275,0,0,0-1.673.644,2.581,2.581,0,0,1-2.642-.751,5.2,5.2,0,0,1-1.374-2.779,34.383,34.383,0,0,1-1.217-6.684,21.127,21.127,0,0,1,.375-6.537l-1.08.745C31.807,58.412,31.031,58.889,31.016,59.183Z" transform="translate(1512.82 224.439)" fill="#717AFA" opacity="0.18"/>
      <path id="Pfad_840" data-name="Pfad 840" d="M31.613,57.791c-.066,1.146-.132,2.3-.193,3.443a34.408,34.408,0,0,0,.7,6.953c.38,1.846.913,4.676,2.394,6.172,2.627,2.647,6.359-.03,8.575-1.8,0,0-1.1-1.014-1.349-.816A9.635,9.635,0,0,1,40.2,72.756a17.128,17.128,0,0,0-1.7.766,2.678,2.678,0,0,1-2.46-.309,4.27,4.27,0,0,1-1.577-2.2c-1.684-4.6-1.8-9.574-1.379-14.387a6.415,6.415,0,0,0-.8.507C32.13,57.239,31.628,57.543,31.613,57.791Z" transform="translate(1512.533 224.883)" fill="#717AFA" opacity="0.18"/>
      <path id="Pfad_841" data-name="Pfad 841" d="M31.495,56.408a43.156,43.156,0,0,0-.041,6.917c.081.8.365,2.657.507,3.459.122.588.685,2.88.893,3.459a8.322,8.322,0,0,0,1.182,2.3,3.844,3.844,0,0,0,3.981,1.349,11.643,11.643,0,0,0,4.8-2.586c.03,0-.756-.685-.969-.507-1.349,1.014-3.129,2.307-4.919,2.1A3.043,3.043,0,0,1,34.9,71.784C31.49,67.4,32.174,60.9,32.615,55.617c0-.218-.355.106-.37.117C32.134,55.815,31.5,56.2,31.495,56.408Z" transform="translate(1512.575 225.419)" fill="#717AFA" opacity="0.18"/>
      <path id="Pfad_842" data-name="Pfad 842" d="M32.093,59.058a33.536,33.536,0,0,0-.025,6.932,34.443,34.443,0,0,0,1.4,6.922A6.558,6.558,0,0,0,35.409,76.1c2.764,2.236,6.222-.426,8.378-2.226-.051.041-1.521-1.359-1.866-1.141a8.18,8.18,0,0,1-1.471.893,9.51,9.51,0,0,0-1.638.695,2.566,2.566,0,0,1-2.688-.6,4.621,4.621,0,0,1-1.359-2.652,33.915,33.915,0,0,1-1.207-6.593,27.338,27.338,0,0,1,.172-6.719,9.881,9.881,0,0,0-.882.588C32.691,58.44,32.108,58.795,32.093,59.058Z" transform="translate(1512.297 224.331)" fill="#717AFA" opacity="0.18"/>
      <path id="Pfad_843" data-name="Pfad 843" d="M23.467,74.36a30.969,30.969,0,0,0,5.178.071,34.746,34.746,0,0,0,5.223-.507c.167,0-.467-.695-.664-.674a32.8,32.8,0,0,1-5.173.472,27.948,27.948,0,0,1-5.071-.091C22.772,73.63,23.269,74.355,23.467,74.36Z" transform="translate(1516.724 216.692)" fill="#717AFA" opacity="0.18"/>
      <path id="Pfad_844" data-name="Pfad 844" d="M23.642,75.581c1.151.076,2.307.122,3.459.127a45.285,45.285,0,0,0,6.978-.568c.071,0-.659-.695-.639-.674-.152-.127-.507-.543-.766-.507l-10.223.254a6.048,6.048,0,0,0,.507.756C23.1,75.1,23.4,75.576,23.642,75.581Z" transform="translate(1516.955 216.343)" fill="#717AFA" opacity="0.18"/>
      <path id="Pfad_845" data-name="Pfad 845" d="M23.787,73.652a33.542,33.542,0,0,0,5.147.03,33.42,33.42,0,0,0,5.218-.507c.193-.025-.248-.467-.39-.446a33.586,33.586,0,0,1-5.183.507,28.585,28.585,0,0,1-5.1-.076C23.29,73.15,23.64,73.647,23.787,73.652Z" transform="translate(1516.475 216.948)" fill="#717AFA" opacity="0.18"/>
      <path id="Pfad_846" data-name="Pfad 846" d="M22.733,77.737a32.6,32.6,0,0,0,5.218,0,32.847,32.847,0,0,0,5.218-.507c.025,0-.923-.842-.913-.832-.188-.147-.735-.71-1.014-.68a33.978,33.978,0,0,1-10.142.076l.751,1.014C21.967,77,22.444,77.727,22.733,77.737Z" transform="translate(1517.62 215.475)" fill="#717AFA" opacity="0.18"/>
      <path id="Pfad_847" data-name="Pfad 847" d="M23.037,76.21c1.156.056,2.307.1,3.464.122a44.539,44.539,0,0,0,6.968-.578,7.329,7.329,0,0,0-.644-.68c-.152-.127-.507-.553-.776-.507a40.919,40.919,0,0,1-10.239.218,7.1,7.1,0,0,0,.538.776C22.479,75.713,22.789,76.2,23.037,76.21Z" transform="translate(1517.27 216.044)" fill="#717AFA" opacity="0.18"/>
      <path id="Pfad_848" data-name="Pfad 848" d="M23,75.037a31.031,31.031,0,0,0,5.183.071,33.409,33.409,0,0,0,5.223-.507c.152,0-.563-.806-.786-.781a33.469,33.469,0,0,1-5.178.451,27.5,27.5,0,0,1-5.071-.137C22.21,74.144,22.772,75.026,23,75.037Z" transform="translate(1517.007 216.411)" fill="#717AFA" opacity="0.18"/>
      <path id="Pfad_849" data-name="Pfad 849" d="M23.475,77.585a34.091,34.091,0,0,0,5.239,0,32.913,32.913,0,0,0,5.228-.507l-1.06-.877c-.223-.157-.842-.745-1.177-.715a29.656,29.656,0,0,1-5.142.355,18.764,18.764,0,0,1-4.9-.37s.827,1.116.832,1.126C22.634,76.753,23.171,77.575,23.475,77.585Z" transform="translate(1517.344 215.597)" fill="#717AFA" opacity="0.18"/>
      <path id="Pfad_850" data-name="Pfad 850" d="M61.851,65.239a2.815,2.815,0,0,0-1.521-1.344,6.953,6.953,0,0,0-2.338-.446,7.175,7.175,0,0,0-3.55.477,2.058,2.058,0,0,0-.832,1.947c.041.842.1,1.689.172,2.536a10.963,10.963,0,0,0,.7,3.271,5.993,5.993,0,0,0,3.225,3.053,4.026,4.026,0,0,0,3.078-.538c3.641-2.16,2.921-6.506,2.15-9.97,0-.1-.7.588-.68.563-.091.1-.593.507-.507.7a5.843,5.843,0,0,0,1.283,2.688l1.349.923a11.157,11.157,0,0,0,2.941,1.638c.142.066-.056-.735-.243-.791a4.361,4.361,0,0,1-3.7-2.779,6.593,6.593,0,0,1-.441-2.941l-1.212,1.263c.365,2.536,1.379,5.365-.649,7.47a3.1,3.1,0,0,1-3.154.974,4.427,4.427,0,0,1-1.577-1.237,3.332,3.332,0,0,1-.928-2.028,9.407,9.407,0,0,1-.249-4.473.979.979,0,0,1,.827-.745,6.13,6.13,0,0,0,1.552.183l.877.152a3.737,3.737,0,0,1,1.613.436A2.028,2.028,0,0,1,61.049,67.5c0,.03.507-1.121.507-1.1C61.572,66.253,62,65.411,61.851,65.239Z" transform="translate(1501.596 221.533)" fill="#717AFA" opacity="0.18"/>
      <path id="Pfad_851" data-name="Pfad 851" d="M62.4,67.325a2.683,2.683,0,0,0-1.481-1.308,6.658,6.658,0,0,0-2.247-.446,7.466,7.466,0,0,0-3.357.33,2,2,0,0,0-.979,1.714,12.115,12.115,0,0,0,.066,2.571,10.34,10.34,0,0,0,.756,3.342,5.664,5.664,0,0,0,3.195,3.012,3.956,3.956,0,0,0,3.18-.472,5.781,5.781,0,0,0,2.607-3.656c.477-2.079-.137-4.28-.6-6.3,0-.1-.634.507-.609.507-.117.127-.507.426-.467.639a4.843,4.843,0,0,0,.406,1.75,2.028,2.028,0,0,0,1.273,1.324,33.785,33.785,0,0,0,3.727,2.226c.208.1-.056-.406-.041-.37-.071-.162-.325-.822-.507-.872a8.951,8.951,0,0,1-2.657-.877l.847.553A4.9,4.9,0,0,1,64,68.932a6.785,6.785,0,0,1-.467-2.749L62.445,67.2c.1,1.76.563,3.438.1,5.193a4.96,4.96,0,0,1-1.116,1.963c-1.582,1.719-3.869.887-5.01-.857a7.887,7.887,0,0,1-.933-3.712c-.076-.893-.507-3.043,1.09-3.043.34,0,1.161.091,1.354.107,1.684.152,2.946.385,3.91,1.968.051.081.39-.745.375-.715C62.263,67.974,62.527,67.487,62.4,67.325Z" transform="translate(1501.255 220.497)" fill="#717AFA" opacity="0.18"/>
      <path id="Pfad_852" data-name="Pfad 852" d="M61.786,63.454A3.869,3.869,0,0,0,60.2,62.085a6.872,6.872,0,0,0-2.439-.436c-1.187,0-2.962-.066-3.9.816s-.36,2.591-.289,3.646c.127,1.775.254,3.6,1.369,5.071.806,1.06,2.028,2.323,3.464,2.394a4.351,4.351,0,0,0,2.165-.7c3.666-2.181,3.043-6.669,2.236-10.193,0-.081-.761.72-.74.695-.076.091-.664.624-.588.822a6.841,6.841,0,0,0,1.466,2.536,14.036,14.036,0,0,0,4.234,2.632c.172.076.056-.467-.076-.507a6.542,6.542,0,0,1-3.347-2.028,5.228,5.228,0,0,1-.958-4.082L61.472,64.19a32.621,32.621,0,0,1,.756,3.717,5.883,5.883,0,0,1-.507,2.962l-.644.877q-1.663,2.14-3.509-1.334-3.281-.806-2.688-3.55c.035-.578.1-1.156.193-1.729.127-.411.233-.72.664-.893a1.881,1.881,0,0,1,1.156.056l.725.137a5.137,5.137,0,0,0,1.521.37l.695.3a1.82,1.82,0,0,1,.852,1.288.446.446,0,0,0,.188-.284q.243-.568.456-1.156C61.38,64.823,61.948,63.667,61.786,63.454Z" transform="translate(1501.732 222.41)" fill="#717AFA" opacity="0.18"/>
      <path id="Pfad_853" data-name="Pfad 853" d="M61.594,69.207a3.692,3.692,0,0,0-1.552-1.329,8.768,8.768,0,0,0-4.813-.319,2.5,2.5,0,0,0-1.283.543c-.918.867-.659,3.134-.568,4.148a8.477,8.477,0,0,0,2.028,5.391,4.153,4.153,0,0,0,4.321,1.146,5.736,5.736,0,0,0,3.261-3.874c.619-2.16.117-4.534-.33-6.679-.046-.213-.578.4-.593.507a7.389,7.389,0,0,0,.041,2.5,1.055,1.055,0,0,0,.127.507,37.472,37.472,0,0,0,4.843,2.992c.2.107-.218-.68-.254-.74-.122-.223-.431-1.055-.735-1.106a8.58,8.58,0,0,1-2.662-.644l1.258.781a6.607,6.607,0,0,1-2.028-4.8l-.593.507a33.728,33.728,0,0,1,0,4.113,3.3,3.3,0,0,1-1.116,2.439,3.149,3.149,0,0,1-1.217,1.116l-.806.248a3.159,3.159,0,0,1-2.287-.756c-1.75-1.389-1.567-4.148-2.028-6.085-.233-.928,0-1.3.948-1.755a10.457,10.457,0,0,1,2.323-.122,4.356,4.356,0,0,1,3.464,1.719C61.452,69.83,61.675,69.288,61.594,69.207Z" transform="translate(1501.761 219.594)" fill="#717AFA" opacity="0.18"/>
      <path id="Pfad_854" data-name="Pfad 854" d="M61.754,67.975a8.723,8.723,0,0,0-.593-.776,4.179,4.179,0,0,0-1.932-.862,9.767,9.767,0,0,0-4.021,0,1.876,1.876,0,0,0-1.521,1.881,12.424,12.424,0,0,0,.558,5.173c.872,2.815,3.8,5.137,6.669,3.291a5.938,5.938,0,0,0,2.536-3.651c.461-2.028-.132-4.2-.543-6.192-.035-.172-.847.583-.837.8a5.3,5.3,0,0,0,.7,2.769c.573.893,3.2,2.145,4.508,2.794.218.106-.081-.451-.061-.406-.076-.172-.36-.913-.573-.964A8.768,8.768,0,0,1,64.036,71l.872.593a4.64,4.64,0,0,1-1.521-2.084,7.1,7.1,0,0,1-.507-2.672l-.832.8c.112,1.775.593,3.646,0,5.4a5.685,5.685,0,0,1-1.237,1.856c-1.521,1.521-3.783.664-4.818-.974a8.459,8.459,0,0,1-.938-3.55,17.559,17.559,0,0,0-.137-2.064.948.948,0,0,1,.375-.857,5.106,5.106,0,0,1,1.968-.188c1.684.056,3.043.264,4.057,1.79C61.419,69.166,61.926,68.188,61.754,67.975Z" transform="translate(1501.592 220.202)" fill="#717AFA" opacity="0.18"/>
      <path id="Pfad_855" data-name="Pfad 855" d="M61.479,66.326A2.784,2.784,0,0,0,60,64.982a6.714,6.714,0,0,0-2.282-.482,7.29,7.29,0,0,0-3.489.385,2.008,2.008,0,0,0-.918,1.856,20.589,20.589,0,0,0,.132,2.556,10.589,10.589,0,0,0,.751,3.311,5.8,5.8,0,0,0,3.24,2.956,3.768,3.768,0,0,0,3.093-.507c3.58-2.16,2.809-6.44,2.028-9.874,0-.106-.573.477-.553.451-.106.122-.441.39-.406.593a5.842,5.842,0,0,0,.507,1.907,3.043,3.043,0,0,0,1.831,1.76,17.384,17.384,0,0,0,2.946,1.668c.183.081,0-.3,0-.294-.035-.127-.233-.6-.39-.644a8.433,8.433,0,0,1-2.6-.964l.644.411a4.7,4.7,0,0,1-1.521-2.059,7.1,7.1,0,0,1-.507-2.769l-.979.923c.223,1.78.806,3.58.355,5.381a5.005,5.005,0,0,1-1.248,2.125,2.728,2.728,0,0,1-2.916.786,4.564,4.564,0,0,1-2.353-2.373c-.685-1.481-.451-3.139-.507-4.711,0-.507,0-.908.558-1.116a.781.781,0,0,1,.786,0,7.758,7.758,0,0,1,1.714.112,4.361,4.361,0,0,1,1.77.406,2.236,2.236,0,0,1,1.136,1.268c.041.071.431-.872.416-.837C61.3,67.1,61.61,66.5,61.479,66.326Z" transform="translate(1501.745 221.024)" fill="#717AFA" opacity="0.18"/>
      <path id="Pfad_856" data-name="Pfad 856" d="M62.379,69.168a3.692,3.692,0,0,0-1.521-1.39,8.76,8.76,0,0,0-4.529-.467,2.536,2.536,0,0,0-1.562.578,2.754,2.754,0,0,0-.538,1.45,12.759,12.759,0,0,0,.177,3.55A7.229,7.229,0,0,0,56.73,77.7a3.834,3.834,0,0,0,4.351.629,5.543,5.543,0,0,0,2.845-3.58c.578-2.2,0-4.564-.507-6.709-.046-.193-.791.507-.8.71a5.832,5.832,0,0,0,.309,2.784c.319.715,3.626,2.3,4.965,3.043.2.106-.218-.69-.254-.751-.117-.218-.436-1.08-.735-1.126a8.773,8.773,0,0,1-2.678-.609l1.4.867a6.919,6.919,0,0,1-2.181-4.9l-.8.71c-.03,1.329.172,2.642.03,3.971a3.646,3.646,0,0,1-1.06,2.424,3.012,3.012,0,0,1-1.161,1.136l-.8.259a3.306,3.306,0,0,1-2.3-.68c-1.815-1.334-1.871-4.316-2.191-6.283-.117-.725-.051-1.369.745-1.663,1.856-.7,5.441.882,6.121,1.861C62.172,69.959,62.466,69.284,62.379,69.168Z" transform="translate(1501.316 219.663)" fill="#717AFA" opacity="0.18"/>
      <path id="Pfad_857" data-name="Pfad 857" d="M82.275,53.71l2.992,9.2c.051.147.467-.583.416-.766a19.514,19.514,0,0,1-1.75-7.059,4.564,4.564,0,0,1,.264-2.216,2.617,2.617,0,0,1,.72-1.75,1.521,1.521,0,0,1,1.613-.147l-.8-.751.365.669a1.678,1.678,0,0,0,.644.593c.1.035.309.152.177-.071-.37-.609-1.08-1.861-1.942-1.187A4.891,4.891,0,0,0,83.9,52.108c-1.455,3.408.507,7.723,1.369,10.8l.416-.761L82.741,52.99C82.691,52.828,82.214,53.533,82.275,53.71Z" transform="translate(1487.471 228.132)" fill="#717AFA" opacity="0.18"/>
      <path id="Pfad_858" data-name="Pfad 858" d="M82.9,55.151l3,9.2c.071.213.274-.294.269-.279.1-.2.431-.756.36-1.014-.543-1.8-2.115-5.452-1.836-8.023A25.47,25.47,0,0,0,85.2,52.3l-.172.634a1.232,1.232,0,0,1,1.06-.507.943.943,0,0,1,1.08.122l-1.237-1.055.406.69a3.078,3.078,0,0,0,.867.751c-.1-.066.543.35.4.132A5.579,5.579,0,0,0,86.5,51.778c-.2-.167-.507-.477-.816-.441s-.375.279-.477.456a11.77,11.77,0,0,0-1.014,2.657,6.709,6.709,0,0,0-.142,1.881c.056,3.012.827,4.468,1.856,8.018l.629-1.273-2.916-9.143c-.066-.208-.289.254-.289.259C83.231,54.355,82.831,54.938,82.9,55.151Z" transform="translate(1487.163 227.493)" fill="#717AFA" opacity="0.18"/>
      <path id="Pfad_859" data-name="Pfad 859" d="M82,53.917l3.043,9.169c.056.167.309-.284.284-.38a44.007,44.007,0,0,1-2.069-8.961l-.106.7.877-2.368-.507.953,1.014-1.389-.664.751,1.253-1.014-.8.507,1.364-.593-.877.284,1.729.218s.177,0,.106-.091c-.507-.507-.619-.467-1.278-.39a2.333,2.333,0,0,0-1.942,1.339,4.011,4.011,0,0,0-.456,1.613,3.95,3.95,0,0,0,0,.811A53.931,53.931,0,0,0,85,63.025l.284-.38-2.967-9.128C82.261,53.324,81.962,53.786,82,53.917Z" transform="translate(1487.606 227.525)" fill="#717AFA" opacity="0.18"/>
      <path id="Pfad_860" data-name="Pfad 860" d="M81.687,58.035l3.043,9.24a.411.411,0,0,0,.177-.269c.142-.365.279-.735.4-1.106s.507-1.055.385-1.435q-.887-3.129-1.729-6.278a3.377,3.377,0,0,1,0-1.917c.162-1.1.319-2.277,2.079-1.369l-1.07-.852.3.507a3.55,3.55,0,0,0,.974.8c-.106-.076.593.36.426.142-.36-.477-1.445-1.988-2.211-1.491a1.638,1.638,0,0,0-.461.74,11.957,11.957,0,0,0-.715,1.993,12.449,12.449,0,0,0-.172,2.536c-.081,3.3.3,2.86,1.623,8.018l.964-2.809L83.011,55.4s-.751,1.268-.756,1.278C82.154,56.884,81.581,57.721,81.687,58.035Z" transform="translate(1487.764 226.226)" fill="#717AFA" opacity="0.18"/>
      <path id="Pfad_861" data-name="Pfad 861" d="M82.228,56.05l3,9.128c.076.243.325-.411.314-.39.117-.254.588-1.014.507-1.313-.4-1.222-2.1-5.421-1.917-7.769.071-.882.426-1.714.461-2.607l-.132.477,2.028-.33L85.408,52.3l.355.593a2.936,2.936,0,0,0,.811.73c-.1-.066.507.34.38.127-.309-.451-1.319-2.028-2.084-1.476a1.957,1.957,0,0,0-.507.872,14.708,14.708,0,0,0-.735,1.973,6.974,6.974,0,0,0-.157,1.892v1.318A15.026,15.026,0,0,0,85.21,65.2l.816-1.7-2.906-9.219a8.813,8.813,0,0,0-.507.847C82.492,55.31,82.147,55.8,82.228,56.05Z" transform="translate(1487.497 227.086)" fill="#717AFA" opacity="0.18"/>
      <path id="Pfad_862" data-name="Pfad 862" d="M81.994,54.561l3,9.23c.071.208.264-.254.259-.238.091-.183.38-.674.314-.893a20.944,20.944,0,0,1-1.815-6.922,4.386,4.386,0,0,1,.2-2.155c.233-1.055.446-2.378,2.145-1.694l-.74-.629.421.659c.081.132.573.573.725.568s.218.051.1-.122c-.355-.507-1.151-1.719-1.952-1.227a1.8,1.8,0,0,0-.538.771,11.714,11.714,0,0,0-.837,2.028,6.562,6.562,0,0,0-.137,1.861C83.2,58.77,84,60.3,85,63.781l.573-1.106L82.648,53.5c-.061-.2-.264.218-.269.223C82.288,53.871,81.938,54.384,81.994,54.561Z" transform="translate(1487.609 227.647)" fill="#717AFA" opacity="0.18"/>
      <path id="Pfad_863" data-name="Pfad 863" d="M82.618,57.443l3.043,9.23a.34.34,0,0,0,.162-.233c.086-.228.172-.456.248-.685.122-.355.543-1.1.436-1.476l-1.673-6.456a4.848,4.848,0,0,1-.041-1.521,17.819,17.819,0,0,0,.34-2.028l-.152.507a1.516,1.516,0,0,1,2.155-.2l-1.349-1.268.3.6a3.971,3.971,0,0,0,1.065.969c-.117-.091.634.451.467.213A7.987,7.987,0,0,0,86.1,53.432c-.264-.208-.507-.33-.756-.056a5.411,5.411,0,0,0-.822,1.922,10.272,10.272,0,0,0-.365,1.1,15.4,15.4,0,0,0-.172,3.2c-.03,2.82.183,1.46,1.663,7.039l.847-2.389-2.713-9.113-.669,1.116C83,56.449,82.521,57.164,82.618,57.443Z" transform="translate(1487.305 226.565)" fill="#717AFA" opacity="0.18"/>
      <path id="Pfad_864" data-name="Pfad 864" d="M99.786,29.735l-.066,2.683a17.85,17.85,0,0,0,.507,4.016,28.25,28.25,0,0,0,1.1,3.971,12.868,12.868,0,0,0,2.348,4.392,3.783,3.783,0,0,0,2.784,1.369,4.057,4.057,0,0,0,1.755-.426,2.939,2.939,0,0,0,1.339-2.135c.041-.183-1.08-.319-1.075-.193a1.606,1.606,0,0,1-1.339,1.892c-1.6.436-2.9-.832-3.712-2.216a21,21,0,0,1-2.216-6l-.507-2.652a24.965,24.965,0,0,1-.091-5.294C100.633,28.979,99.791,29.527,99.786,29.735Z" transform="translate(1478.87 238.446)" fill="#717AFA" opacity="0.18"/>
      <path id="Pfad_865" data-name="Pfad 865" d="M100.427,31.205a28.556,28.556,0,0,0,.71,8.114c.614,2.378,1.486,5.142,3.195,7a3.672,3.672,0,0,0,3.692,1.248,2.683,2.683,0,0,0,1.552-.9,2.409,2.409,0,0,0,.654-1.633c.061-.289-1.455-.507-1.455-.507a1.324,1.324,0,0,1-1.106,1.587,1.927,1.927,0,0,1-1.684-.223,5.188,5.188,0,0,1-1.739-1.831l-1.425-3.3A23.956,23.956,0,0,1,101.471,30.4C101.482,30.277,100.432,30.921,100.427,31.205Z" transform="translate(1478.543 237.817)" fill="#717AFA" opacity="0.18"/>
      <path id="Pfad_866" data-name="Pfad 866" d="M99.62,28.832a32.763,32.763,0,0,0,.172,5.37,26.37,26.37,0,0,0,1.349,5.315,17.669,17.669,0,0,0,1.648,3.519,5.776,5.776,0,0,0,1.567,1.765,3.722,3.722,0,0,0,2.48.532,2.87,2.87,0,0,0,1.653-.669,3.362,3.362,0,0,0,.989-1.963c.041-.152-.913-.233-.9-.076l-1.39,2.226a1.9,1.9,0,0,1-2.125-.6,2.2,2.2,0,0,1-1.623-1.187,8.028,8.028,0,0,1-.867-1.521,29.215,29.215,0,0,1-1.765-5.1,28.384,28.384,0,0,1-.558-8.018C100.254,28.239,99.625,28.7,99.62,28.832Z" transform="translate(1478.939 238.806)" fill="#717AFA" opacity="0.18"/>
      <path id="Pfad_867" data-name="Pfad 867" d="M99,33.079A24.449,24.449,0,0,0,99.2,38.49a25.726,25.726,0,0,0,1.39,5.36,12.032,12.032,0,0,0,2.921,4.889,3.4,3.4,0,0,0,3.509.751,3.078,3.078,0,0,0,1.587-1.207,2.3,2.3,0,0,0,.507-1.77c0-.325-1.43-.649-1.43-.669a.69.69,0,0,1-.325.8,7.17,7.17,0,0,0-1.014.365c-.964.213-1.552-.472-2.155-1.106-1.146-1.2-1.521-2.825-2.028-4.371a23.555,23.555,0,0,1-1.166-5.071A22.312,22.312,0,0,1,101,31.35s-1.08.8-1.07.786C99.784,32.273,99.008,32.78,99,33.079Z" transform="translate(1479.257 237.343)" fill="#717AFA" opacity="0.18"/>
      <path id="Pfad_868" data-name="Pfad 868" d="M99.618,31.652a23.925,23.925,0,0,0,.183,5.386,25.457,25.457,0,0,0,1.379,5.289,11.79,11.79,0,0,0,2.835,4.8,3.393,3.393,0,0,0,3.327.832,2.779,2.779,0,0,0,1.562-1.014,2.363,2.363,0,0,0,.588-1.628c.046-.284-1.354-.472-1.354-.456.112.619-.1.984-.619,1.1a1.886,1.886,0,0,1-1.166.355,3.336,3.336,0,0,1-2.028-1.374,13.111,13.111,0,0,1-1.937-4.128,24.58,24.58,0,0,1-1.227-5.142,23.836,23.836,0,0,1-.071-5.244,6.163,6.163,0,0,0-.806.543C100.125,31.089,99.623,31.409,99.618,31.652Z" transform="translate(1478.957 237.801)" fill="#717AFA" opacity="0.18"/>
      <path id="Pfad_869" data-name="Pfad 869" d="M99.492,30.3a30.321,30.321,0,0,0,.178,5.426,25.584,25.584,0,0,0,1.374,5.269,15.052,15.052,0,0,0,2.028,3.92,3.807,3.807,0,0,0,3.55,1.719,3.043,3.043,0,0,0,1.613-.659,2.825,2.825,0,0,0,1.014-1.831c.041-.2-1.09-.355-1.085-.243l-.254,1.075a2.536,2.536,0,0,1-.776.426,2.064,2.064,0,0,1-1.663.041,5.107,5.107,0,0,1-1.567-1.3,19.935,19.935,0,0,1-2.353-5.548,21.659,21.659,0,0,1-.918-9.128c0-.213-.35.112-.365.122C100.111,29.7,99.5,30.089,99.492,30.3Z" transform="translate(1479.006 238.31)" fill="#717AFA" opacity="0.18"/>
      <path id="Pfad_870" data-name="Pfad 870" d="M100.086,32.92a24.306,24.306,0,0,0,.172,5.4,25.7,25.7,0,0,0,1.364,5.32,12.34,12.34,0,0,0,2.85,4.9,3.459,3.459,0,0,0,3.453.872,2.916,2.916,0,0,0,1.623-1.09,2.394,2.394,0,0,0,.543-1.765c0-.177-.786-.385-.852-.406.03,0-.923-.33-.913-.218a.553.553,0,0,1-.177.73,3.139,3.139,0,0,0-.948.375c-.953.269-1.567-.345-2.186-.974a11.233,11.233,0,0,1-2.125-4.356,23.787,23.787,0,0,1-1.177-10.188,10.311,10.311,0,0,0-.882.624C100.679,32.271,100.091,32.656,100.086,32.92Z" transform="translate(1478.727 237.259)" fill="#717AFA" opacity="0.18"/>
      <path id="Pfad_871" data-name="Pfad 871" d="M96.334,49.916a34.849,34.849,0,0,0,4.5-1.085,39.144,39.144,0,0,0,4.432-1.476c.137-.051-.715-.609-.928-.507a36.157,36.157,0,0,1-4.392,1.445,27.789,27.789,0,0,1-4.4,1.014C95.385,49.3,96.121,49.962,96.334,49.916Z" transform="translate(1480.938 229.71)" fill="#717AFA" opacity="0.18"/>
      <path id="Pfad_872" data-name="Pfad 872" d="M96.521,51.275a74.037,74.037,0,0,0,8.935-2.6,6.63,6.63,0,0,0-.8-.507c-.193-.091-.649-.4-.893-.314L95,50.235a6.474,6.474,0,0,0,.72.6C95.867,50.965,96.288,51.331,96.521,51.275Z" transform="translate(1481.196 229.214)" fill="#717AFA" opacity="0.18"/>
      <path id="Pfad_873" data-name="Pfad 873" d="M96.59,48.931a32.921,32.921,0,0,0,4.483-1.085A38.778,38.778,0,0,0,105.5,46.36c.167-.061-.507-.467-.664-.406a38.39,38.39,0,0,1-4.387,1.471,27.851,27.851,0,0,1-4.412,1.014C95.859,48.51,96.427,48.966,96.59,48.931Z" transform="translate(1480.702 230.148)" fill="#717AFA" opacity="0.18"/>
      <path id="Pfad_874" data-name="Pfad 874" d="M95.609,53.427a73.853,73.853,0,0,0,8.93-2.627c.046,0-.943-.563-.923-.553-.2-.1-.745-.467-1.014-.38a35.7,35.7,0,0,1-4.417,1.395,27.237,27.237,0,0,1-4.407.928c-.041,0,.867.71.852.7C94.813,53.007,95.346,53.478,95.609,53.427Z" transform="translate(1481.798 228.223)" fill="#717AFA" opacity="0.18"/>
      <path id="Pfad_875" data-name="Pfad 875" d="M95.963,51.9a73.868,73.868,0,0,0,8.869-2.571c.218-.081-.319-.309-.325-.309-.2-.112-.9-.573-1.146-.507A40.615,40.615,0,0,1,94.553,50.9c-.223.046.4.436.446.477C95.212,51.521,95.684,51.967,95.963,51.9Z" transform="translate(1481.44 228.887)" fill="#717AFA" opacity="0.18"/>
      <path id="Pfad_876" data-name="Pfad 876" d="M95.916,50.682A34.849,34.849,0,0,0,100.4,49.6a38.806,38.806,0,0,0,4.432-1.476c.132-.046-.766-.644-1.014-.568a37.19,37.19,0,0,1-4.4,1.44,29.55,29.55,0,0,1-4.4,1.014C94.9,50.008,95.688,50.733,95.916,50.682Z" transform="translate(1481.193 229.36)" fill="#717AFA" opacity="0.18"/>
      <path id="Pfad_877" data-name="Pfad 877" d="M96.345,53.318a76.141,76.141,0,0,0,8.92-2.637l-1.126-.568c-.243-.1-.9-.507-1.207-.385a33.693,33.693,0,0,1-8.712,2.155l1.014.8C95.407,52.806,96.056,53.4,96.345,53.318Z" transform="translate(1481.58 228.296)" fill="#717AFA" opacity="0.18"/>
      <path id="Pfad_878" data-name="Pfad 878" d="M133.475,12.1a83.489,83.489,0,0,0-.1,11.486,34.8,34.8,0,0,0,.9,5.644,25.084,25.084,0,0,0,2.028,5.381c.086.2.588-.563.568-.725a14.149,14.149,0,0,1-.958-8.788,2.97,2.97,0,0,1,.335-1.014c.36-.543.644-.806,1.232-.4h.056l3.043-1.222-.7.046,5.446,7.774c-.071.467.188.071.233-.152a7.409,7.409,0,0,0-.112-3.722,6.669,6.669,0,0,0-1.648-2.708,5.543,5.543,0,0,0-1.415-.964,3.332,3.332,0,0,0-2.272-.467,21.831,21.831,0,0,0-2.754.4,2.576,2.576,0,0,0-1.161.507c-2.475,2.216.142,11.806.091,11.415l.568-.725a24.955,24.955,0,0,1-1.892-5.35,35.592,35.592,0,0,1-.847-5.6,84.257,84.257,0,0,1,.157-11.425C134.3,11.342,133.485,11.89,133.475,12.1Z" transform="translate(1462.361 247.143)" fill="#717AFA" opacity="0.18"/>
      <path id="Pfad_879" data-name="Pfad 879" d="M134.07,13.449c-.248,4.736-.573,9.635.243,14.341.142.8.37,2.028.568,2.8a33.828,33.828,0,0,0,2.028,5.431c0-.025.822-.928.791-1.151a11.194,11.194,0,0,1-.877-9.022,2.728,2.728,0,0,1,.933-1.3l-.654.051a2.15,2.15,0,0,1,1.8.74q.053.068.091,0l2.221-1.481-.908.248,2.028.041-1.425-.218,2.622.786-1.156-.578,2.2,1.379-.887-.918,1.658,1.983-.674-1.014,1.207,2.211-.467-1.08.751,2.378-.254-1.151.269,2.465-.03-1.121-.233,2.419s.025.264.106.132a2.028,2.028,0,0,0,.167-.649A6.917,6.917,0,0,0,144,24.657c-.822-.761-2.835-1.014-3.945-1.014a15.194,15.194,0,0,0-1.633.264,3.489,3.489,0,0,0-.989.218c-3.509,1.521-.507,12.171-.538,11.816l.791-1.156a16.852,16.852,0,0,1-1.917-6.679,23.556,23.556,0,0,1-.948-6.953c-.041-2.85.122-5.69.294-8.54,0-.208-.34.117-.345.122C134.622,12.866,134.08,13.236,134.07,13.449Z" transform="translate(1462.076 246.613)" fill="#717AFA" opacity="0.18"/>
      <path id="Pfad_880" data-name="Pfad 880" d="M133.283,11.208a83.639,83.639,0,0,0-.1,11.5,35.024,35.024,0,0,0,.893,5.665,25.72,25.72,0,0,0,1.978,5.416c.091.208.4-.325.385-.436a15.3,15.3,0,0,1-.593-10.188q2.992-4.828,9.3,6.293c-.061.294.132.335.2.046a7.4,7.4,0,0,0,.269-2.627,7.1,7.1,0,0,0-1.258-3.2,6.01,6.01,0,0,0-1.633-1.608,4.716,4.716,0,0,0-1.552-.8,9.077,9.077,0,0,0-4.29.451,2.576,2.576,0,0,0-1.329,1.2c-1.623,2.754.507,10.548.538,10.878l.385-.436a25.677,25.677,0,0,1-1.9-5.421,36.218,36.218,0,0,1-.832-5.67,85.6,85.6,0,0,1,.157-11.461C133.9,10.614,133.288,11.045,133.283,11.208Z" transform="translate(1462.457 247.495)" fill="#717AFA" opacity="0.18"/>
      <path id="Pfad_881" data-name="Pfad 881" d="M132.771,15.405a85.8,85.8,0,0,0-.061,11.532,34.614,34.614,0,0,0,.918,5.68,24.929,24.929,0,0,0,2.028,5.426c0,.041.786-1.207.771-1.187.157-.279.644-.908.6-1.283a11.451,11.451,0,0,1-.6-9.128,1.521,1.521,0,0,1,1.131-.877c1.785-.776,2.82-.857,5.218.74l-.964-1.171a26.34,26.34,0,0,0,2.622,3.2l-1.014-1.481,1.521,2.738-.761-1.709,1.014,3.043L144.688,29l.462,3.261-.107-1.973a19.609,19.609,0,0,0-.2,3.357.223.223,0,0,0,.035.177,2.14,2.14,0,0,0,.193-.664,7.81,7.81,0,0,0,.223-2.465,8.824,8.824,0,0,0-.751-2.454,18.374,18.374,0,0,0-3.879-4.493l-.066-.025c-1.08.335-1.963,1.141-3.043,1.46a4.564,4.564,0,0,0-.974.319,2.941,2.941,0,0,0-1.334,1.78c-1.425,3.915-.233,4.762.411,10.751l1.369-2.47a23.418,23.418,0,0,1-1.8-5.193,33.782,33.782,0,0,1-.8-5.523,71.848,71.848,0,0,1,.314-11.248l-1.06.822C133.5,14.589,132.771,15.1,132.771,15.405Z" transform="translate(1462.696 246.092)" fill="#717AFA" opacity="0.18"/>
      <path id="Pfad_882" data-name="Pfad 882" d="M133.333,14.013a84.6,84.6,0,0,0-.071,11.507,34.487,34.487,0,0,0,.913,5.654,25,25,0,0,0,2.028,5.386c.03.056.451-.507.507-.573.142-.213.614-.72.578-1.014q-2.754-5-.761-9.245a1.691,1.691,0,0,1,1.658-1.126l.68.1a1.592,1.592,0,0,1,1.374,1.055h.066l2.632-.441-1.329-.061,2.419.811-1.212-.938,1.892,1.952-.842-1.045,1.389,2.257-.6-1.212.872,2.505-.314-1.369.319,2.678-.046-1.374c0,.2-.127,2.744-.208,2.835a1.44,1.44,0,0,0,.132-.142,2.079,2.079,0,0,0,.132-.685,9.637,9.637,0,0,0,.117-1.268,6.045,6.045,0,0,0-1.572-4.28,5.978,5.978,0,0,0-1.055-.9c-.421-.279-.411-.106-1.151-.335-.431-.132-.837-.34-1.268-.467a6.288,6.288,0,0,0-3.727.147c-3.616,1.663-.715,11.948-.7,12.064l1.06-1.562a18.255,18.255,0,0,1-1.471-3.91,22.418,22.418,0,0,1-.913-4.057,71.784,71.784,0,0,1-.117-14.2,7.285,7.285,0,0,0-.776.558C133.819,13.445,133.348,13.759,133.333,14.013Z" transform="translate(1462.423 246.506)" fill="#717AFA" opacity="0.18"/>
      <path id="Pfad_883" data-name="Pfad 883" d="M133.145,12.647c-.243,4.736-.568,9.635.254,14.336.137.8.37,2.028.568,2.794a33.8,33.8,0,0,0,2.013,5.411s.791-.893.766-1.111a12.8,12.8,0,0,1-.882-9.032,2.3,2.3,0,0,1,2.581-1.7,2.977,2.977,0,0,1,2.383.969,2.429,2.429,0,0,0,1.851-.142l-.68-.03,1.587.6-.7-.578,2.363,4.128-.178-.862-.061,3.286c-.081.669.193.03.243-.233a6.431,6.431,0,0,0-1.7-5.994,3.55,3.55,0,0,0-.659-.482,10.675,10.675,0,0,1-1.841-.664,1.8,1.8,0,0,0-.6-.254,5.7,5.7,0,0,0-1.826-.208,5.163,5.163,0,0,0-2.028.319c-3.585,1.7-.634,11.725-.609,11.943l.766-1.106a17.278,17.278,0,0,1-1.876-6.729,24.108,24.108,0,0,1-.923-6.978c-.036-2.855.127-5.7.3-8.545,0-.218-.355.127-.36.132C133.738,12.033,133.16,12.429,133.145,12.647Z" transform="translate(1462.53 247.02)" fill="#717AFA" opacity="0.18"/>
      <path id="Pfad_884" data-name="Pfad 884" d="M133.758,15.254a85.646,85.646,0,0,0-.081,11.522,35.046,35.046,0,0,0,.9,5.665,25.488,25.488,0,0,0,2.028,5.426,7.957,7.957,0,0,0,.507-.761c.167-.294.669-.908.629-1.268-.467-4.219-2.4-7.16.071-9.843l-.756.122,2.414.446h.056l1.014-.827-.735.213c.847.852,3.55.507,3.641.507l-1.765-.507,2.956,1.42-1.6-1.344,2.221,2.343L144.113,26.9l1.7,2.723-.827-1.694,1.07,3-.482-1.886.456,3.2-.1-1.866a18.152,18.152,0,0,0-.193,3.311c0,.086.051.091.1,0,.122-.071.213-1.07.213-1.075a6.071,6.071,0,0,0-1.364-5.386,11.355,11.355,0,0,0-1.192-1.07,1.734,1.734,0,0,0-1.014-.421,5.634,5.634,0,0,0-2.536-.507l-1.861.279a2.231,2.231,0,0,0-1.785,1.308c-1.7,3.377-.061,7.718.314,10.979l1.156-2.028a23.413,23.413,0,0,1-1.826-5.173,33.061,33.061,0,0,1-.761-5.467,85.259,85.259,0,0,1,.213-11.324c0-.041-.887.664-.872.654C134.351,14.6,133.783,14.98,133.758,15.254Z" transform="translate(1462.215 245.995)" fill="#717AFA" opacity="0.18"/>
      <path id="Pfad_885" data-name="Pfad 885" d="M161.628,26.453a7.768,7.768,0,0,0,3.433-.862,3.7,3.7,0,0,0,1.77-2.88,2.934,2.934,0,0,0-2-3.459c-1.587-.385-3.382.674-4.371,1.841-2.789,3.3-3.124,8.621.3,11.613a5.807,5.807,0,0,0,4.508,1.268,10.375,10.375,0,0,0,2.186-.832c1.608-.715,2.292-1.166,3.925-1.182.2,0-.193-.274-.152-.238a1.379,1.379,0,0,0-.664-.294,5.953,5.953,0,0,0-2.794.654c-1.491.71-3.078,1.521-4.762.933-3.621-1.253-4.326-5.938-2.733-8.991a5.356,5.356,0,0,1,1.324-1.861c.309-.218.507-.223.74-.558a1.619,1.619,0,0,1,2.028-.771,2.029,2.029,0,0,1,.867.588,2.257,2.257,0,0,1,.309,1.369,1.521,1.521,0,0,1-.132.776,1.359,1.359,0,0,1-1.192,1.121,2.257,2.257,0,0,1-1.587.862,6.592,6.592,0,0,1-1.668.2C160.822,25.758,161.43,26.468,161.628,26.453Z" transform="translate(1451.069 241.219)" fill="#717AFA" opacity="0.18"/>
      <path id="Pfad_886" data-name="Pfad 886" d="M162.346,28.347c1.684-.162,3.646-.456,4.564-2.028a3.9,3.9,0,0,0,.249-3.672,2.922,2.922,0,0,0-3.722-1.2,6.263,6.263,0,0,0-3.3,2.911,8.9,8.9,0,0,0-1.106,6.39,6.593,6.593,0,0,0,3.382,4.458,5.685,5.685,0,0,0,4.65.254c.893-.319,1.724-.816,2.6-1.182a5.462,5.462,0,0,1,2.383-.456c.264,0-.37-.37-.3-.325a2.9,2.9,0,0,0-1.09-.543,5.512,5.512,0,0,0-2.678.507,14.056,14.056,0,0,1-2.231.877,4.057,4.057,0,0,1-1.6.03c-3.55-.507-4.99-4.853-3.864-7.891a8.529,8.529,0,0,1,1.43-2.581,4.057,4.057,0,0,1,.71-.507l.507-.543,1.207-.558a1.729,1.729,0,0,1,1.126.436,1.014,1.014,0,0,1,.507.74,2.566,2.566,0,0,1-.177,1.76c-.766,1.618-3.083,1.821-4.6,1.892a6.02,6.02,0,0,0,.614.695C161.743,27.926,162.1,28.367,162.346,28.347Z" transform="translate(1450.787 240.207)" fill="#717AFA" opacity="0.18"/>
      <path id="Pfad_887" data-name="Pfad 887" d="M161.622,25.276a6.962,6.962,0,0,0,3.808-1.248,4.057,4.057,0,0,0,1.359-3.043,2.882,2.882,0,0,0-3.007-3.2,5.578,5.578,0,0,0-3.773,2.343c-2.536,3.469-2.789,9.209,1.166,11.735a5.614,5.614,0,0,0,3.961,1.014,9.5,9.5,0,0,0,2.211-.867,8.511,8.511,0,0,1,3.92-1.268c.325,0-.3-.4-.431-.4a5.441,5.441,0,0,0-2.855.725c-2.1,1.085-3.55,2.186-6.085.669-3.55-2.13-3.195-7.272-.872-10.1a1.633,1.633,0,0,1,.751-.74.9.9,0,0,0,.862-.634,1.775,1.775,0,0,1,1.014-.532,1.187,1.187,0,0,1,1.014.411.507.507,0,0,1,.568.365,2.982,2.982,0,0,1,.319,1.562c-.167,2.17-2.7,2.536-4.371,2.693C161.013,24.784,161.475,25.291,161.622,25.276Z" transform="translate(1451.136 241.908)" fill="#717AFA" opacity="0.18"/>
      <path id="Pfad_888" data-name="Pfad 888" d="M161.547,30.63c1.673-.167,3.666-.507,4.483-2.176a4.346,4.346,0,0,0,.122-3.672,2.536,2.536,0,0,0-2.6-1.374,5.35,5.35,0,0,0-3.651,1.973c-2.693,3.251-3.1,8.773.406,11.6a5.923,5.923,0,0,0,4.873,1.237,10.492,10.492,0,0,0,2.667-1.253A6.05,6.05,0,0,1,171.207,36c.294,0-.451-.431-.365-.38a4.088,4.088,0,0,0-1.313-.71,5.1,5.1,0,0,0-1.755,0,14.97,14.97,0,0,0-1.77.644,4.3,4.3,0,0,1-2.181.385,6.324,6.324,0,0,1-1.582-.441c-3.043-1.521-3.514-5.4-2.206-8.281a6.172,6.172,0,0,1,2.028-2.723c.766-.507,2.662-.867,3.093.294a3.758,3.758,0,0,1,0,1.283,3.083,3.083,0,0,1-.989,1.785c-1.075,1.014-2.972,1.116-4.361,1.151-.025,0,.816.893.811.887C160.745,30.031,161.268,30.66,161.547,30.63Z" transform="translate(1451.318 239.141)" fill="#717AFA" opacity="0.18"/>
      <path id="Pfad_889" data-name="Pfad 889" d="M161.72,29.027c1.658-.157,3.636-.456,4.529-2.028a3.981,3.981,0,0,0,.233-3.616A2.833,2.833,0,0,0,162.9,22.16a5.938,5.938,0,0,0-3.388,2.87,9.022,9.022,0,0,0-1.151,6.425,6.593,6.593,0,0,0,3.423,4.513,5.609,5.609,0,0,0,4.7.177c.872-.34,1.689-.847,2.536-1.217a5.294,5.294,0,0,1,2.383-.441c.259,0-.365-.37-.289-.319a2.855,2.855,0,0,0-1.07-.507,5.969,5.969,0,0,0-2.7.451,13.185,13.185,0,0,1-2.247.761,4.265,4.265,0,0,1-1.521-.046,4.939,4.939,0,0,1-3.043-2.028,6.593,6.593,0,0,1-.68-5.578,7.156,7.156,0,0,1,1.983-3.195c.7-.6,1.466-1.4,2.505-1.045a1.775,1.775,0,0,1,1.014,2.292,2.165,2.165,0,0,1-1.1,1.521,6.134,6.134,0,0,1-3.89,1.07,6.027,6.027,0,0,0,.609.695C161.136,28.611,161.476,29.052,161.72,29.027Z" transform="translate(1451.114 239.836)" fill="#717AFA" opacity="0.18"/>
      <path id="Pfad_890" data-name="Pfad 890" d="M161.266,27.413a7.682,7.682,0,0,0,3.438-.857,3.646,3.646,0,0,0,1.75-2.865,2.852,2.852,0,0,0-2-3.327,4.894,4.894,0,0,0-4.326,1.714,9.184,9.184,0,0,0-2.241,6.177,6.963,6.963,0,0,0,2.561,5.375,5.67,5.67,0,0,0,5.609.908c.71-.289,1.389-.649,2.084-.969a6.141,6.141,0,0,1,2.88-.649c.218,0-.223-.294-.172-.254a1.623,1.623,0,0,0-.735-.355,4.006,4.006,0,0,0-1.815.172c-.654.254-1.3.507-1.932.811a4.765,4.765,0,0,1-4.564-.152c-2.738-1.739-3.149-5.4-1.831-8.16a6.085,6.085,0,0,1,1.106-1.77,1.445,1.445,0,0,1,.664-.507,3.042,3.042,0,0,1,1.014-1.014,1.521,1.521,0,0,1,1.177-.188,1.841,1.841,0,0,1,1.354,1.826c.091,2.449-2.708,3.134-4.772,3.271C160.373,26.612,161.043,27.433,161.266,27.413Z" transform="translate(1451.264 240.669)" fill="#717AFA" opacity="0.18"/>
      <path id="Pfad_891" data-name="Pfad 891" d="M162.507,30.544c1.8-.183,4.113-.639,4.716-2.652a3.916,3.916,0,0,0-.771-3.966c-1.476-1.43-4.24-.325-5.421.948-2.647,2.86-3.19,7.779-.756,10.9a6.031,6.031,0,0,0,5.756,2.252,11.263,11.263,0,0,0,2.2-.913,7.624,7.624,0,0,1,3.935-1.232c.3,0-.507-.467-.431-.406a4.4,4.4,0,0,0-1.486-.8,5.578,5.578,0,0,0-2.662.39,6.053,6.053,0,0,1-3.311.715,3.175,3.175,0,0,1-1.658-.507c-.446-.37-.9-.735-1.364-1.09a6.085,6.085,0,0,1-1.313-4.28c.076-1.668.781-3.976,2.165-5,1.141-.837,3.55-1.6,3.59.36a3.009,3.009,0,0,1-1.222,2.708,6.935,6.935,0,0,1-3.961.74l.928.989C161.6,29.844,162.212,30.575,162.507,30.544Z" transform="translate(1450.855 239.206)" fill="#717AFA" opacity="0.18"/>
      <path id="Pfad_892" data-name="Pfad 892" d="M181.876,14.109a15.8,15.8,0,0,0,.38,3.844,17.244,17.244,0,0,0,1.318,3.737c.076.183.609-.578.563-.745-.309-1.481-.563-2.977-.761-4.478a2.181,2.181,0,0,0-.507-2.363l.355.872V13.094l-.254,1.273.73-1.608-.629.958,1.136-1.146-.974.639,5.117-2.383c.213-.1-.431-.112-.335-.112a2.323,2.323,0,0,0-.933.137c-2.084,1.116-4.26,1.242-4.564,3.58a16.289,16.289,0,0,0,1.08,7.257l.563-.745a17.206,17.206,0,0,1-1.212-3.7,16.683,16.683,0,0,1-.289-3.758C182.652,13.323,181.865,13.9,181.876,14.109Z" transform="translate(1439.442 245.388)" fill="#717AFA" opacity="0.18"/>
      <path id="Pfad_893" data-name="Pfad 893" d="M182.487,15.713a16.383,16.383,0,0,0,.385,3.854,18.2,18.2,0,0,0,1.344,3.788c.041.1.477-.583.461-.558.086-.137.365-.467.294-.659l-.827-3.185a4.487,4.487,0,0,1,0-1.892c.127-.989.2-.538-.563-1.5l.421.629-.091-1.476-.086,1.166.507-1.521-.538.969,1.06-1.141-1.014.756,5.127-2.505c.233-.112-.507-.1-.39-.106a2.713,2.713,0,0,0-1.085.157,31.616,31.616,0,0,0-4,2.454,2.4,2.4,0,0,0-.238.766,10.939,10.939,0,0,0,0,3.854,22.341,22.341,0,0,0,.943,3.753l.776-1.161a15.574,15.574,0,0,1-1.471-7.272C183.5,14.749,182.477,15.464,182.487,15.713Z" transform="translate(1439.14 244.59)" fill="#717AFA" opacity="0.18"/>
      <path id="Pfad_894" data-name="Pfad 894" d="M181.7,13a15.949,15.949,0,0,0,.355,3.864,17.683,17.683,0,0,0,1.313,3.773c.086.2.416-.33.385-.451a10.482,10.482,0,0,1-.472-3.59,4.564,4.564,0,0,0-.7-3.834l.421,1.258.056-2.292-.37,1.608.857-1.75-.725,1.05,1.222-1.217-1.014.654L188.2,9.678c.213-.1-.426-.112-.33-.112a2.272,2.272,0,0,0-.923.137l-3.92,1.968a.573.573,0,0,0-.228.248c-.664.837-.573,2.247-.507,3.195a22.969,22.969,0,0,0,1.08,5.523l.385-.451a18.255,18.255,0,0,1-1.212-3.783,16.938,16.938,0,0,1-.269-3.824C182.266,12.391,181.7,12.827,181.7,13Z" transform="translate(1439.529 245.955)" fill="#717AFA" opacity="0.18"/>
      <path id="Pfad_895" data-name="Pfad 895" d="M181.1,18.236a16.279,16.279,0,0,0,.431,3.9,17.244,17.244,0,0,0,1.364,3.788c0,.03.745-1.227.74-1.207.076-.157.68-1.05.558-1.3a5.4,5.4,0,0,1-.893-2.652,4.285,4.285,0,0,1-.259-1.886,1.379,1.379,0,0,0,0-.69q-.664-.725.188-1.679l-.406.568.918-.776-.771.441,4.813-2.11c.243-.1,0-.122-.112-.152a1.821,1.821,0,0,0-.943.122c-.218.112-3.646,1.349-4.265,2.536a5.721,5.721,0,0,0-.416,2.632,29,29,0,0,0,.857,6.146l1.3-2.505a15.31,15.31,0,0,1-1.06-3.55,14.3,14.3,0,0,1-.086-3.55l-1.045.872C181.855,17.364,181.084,17.937,181.1,18.236Z" transform="translate(1439.823 243.537)" fill="#717AFA" opacity="0.18"/>
      <path id="Pfad_896" data-name="Pfad 896" d="M181.728,16.495a16.226,16.226,0,0,0,.406,3.864,17.242,17.242,0,0,0,1.344,3.743c.035.081.624-.8.6-.766.081-.132.507-.664.431-.872a11.015,11.015,0,0,1-1.07-4.29l.106-1.313a2.054,2.054,0,0,0-.406-.857l.1.461.436-1.455-.416.791.9-.969-.837.619,4.949-2.383c.213-.1-.421-.112-.33-.112a2.175,2.175,0,0,0-.918.137c-.35.188-3.677,1.633-4.26,2.713a5.537,5.537,0,0,0-.355,2.5,22.384,22.384,0,0,0,1.06,5.8l1.014-1.638a16.229,16.229,0,0,1-1.106-3.59,15.67,15.67,0,0,1-.259-3.707,6.409,6.409,0,0,0-.761.593C182.2,15.891,181.718,16.246,181.728,16.495Z" transform="translate(1439.514 244.285)" fill="#717AFA" opacity="0.18"/>
      <path id="Pfad_897" data-name="Pfad 897" d="M181.566,14.954a15.8,15.8,0,0,0,.39,3.849,18.128,18.128,0,0,0,1.349,3.778c.03.076.34-.365.36-.4.091-.137.451-.553.39-.725l-.71-3.21a3.915,3.915,0,0,1-.127-1.76c.051-.669.2-2.911.177-2.86l-.507.842.984-1.014-.857.578,4.99-2.338c.208-.1-.385-.117-.3-.117a2.064,2.064,0,0,0-.842.127c-.172.091-3.91,2.028-4.027,2.16a2.3,2.3,0,0,0-.543,1.085,9.437,9.437,0,0,0-.066,2.951,19.418,19.418,0,0,0,1.08,4.625l.73-1.1a16.162,16.162,0,0,1-1.415-7.333c0-.213-.34.132-.35.142C182.134,14.325,181.556,14.751,181.566,14.954Z" transform="translate(1439.594 244.964)" fill="#717AFA" opacity="0.18"/>
      <path id="Pfad_898" data-name="Pfad 898" d="M182.168,17.886a16.374,16.374,0,0,0,.406,3.879,17.3,17.3,0,0,0,1.334,3.783c0,.046.639-1.045.629-1.014.081-.162.558-.867.446-1.111a10.436,10.436,0,0,1-1.08-4.057l.066-1.329a2.581,2.581,0,0,0-.335-.781l.071.4a4.9,4.9,0,0,1,.472-1.339l-.441.761.964-.948-.9.664,5.036-2.409c.228-.112-.507-.1-.38-.106a2.688,2.688,0,0,0-1.065.152c-.507.284-3.459,1.608-4.092,2.693A3.408,3.408,0,0,0,183,18.692a22.2,22.2,0,0,0,.908,6.851l1.075-2.135a14.706,14.706,0,0,1-1.045-3.469,14.544,14.544,0,0,1-.177-3.606c0-.041-.877.715-.867.7C182.751,17.176,182.158,17.617,182.168,17.886Z" transform="translate(1439.297 243.634)" fill="#717AFA" opacity="0.18"/>
      <path id="Pfad_899" data-name="Pfad 899" d="M206.4,9.812Q208,6.48,209.367,3.047a2.031,2.031,0,0,0,.122-.456.969.969,0,0,0-.908-1.09,5.967,5.967,0,0,0-3.281.659,7.891,7.891,0,0,0-3.311,3.195,7.1,7.1,0,0,0-1.014,4.311,6.354,6.354,0,0,0,1.729,3.666,7.688,7.688,0,0,0,3.707,2.12,6.43,6.43,0,0,0,2.83.142,6.821,6.821,0,0,0,2.683-1.014c.091-.041-.411-.745-.6-.644a6.027,6.027,0,0,1-3.641.938,7.388,7.388,0,0,1-2.383-.685,6.085,6.085,0,0,1-2.728-2.784l-.4-2.069a3.686,3.686,0,0,1,.269-1.521,6.709,6.709,0,0,1,1.242-2.262,10.388,10.388,0,0,1,1.932-1.481,2.6,2.6,0,0,1,1.232-.568l1.075-.193-.172.411a72.511,72.511,0,0,1-3.043,6.669c-.1.208.6-.061.659-.081C205.625,10.2,206.274,10.081,206.4,9.812Z" transform="translate(1430.04 249.953)" fill="#717AFA" opacity="0.18"/>
      <path id="Pfad_900" data-name="Pfad 900" d="M206.977,11.642q1.6-3.332,2.967-6.765a1.578,1.578,0,0,0,.106-.456c0-.6-.4-.877-.958-.923a6.841,6.841,0,0,0-3.129.664A7.855,7.855,0,0,0,202.61,7.2a6.826,6.826,0,0,0-1.1,4.28,6.243,6.243,0,0,0,1.76,3.636,7.957,7.957,0,0,0,3.737,2.135,6.9,6.9,0,0,0,2.855.188,6.643,6.643,0,0,0,2.693-1.014c.061-.03-.771-1.334-1.014-1.207a5.2,5.2,0,0,1-2.693.832,6.826,6.826,0,0,1-2.9-.538,6.4,6.4,0,0,1-2.388-1.957,2.216,2.216,0,0,1-.659-1.521,3.509,3.509,0,0,1-.248-2.028,6.146,6.146,0,0,1,2.475-3.966,9.94,9.94,0,0,1,1.313-.811l.979-.279.918.573a73.15,73.15,0,0,1-3.078,6.729,6.634,6.634,0,0,0,.9-.213C206.312,11.977,206.87,11.865,206.977,11.642Z" transform="translate(1429.773 248.945)" fill="#717AFA" opacity="0.18"/>
      <path id="Pfad_901" data-name="Pfad 901" d="M206.366,8.48q1.613-3.367,3-6.836a1.521,1.521,0,0,0,.076-.852c-.193-.69-.9-.751-1.471-.8-1.826-.132-3.824,1.131-5,2.409A7.921,7.921,0,0,0,201,6.5a5.984,5.984,0,0,0,.756,4.361,7.166,7.166,0,0,0,3.92,3.175,6.593,6.593,0,0,0,3.5.4,7.211,7.211,0,0,0,2.749-1.065c.112-.061-.228-.477-.38-.4-3.043,1.7-6.511,1.237-8.449-1.45a5.193,5.193,0,0,1-.695-4.884,6.663,6.663,0,0,1,2.029-2.9c.548-.314,1.075-.649,1.592-1.014a2.992,2.992,0,0,1,1.719-.279l.167-2.4-3.418,9.113a9.2,9.2,0,0,0,.979-.243C205.656,8.845,206.259,8.718,206.366,8.48Z" transform="translate(1430.079 250.677)" fill="#717AFA" opacity="0.18"/>
      <path id="Pfad_902" data-name="Pfad 902" d="M205.977,13.864q1.633-3.337,3.007-6.806a.766.766,0,0,0,.117-.451.73.73,0,0,0-.335-.781c-.816-.507-2.089-.056-2.916.193a6.947,6.947,0,0,0-3.8,2.688c-1.912,2.586-2.236,6.349.157,8.788a8,8,0,0,0,3.89,2.231,6.78,6.78,0,0,0,2.977.1,6.491,6.491,0,0,0,2.7-1.151c.041-.025-1.09-1.831-1.354-1.709a5,5,0,0,1-3.21.548,5.872,5.872,0,0,1-2.622-.933,6.212,6.212,0,0,1-1.942-1.815,6.167,6.167,0,0,1-.614-2.7A6.593,6.593,0,0,1,204.4,7.352a4.919,4.919,0,0,1,1.739-.771,1.7,1.7,0,0,1,2.11.456l-.188.35q-1.354,3.423-3.043,6.709C204.963,14.239,205.891,14.051,205.977,13.864Z" transform="translate(1430.256 247.91)" fill="#717AFA" opacity="0.18"/>
      <path id="Pfad_903" data-name="Pfad 903" d="M206.262,12.418q1.633-3.347,3.007-6.811a1.646,1.646,0,0,0,.107-.441.837.837,0,0,0-.816-.908,6.481,6.481,0,0,0-3.114.583,7.49,7.49,0,0,0-3.423,3.017,6.425,6.425,0,0,0,.629,8.028,7.911,7.911,0,0,0,3.778,2.13,6.76,6.76,0,0,0,2.886.132,6.593,6.593,0,0,0,2.667-1.04c.061-.035-.806-1.4-1.014-1.278a4.174,4.174,0,0,1-2.1.735l-1.146-.051a6.177,6.177,0,0,1-3.22-1.171,4.929,4.929,0,0,1-1.826-6.151,5.784,5.784,0,0,1,4.873-3.768c.654-.035.568-.238.644.162a.441.441,0,0,1-.152.507A73.06,73.06,0,0,1,205,12.783C204.954,12.869,206.151,12.666,206.262,12.418Z" transform="translate(1430.062 248.575)" fill="#717AFA" opacity="0.18"/>
      <path id="Pfad_904" data-name="Pfad 904" d="M205.953,10.849q1.633-3.352,3.007-6.816c.035-.127.066-.254.1-.38a.923.923,0,0,0-.35-.918c-.832-.593-2.216-.076-3.043.218a7.607,7.607,0,0,0-3.7,2.779,6.508,6.508,0,0,0,.4,8.5,8.149,8.149,0,0,0,3.722,2.089,6.958,6.958,0,0,0,5.487-.827c.081-.035-.507-.9-.71-.8a5.72,5.72,0,0,1-2.9.776,6.47,6.47,0,0,1-2.946-.71,6.4,6.4,0,0,1-2.288-2.1,2.165,2.165,0,0,1-.558-1.521,3.986,3.986,0,0,1-.142-1.983,6.273,6.273,0,0,1,2.343-3.722,6.593,6.593,0,0,1,2.206-1.217l1.014-.1a3.042,3.042,0,0,0,.664-.71l-.6.507a3.388,3.388,0,0,1-.74,2.343,54.512,54.512,0,0,1-2.312,4.97c-.091.2.38,0,.385,0C205.172,11.163,205.867,11.021,205.953,10.849Z" transform="translate(1430.218 249.454)" fill="#717AFA" opacity="0.18"/>
      <path id="Pfad_905" data-name="Pfad 905" d="M206.833,13.787q1.628-3.352,3-6.816a1.907,1.907,0,0,0,.107-.446c.025-.543-.345-.781-.847-.852a7.1,7.1,0,0,0-3.119.482A6.872,6.872,0,0,0,202.542,9.2a6.724,6.724,0,0,0,.568,8.114,8.033,8.033,0,0,0,3.829,2.262,6.968,6.968,0,0,0,2.982.162,6.4,6.4,0,0,0,2.749-1.1s-1.2-1.912-1.481-1.775a5.188,5.188,0,0,1-3.241.634,5.7,5.7,0,0,1-3.043-1.146,4.8,4.8,0,0,1-1.815-2.028,5.314,5.314,0,0,1-.406-2.845,5.8,5.8,0,0,1,3.58-4.742c.614-.188,2.946-1.014,2.49.421l-.2.319q-1.359,3.423-3.043,6.689c-.1.193.365,0,.37,0C206.067,14.116,206.741,13.979,206.833,13.787Z" transform="translate(1429.795 247.881)" fill="#717AFA" opacity="0.18"/>
    </g>
  </g>
</svg>
