<svg xmlns="http://www.w3.org/2000/svg" viewBox="0 0 48 57.307">
  <g id="Gruppe_450" data-name="Gruppe 450" transform="translate(-806 -785)">
    <ellipse id="Ellipse_56" data-name="Ellipse 56" cx="23" cy="23" rx="23" ry="23" transform="translate(807 795.306)" fill="none" stroke="#485460" stroke-miterlimit="10" stroke-width="2"/>
    <ellipse id="Ellipse_57" data-name="Ellipse 57" cx="3.457" cy="3.457" rx="3.457" ry="3.457" transform="translate(826.543 786)" fill="none" stroke="#0fbcf9" stroke-miterlimit="10" stroke-width="2"/>
    <ellipse id="Ellipse_58" data-name="Ellipse 58" cx="2.526" cy="2.526" rx="2.526" ry="2.526" transform="translate(827.474 815.781)" fill="#485460"/>
    <line id="Linie_39" data-name="Linie 39" y2="3.723" transform="translate(829.867 798.497)" fill="none" stroke="#485460" stroke-miterlimit="10" stroke-width="2"/>
    <line id="Linie_40" data-name="Linie 40" x2="2.632" y2="2.632" transform="translate(811.002 799.308)" fill="none" stroke="#485460" stroke-miterlimit="10" stroke-width="2"/>
    <line id="Linie_41" data-name="Linie 41" x1="2.632" y2="2.632" transform="translate(809.672 797.979)" fill="none" stroke="#485460" stroke-miterlimit="10" stroke-width="2"/>
    <line id="Linie_42" data-name="Linie 42" x1="2.135" y2="3.049" transform="translate(837.84 801.227)" fill="none" stroke="#485460" stroke-miterlimit="10" stroke-width="2"/>
    <line id="Linie_43" data-name="Linie 43" x2="2.135" y2="3.049" transform="translate(820.025 801.227)" fill="none" stroke="#485460" stroke-miterlimit="10" stroke-width="2"/>
    <line id="Linie_44" data-name="Linie 44" x1="3.157" y2="1.973" transform="translate(843.711 808.147)" fill="none" stroke="#485460" stroke-miterlimit="10" stroke-width="2"/>
    <line id="Linie_45" data-name="Linie 45" x2="3.157" y2="1.973" transform="translate(812.867 808.413)" fill="none" stroke="#485460" stroke-miterlimit="10" stroke-width="2"/>
    <line id="Linie_46" data-name="Linie 46" y2="3.723" transform="translate(829.867 834.393)" fill="none" stroke="#485460" stroke-miterlimit="10" stroke-width="2"/>
    <line id="Linie_47" data-name="Linie 47" x1="3.157" y2="1.973" transform="translate(812.867 826.228)" fill="none" stroke="#485460" stroke-miterlimit="10" stroke-width="2"/>
    <line id="Linie_48" data-name="Linie 48" x2="3.157" y2="1.973" transform="translate(843.977 826.228)" fill="none" stroke="#485460" stroke-miterlimit="10" stroke-width="2"/>
    <line id="Linie_49" data-name="Linie 49" x1="3.723" transform="translate(810.191 818.174)" fill="none" stroke="#485460" stroke-miterlimit="10" stroke-width="2"/>
    <line id="Linie_50" data-name="Linie 50" x1="3.723" transform="translate(846.087 818.174)" fill="none" stroke="#485460" stroke-miterlimit="10" stroke-width="2"/>
    <line id="Linie_51" data-name="Linie 51" x1="2.135" y2="3.049" transform="translate(819.493 832.071)" fill="none" stroke="#485460" stroke-miterlimit="10" stroke-width="2"/>
    <line id="Linie_52" data-name="Linie 52" x2="2.135" y2="3.049" transform="translate(837.84 832.337)" fill="none" stroke="#485460" stroke-miterlimit="10" stroke-width="2"/>
    <path id="Pfad_643" data-name="Pfad 643" d="M889.381,886.728l-1.087-1.05a.156.156,0,0,1,.013-.235l4.588-3.571,3.866-3.009a.156.156,0,0,1,.222.215l-2.872,3.969-3.409,4.71a.156.156,0,0,1-.235.021Z" transform="translate(-59.643 -68.146)" fill="#485460" stroke="#485460" stroke-miterlimit="10" stroke-width="2"/>
    <rect id="Rechteck_268" data-name="Rechteck 268" width="5.052" height="3.988" transform="translate(827.474 791.584)" fill="#485460"/>
  </g>
</svg>
